<?xml version="1.0" encoding="utf-8"?>
<!-- Generator: Adobe Illustrator 16.0.0, SVG Export Plug-In . SVG Version: 6.00 Build 0)  -->
<!DOCTYPE svg PUBLIC "-//W3C//DTD SVG 1.1//EN" "http://www.w3.org/Graphics/SVG/1.1/DTD/svg11.dtd">
<svg version="1.1" id="Capa_1" xmlns="http://www.w3.org/2000/svg" xmlns:xlink="http://www.w3.org/1999/xlink" x="0px" y="0px"
	 width="512px" height="512px" viewBox="0 0 512 512" enable-background="new 0 0 512 512" xml:space="preserve">
<radialGradient id="SVGID_1_" cx="256" cy="256.0005" r="250.3469" gradientUnits="userSpaceOnUse">
	<stop  offset="0" style="stop-color:#5B813C"/>
	<stop  offset="0.4389" style="stop-color:#5B823E"/>
	<stop  offset="0.597" style="stop-color:#598444"/>
	<stop  offset="0.7097" style="stop-color:#56874F"/>
	<stop  offset="0.8008" style="stop-color:#528C5C"/>
	<stop  offset="0.8789" style="stop-color:#4B926C"/>
	<stop  offset="0.9467" style="stop-color:#40987E"/>
	<stop  offset="1" style="stop-color:#2F9C90"/>
</radialGradient>
<circle fill="none" stroke="url(#SVGID_1_)" stroke-width="40" stroke-miterlimit="10" cx="256" cy="256" r="230.347"/>
<path fill="#319186" d="M222.135,263.225h27.092v27.092h-27.092V263.225z"/>
<path fill="#319186" d="M222.135,303.862h27.092v27.092h-27.092V303.862z"/>
<path fill="#319186" d="M181.497,303.862h27.092v27.092h-27.092V303.862z"/>
<path fill="#319186" d="M262.773,303.862h27.092v27.092h-27.092V303.862z"/>
<path fill="#319186" d="M181.497,263.225h27.092v27.092h-27.092V263.225z"/>
<path fill="#319186" d="M351.273,167.5h-21.178c0.271,2.168,0.407,4.47,0.407,6.773c0,19.37-8.669,33.865-20.319,33.865
	c-3.794,0-6.772-2.981-6.772-6.773c0-3.794,2.979-6.773,6.772-6.773c1.626,0,6.773-7.18,6.773-20.319
	c0-2.438-0.136-4.741-0.542-6.773h-12.463c1.219-8.805,4.877-13.546,6.231-13.546s5.013,5.193,6.231,13.095h13.681
	c-1.761-14.947-9.616-26.641-19.912-26.641c-10.295,0-18.151,11.243-19.911,27.092h-14.361c0.272,2.168,0.408,4.47,0.408,6.773
	c0,19.37-8.67,33.865-20.319,33.865c-3.794,0-6.773-2.981-6.773-6.773c0-3.794,2.979-6.773,6.773-6.773
	c1.626,0,6.773-7.18,6.773-20.319c0-2.438-0.137-4.741-0.542-6.773h-12.463c1.219-8.805,4.877-13.546,6.231-13.546
	s5.013,4.741,6.231,13.095h13.68c-1.76-15.398-9.616-26.641-19.911-26.641c-10.295,0-18.151,11.243-19.912,27.092h-14.361
	c0.272,2.168,0.408,4.47,0.408,6.773c0,19.37-8.669,33.865-20.319,33.865c-3.794,0-6.773-2.981-6.773-6.773
	c0-3.794,2.979-6.773,6.773-6.773c1.626,0,6.773-7.18,6.773-20.319c0-2.438-0.136-4.741-0.542-6.773h-12.463
	c1.219-8.805,4.876-13.546,6.231-13.546c1.354,0,5.013,4.741,6.231,13.095h13.68c-1.76-15.398-9.616-26.641-19.911-26.641
	c-10.295,0-18.151,11.243-19.912,27.092h-21.178c-11.245,0-20.319,9.075-20.319,20.319v33.865h231.184v-33.865
	C371.592,176.575,362.518,167.5,351.273,167.5z"/>
<path fill="#319186" d="M262.773,263.225h27.092v27.092h-27.092V263.225z"/>
<path fill="#319186" d="M140.408,351.273c0,11.242,9.075,20.318,20.319,20.318h190.546c11.244,0,20.318-9.076,20.318-20.318V235.23
	H140.408V351.273z M167.951,256.452c0-3.793,2.979-6.773,6.773-6.773h162.551c3.794,0,6.773,2.979,6.773,6.773v81.276
	c0,3.792-2.979,6.772-6.773,6.772H174.724c-3.794,0-6.773-2.98-6.773-6.772V256.452z"/>
<path fill="#319186" d="M303.411,263.225h27.092v27.092h-27.092V263.225z"/>
<path fill="#319186" d="M303.411,303.862h27.092v27.092h-27.092V303.862z"/>
</svg>
