<?xml version="1.0" encoding="utf-8"?>
<!-- Generator: Adobe Illustrator 27.2.0, SVG Export Plug-In . SVG Version: 6.00 Build 0)  -->
<svg version="1.1" id="Capa_1" xmlns="http://www.w3.org/2000/svg" xmlns:xlink="http://www.w3.org/1999/xlink" x="0px" y="0px"
	 viewBox="0 0 512 512" style="enable-background:new 0 0 512 512;" xml:space="preserve">
<style type="text/css">
	.st0{fill:none;stroke:url(#SVGID_1_);stroke-width:40;stroke-miterlimit:10;}
	.st1{fill:#319186;}
</style>
<radialGradient id="SVGID_1_" cx="256" cy="256" r="250.347" gradientTransform="matrix(1 0 0 -1 0 512)" gradientUnits="userSpaceOnUse">
	<stop  offset="0" style="stop-color:#5B813C"/>
	<stop  offset="0.4389" style="stop-color:#5B823E"/>
	<stop  offset="0.597" style="stop-color:#598444"/>
	<stop  offset="0.7097" style="stop-color:#56874F"/>
	<stop  offset="0.8008" style="stop-color:#528C5C"/>
	<stop  offset="0.8789" style="stop-color:#4B926C"/>
	<stop  offset="0.9467" style="stop-color:#40987E"/>
	<stop  offset="1" style="stop-color:#2F9C90"/>
</radialGradient>
<circle class="st0" cx="256" cy="256" r="230.3"/>
<g>
	<path class="st1" d="M371.3,190.1c0,2.3,0,3.7,0,5.1c0,46.4-0.3,92.8,0.2,139.3c0.1,14.6-10.4,23.3-23.3,23.3
		c-61.8-0.3-123.5-0.1-185.3-0.1c-10.8,0-18.4-5.2-21.6-14.6c-0.7-2-0.8-4-0.8-6c0-47.7,0-95.5,0-143.2c0-0.9,0.1-1.9,0.2-3.3
		c1.6,1.3,1.7,2.9,2.2,4.2c7.2,21.6,14.4,43.2,21.6,64.8c3.9,11.7,10.3,16.3,22.7,16.3c10.3,0,20.6,0.1,30.9,0c3,0,4.2,0.7,4.2,4
		c-0.1,7.3,2.5,9.7,9.7,9.7c15.8,0,31.7,0,47.5,0c7.2,0,9.8-2.4,9.7-9.7c0-3.3,1.2-4.1,4.2-4c10.3,0.1,20.6,0.1,30.9,0
		c12.4,0,18.8-4.6,22.7-16.3c7.2-21.6,14.4-43.2,21.6-64.8C369.4,193.4,369.6,191.9,371.3,190.1z"/>
	<path class="st1" d="M180.2,181.5c8,0,16.1-0.1,24.1,0.1c2.9,0.1,4-0.7,4-3.8c0.2-15.6,8.3-23.5,23.9-23.5c16.1,0,32.1,0,48.2,0
		c14.5,0,23.2,8.4,23.1,22.9c0,3.5,1,4.5,4.5,4.5c15.8-0.2,31.7-0.1,47.5-0.1c4.2,0,4.4,0.3,3,4.3c-7.8,23.5-15.7,47.1-23.5,70.6
		c-1.7,5-4,6.7-9.3,6.7c-10.7,0-21.4-0.1-32,0.1c-3.3,0-4.4-1.1-4.3-4.4c0.1-7-2.2-9.2-9.3-9.2c-16.3,0-32.6,0-48.9,0
		c-6.4,0-8.7,2.3-8.9,8.6c-0.1,4.9-0.1,5-5.1,5c-10.2,0-20.4,0-30.6,0c-6.2,0-8.2-1.6-10.2-7.5c-7.7-23.1-15.4-46.2-23.1-69.2
		c-1.6-4.7-1.5-4.9,3.3-4.9C164.6,181.5,172.4,181.5,180.2,181.5z M255.6,181.5c10.2,0,20.4,0,30.6,0c1.4,0,2.9,0.3,3.3-1.8
		c1.4-6.5-2.2-11.3-8.9-11.3c-16.4-0.1-32.9-0.1-49.3,0c-6.2,0-8.7,2.9-9,9.2c-0.1,3.2,1,4.1,4.1,4
		C236.1,181.4,245.8,181.5,255.6,181.5z"/>
	<path class="st1" d="M255.7,276.4c-5.6,0-11.2-0.1-16.9,0c-2.4,0-3.5-0.8-3.4-3.3c0.1-2.6,0.1-5.3,0-7.9c-0.1-2.2,0.9-3,3-3
		c11.6,0,23.2,0,34.8,0c2.1,0,3.1,0.8,3,3c-0.1,2.7-0.1,5.5,0,8.2c0.1,2.2-0.9,2.9-3,2.9C267.5,276.3,261.6,276.3,255.7,276.4z"/>
</g>
</svg>
