<?xml version="1.0" encoding="utf-8"?>
<!-- Generator: Adobe Illustrator 27.2.0, SVG Export Plug-In . SVG Version: 6.00 Build 0)  -->
<svg version="1.1" id="Capa_1" xmlns="http://www.w3.org/2000/svg" xmlns:xlink="http://www.w3.org/1999/xlink" x="0px" y="0px"
	 viewBox="0 0 512 512" style="enable-background:new 0 0 512 512;" xml:space="preserve">
<style type="text/css">
	.st0{fill:none;stroke:url(#SVGID_1_);stroke-width:40;stroke-miterlimit:10;}
	.st1{fill:#319186;}
</style>
<radialGradient id="SVGID_1_" cx="256" cy="256" r="250.347" gradientTransform="matrix(1 0 0 -1 0 512)" gradientUnits="userSpaceOnUse">
	<stop  offset="0" style="stop-color:#5B813C"/>
	<stop  offset="0.4389" style="stop-color:#5B823E"/>
	<stop  offset="0.597" style="stop-color:#598444"/>
	<stop  offset="0.7097" style="stop-color:#56874F"/>
	<stop  offset="0.8008" style="stop-color:#528C5C"/>
	<stop  offset="0.8789" style="stop-color:#4B926C"/>
	<stop  offset="0.9467" style="stop-color:#40987E"/>
	<stop  offset="1" style="stop-color:#2F9C90"/>
</radialGradient>
<circle class="st0" cx="256" cy="256" r="230.3"/>
<g>
	<path class="st1" d="M205.6,287.3c-1.1-2.5-0.6-4.6-0.6-6.6c-0.1-10.4,0-20.8,0-31.2c0-10.2-3.8-14-14-14.1c-1.4,0-2.2-0.6-2.8-1.7
		c-1-1.7-2-3.7-3.8-4.3c-4.3-1.4-5.2-4.8-5.8-8.7c-0.6-3.7-0.9-7.5-0.9-11.3c0-3.1,1.2-5.4,4.3-6.2c3.2-0.8,5.7,0.3,7.3,3.2
		c2.7,5.1,5.3,10.2,7.7,15.3c1.2,2.5,2.8,4.2,5.4,5.3c14.2,6.5,24,17.1,29.5,31.7c1.1,3,2.4,3.4,5.2,2.5c3.4-1,2-3,1.3-4.9
		c-5.4-14.3-14.6-25.5-28-32.8c-4.2-2.3-5.5-4.7-5.4-9.4c0.3-17.8,0.1-35.7,0.1-53.5c0-4.3,2.3-7.4,5.8-8.3c3.7-0.9,7.2,0.4,9.2,3.5
		c1.2,1.9,1.2,3.9,1.2,6c0,16.1,0,32.3,0,48.4c0,2.6,0.1,4.4,3.7,4.4c3.5,0,3.6-1.8,3.6-4.4c0-20.3,0-40.6,0-60.9
		c0-6.1,3.6-9.5,9.2-8.9c4.4,0.5,7,3.8,7,9.2c0,20.2,0,40.3,0,60.5c0,2.2-0.4,4.5,3.2,4.5c2.9,0,4.2-0.7,4.1-3.9
		c-0.1-18-0.1-35.9,0-53.9c0-5.8,3.7-9.1,9.1-8.6c4.4,0.4,7,3.7,7,9.2c0,17.7,0,35.4,0,53.1c0,2.2-0.1,4.1,3.1,4.1
		c3.3,0.1,4.3-1,4.2-4.3c-0.2-11.2-0.1-22.4,0-33.6c0-5.7,2.9-9,7.9-9.1c5.2-0.1,8.3,3.2,8.3,9.1c0,18.6,0,37.2,0,55.8
		c0,1.8-0.1,3.6-0.3,5.5c-0.2,2.6-1,4.4-4,5.4c-5.2,1.8-7.9,7-7,12.5c0.4,2.4,0.7,4.9,1.4,7.3c0.5,1.9,0,3.3-0.9,4.8
		c-3,4.8-6.2,9.3-10.1,13.3c-1.5,1.5-2.4,3.2-2.2,5.5c0.8,13.2,1.4,26.5,2,39.7c0.6,13.2,1,26.5,1.7,39.8c0.2,3.7-1,5-4.8,4.9
		c-18.1-0.2-36.2-0.2-54.3,0c-3.5,0-4.9-1.1-5.3-4.5c-0.6-5.2-1.4-10.3-2.3-15.4c-0.4-2.6,0.5-4.5,1.8-6.6
		c9.3-14.4,17.1-29.5,22.2-45.9c1.2-4,2.3-8,2.8-12.1c0.6-5.2-2.3-10.4-7.1-12.3c-4.8-1.9-10.2-0.1-13.3,4.4
		C209.8,281.8,208.5,284.8,205.6,287.3z"/>
	<path class="st1" d="M369.3,252.4c0,8.2,0.4,16.4-0.1,24.6c-0.7,10.1-3.6,20-9.4,28.2c-5.6,8-5.7,16.2-4.9,25.1
		c1.1,12,1.7,24.1,2.7,36.2c0.3,3.7-0.8,5.1-4.7,5c-12.6-0.2-25.2-0.2-37.9,0c-3.7,0.1-4.7-1.3-4.5-4.8c1.1-15.8,2-31.7,3.3-47.5
		c0.3-3.2-0.8-5.5-2.4-7.9c-10.2-15.4-18.3-31.7-23.5-49.5c-0.6-2.1-1-4.3-1.1-6.5c0-2.2,0.2-4.3,2.6-5.1c2.5-0.9,4.2,0.4,5.6,2.4
		c3.2,4.9,6.6,9.7,9.7,14.7c2.1,3.3,4.4,5.7,8.4,6.9c7.9,2.4,13.3,7.9,16.2,15.7c0.8,2,1.5,3.5,4.1,3c2.7-0.5,3.8-1.6,2.7-4.5
		c-3.3-9.2-9.3-15.9-18.2-19.8c-2.8-1.2-3.9-2.7-3.9-5.8c0.1-15.2,0.1-30.5,0.1-45.7c0-0.5,0-1,0-1.6c0.1-2.7,1.3-4.6,4.2-4.6
		c2.9,0,4.1,1.9,4.1,4.6c0,6.9,0,13.8,0,20.7c0,4.4,0.1,8.9,0,13.3c-0.1,2.7,0.2,4.4,3.7,4.4c3.6,0,3.6-1.9,3.6-4.5
		c-0.1-12.9,0-25.8,0-38.6c0-1,0-2.1,0-3.1c0.1-2.7,1.3-4.5,4.2-4.5c2.9,0,4,2,4.1,4.7c0,1,0,2.1,0,3.1c0,12.9,0,25.8,0,38.6
		c0,2.8,0.4,4.4,3.8,4.3c3.2-0.1,3.6-1.6,3.5-4.1c-0.1-10.1,0-20.3,0-30.5c0-1,0-2.1,0-3.1c0-3,0.9-5.3,4.3-5.2c3.2,0.1,4,2.3,4,5.1
		c0,11.3,0.1,22.6,0,34c0,2.5,0.6,3.8,3.5,3.8c2.8,0,3.9-0.8,3.9-3.8c-0.2-7.3,0-14.6-0.1-21.9c0-2.9,0.6-5.4,4-5.5
		c3.7-0.1,4.4,2.5,4.4,5.6c0,8.1,0,16.1,0,24.2C369.4,252.4,369.4,252.4,369.3,252.4z"/>
	<path class="st1" d="M197.7,271.2c0,7.5-0.1,15.1,0.1,22.6c0.1,3-0.7,4.7-3.7,5.9c-9.1,3.7-15.1,10.4-18.3,19.6
		c-0.6,1.6-1.5,3.3,1.1,4.1c2.2,0.7,4.3,1.4,5.4-1.7c3.2-9.2,9.7-14.9,19.1-17.3c1.9-0.5,3.1-1.8,4.1-3.4
		c3.7-5.7,7.5-11.3,11.2-16.9c1.4-2.1,3.1-3.7,5.8-2.8c2.6,0.9,2.7,3.2,2.6,5.5c-0.3,6.4-2.9,12.1-5,18c-4.7,12.9-11,25-18.8,36.3
		c-2.8,4.1-3.6,8.1-2.6,12.8c0.9,4.5,1.3,9,2.1,13.5c0.6,3.1-0.4,4.1-3.6,4.1c-12.7-0.1-25.5-0.2-38.3,0c-3.9,0.1-4.3-1.5-3.7-4.7
		c0.9-5.1,1.3-10.3,2.3-15.4c0.7-3.5-0.3-6.3-2.1-9.2c-5.4-8.7-9.8-17.7-11.8-27.9c-0.6-3.3-1.1-6.7-1.1-10.1c0-14.8,0-29.7,0-44.5
		c0-0.4,0-0.8,0-1.2c0-2.9,1.2-4.9,4.3-4.8c2.9,0.1,4,2.1,4,4.7c0,7.7,0.1,15.4,0,23c0,2.6,1,3.4,3.5,3.4c2.8,0.1,3.9-0.8,3.9-3.8
		c-0.1-10.5-0.1-21.1,0-31.6c0-1.2,0-2.3,0.1-3.5c0.2-2.4,1.5-3.9,3.9-4c2.7-0.1,4.1,1.4,4.3,4c0.1,2.5,0.1,4.9,0.1,7.4
		c0,9.2,0.1,18.5,0,27.7c0,2.6,0.7,3.7,3.5,3.8c2.9,0,3.8-1,3.8-3.9c-0.1-13.3-0.1-26.5,0-39.8c0-1.2,0-2.4,0.1-3.5
		c0.3-2.2,1.7-3.5,3.9-3.6c2.5,0,3.9,1.3,4.2,3.7c0.1,1.2,0.1,2.3,0.1,3.5c0,12.6,0,25.2,0,37.9c0,2.4-1.3,5.6,3.5,5.7
		c5,0.1,3.7-3.3,3.7-5.9c0.1-9.5,0-19,0-28.5c0-0.9,0-1.8,0-2.7c-0.1-3,0.4-5.8,4.1-5.8c3.7-0.1,4.3,2.6,4.3,5.7
		C197.7,255.6,197.7,263.4,197.7,271.2z"/>
</g>
</svg>
