<?xml version="1.0" encoding="utf-8"?>
<!-- Generator: Adobe Illustrator 27.2.0, SVG Export Plug-In . SVG Version: 6.00 Build 0)  -->
<svg version="1.1" id="Capa_1" xmlns="http://www.w3.org/2000/svg" xmlns:xlink="http://www.w3.org/1999/xlink" x="0px" y="0px"
	 viewBox="0 0 512 512" style="enable-background:new 0 0 512 512;" xml:space="preserve">
<style type="text/css">
	.st0{fill:none;stroke:url(#SVGID_1_);stroke-width:40;stroke-miterlimit:10;}
	.st1{fill:#319186;}
</style>
<radialGradient id="SVGID_1_" cx="256" cy="256" r="250.347" gradientTransform="matrix(1 0 0 -1 0 512)" gradientUnits="userSpaceOnUse">
	<stop  offset="0" style="stop-color:#5B813C"/>
	<stop  offset="0.4389" style="stop-color:#5B823E"/>
	<stop  offset="0.597" style="stop-color:#598444"/>
	<stop  offset="0.7097" style="stop-color:#56874F"/>
	<stop  offset="0.8008" style="stop-color:#528C5C"/>
	<stop  offset="0.8789" style="stop-color:#4B926C"/>
	<stop  offset="0.9467" style="stop-color:#40987E"/>
	<stop  offset="1" style="stop-color:#2F9C90"/>
</radialGradient>
<circle class="st0" cx="256" cy="256" r="230.3"/>
<g>
	<path class="st1" d="M256.1,340.1c-25,0-50.1,0-75.1,0c-5.9,0-11.4-1.1-16.2-4.8c-5.9-4.5-9.2-10.5-9.2-18c-0.1-20.3,0-40.7,0-61
		c0-3.6,0.2-3.7,3.8-2.5c29.2,9.7,58.4,19.3,87.5,29.2c6.2,2.1,12.1,2.1,18.3,0c29-9.8,58.1-19.4,87.2-29.1c4-1.3,4-1.3,4,2.8
		c0,19.5-0.4,39,0.1,58.5c0.3,11.8-8.1,24.9-25,24.9C306.3,340,281.2,340.1,256.1,340.1z"/>
	<path class="st1" d="M199,197.2c6.2,0,12.3,0,18.5,0c4.5,0,4.6,0,4.6-4.4c0-3,0.1-6.1,1.1-9c2.6-6.9,7.6-11,15-11.4
		c11.8-0.6,23.6-0.8,35.3,0c10.3,0.8,15.7,7.2,16.3,17.6c0.4,7.1,0.4,7.1,7.5,7.1c11.5,0,23-0.1,34.4,0c11.9,0.1,20.6,6.4,23.9,17.1
		c0.9,3,0.7,6,0.7,9c0,4.6-0.1,9.2,0.1,13.8c0.1,2.3-0.9,3.3-3,4c-18.6,6.1-37.2,12.3-55.8,18.5c-12.6,4.2-25.1,8.3-37.7,12.6
		c-2.8,1-5.4,0.9-8.2,0c-31.1-10.4-62.3-20.8-93.5-31.1c-2.2-0.7-2.9-1.9-2.8-4.1c0.1-5.1,0-10.2,0-15.3c0-14.3,9.7-24.1,24.1-24.4
		C186.1,197.1,192.6,197.2,199,197.2z M256,197.2c4.5,0,8.9-0.1,13.4,0c2.9,0.1,2.8-1.8,2.8-3.7c0-2,0-3.7-2.9-3.7
		c-8.9,0.1-17.9,0.1-26.8,0c-2.9,0-2.8,1.8-2.8,3.8c0,2,0,3.8,2.9,3.7C247,197.1,251.5,197.2,256,197.2z"/>
</g>
</svg>
