<?xml version="1.0" encoding="utf-8"?>
<!-- Generator: Adobe Illustrator 16.0.0, SVG Export Plug-In . SVG Version: 6.00 Build 0)  -->
<!DOCTYPE svg PUBLIC "-//W3C//DTD SVG 1.1//EN" "http://www.w3.org/Graphics/SVG/1.1/DTD/svg11.dtd">
<svg version="1.1" id="Capa_1" xmlns="http://www.w3.org/2000/svg" xmlns:xlink="http://www.w3.org/1999/xlink" x="0px" y="0px"
	 width="512px" height="512px" viewBox="0 0 512 512" enable-background="new 0 0 512 512" xml:space="preserve">
<radialGradient id="SVGID_1_" cx="256" cy="256.0005" r="250.3469" gradientUnits="userSpaceOnUse">
	<stop  offset="0" style="stop-color:#5B813C"/>
	<stop  offset="0.4389" style="stop-color:#5B823E"/>
	<stop  offset="0.597" style="stop-color:#598444"/>
	<stop  offset="0.7097" style="stop-color:#56874F"/>
	<stop  offset="0.8008" style="stop-color:#528C5C"/>
	<stop  offset="0.8789" style="stop-color:#4B926C"/>
	<stop  offset="0.9467" style="stop-color:#40987E"/>
	<stop  offset="1" style="stop-color:#2F9C90"/>
</radialGradient>
<circle fill="none" stroke="url(#SVGID_1_)" stroke-width="40" stroke-miterlimit="10" cx="256" cy="256" r="230.347"/>
<g>
	<path fill-rule="evenodd" clip-rule="evenodd" fill="#319186" d="M255.832,140.408c63.655,0.031,115.801,52.066,115.76,115.517
		c-0.041,63.441-52.775,115.739-116.633,115.667c-63.018-0.07-114.637-52.669-114.551-116.725
		C140.492,191.811,192.358,140.377,255.832,140.408z M281.605,277.996c1.039,1.134,1.82,2.021,2.639,2.875
		c7.768,8.121,19.621,10.709,29.814,6.518c10.326-4.247,17.42-14.737,16.965-25.813c-0.445-10.812-1.854-21.449-5.498-31.801
		c-12.428-35.299-47.848-54.427-83.625-47.242c-39.494,7.932-65.062,45.131-58.917,84.139c3.495,22.183,14.74,39.324,33.464,51.525
		c16.355,10.657,34.368,13.81,53.46,10.604c11.543-1.937,22.016-6.685,31.346-13.792c3.898-2.97,4.254-6.892,1.137-10.211
		c-3.023-3.22-5.594-3.114-10.502,0.299c-16.68,11.598-34.822,14.5-54.15,8.393c-29.657-9.371-48.53-41.03-40.293-72.998
		c9.874-38.321,52.966-57.565,87.855-38.627c24.201,13.137,32.137,35.53,31.928,61.503c-0.08,9.875-11.313,15.532-19.914,10.716
		c-5.154-2.885-7.037-7.576-7.014-13.288c0.043-10.355,0.051-20.711-0.016-31.067c-0.031-4.76-2.039-7.362-5.752-7.852
		c-3.994-0.527-6.488,1.458-7.99,6.358c-19.881-10.139-36.364-7.556-47.442,7.435c-9.726,13.161-8.344,31.794,3.288,43.603
		c5.501,5.586,12.192,9.015,19.973,9.843C263.832,290.335,273.607,286.525,281.605,277.996z"/>
	<path fill-rule="evenodd" clip-rule="evenodd" fill="#319186" d="M256.537,275.78c-11.189,0.062-20.172-8.757-20.309-19.98
		c-0.127-10.435,7.338-20.472,20.15-20.522c11.923-0.047,20.401,8.501,20.345,20.366
		C276.662,268.307,266.841,275.711,256.537,275.78z"/>
</g>
</svg>
