<?xml version="1.0" encoding="utf-8"?>
<!-- Generator: Adobe Illustrator 27.2.0, SVG Export Plug-In . SVG Version: 6.00 Build 0)  -->
<svg version="1.1" id="Capa_1" xmlns="http://www.w3.org/2000/svg" xmlns:xlink="http://www.w3.org/1999/xlink" x="0px" y="0px"
	 viewBox="0 0 512 512" style="enable-background:new 0 0 512 512;" xml:space="preserve">
<style type="text/css">
	.st0{fill:none;stroke:url(#SVGID_1_);stroke-width:40;stroke-miterlimit:10;}
	.st1{fill:#319186;}
</style>
<radialGradient id="SVGID_1_" cx="256" cy="256" r="250.347" gradientTransform="matrix(1 0 0 -1 0 512)" gradientUnits="userSpaceOnUse">
	<stop  offset="0" style="stop-color:#5B813C"/>
	<stop  offset="0.4389" style="stop-color:#5B823E"/>
	<stop  offset="0.597" style="stop-color:#598444"/>
	<stop  offset="0.7097" style="stop-color:#56874F"/>
	<stop  offset="0.8008" style="stop-color:#528C5C"/>
	<stop  offset="0.8789" style="stop-color:#4B926C"/>
	<stop  offset="0.9467" style="stop-color:#40987E"/>
	<stop  offset="1" style="stop-color:#2F9C90"/>
</radialGradient>
<circle class="st0" cx="256" cy="256" r="230.3"/>
<g>
	<path class="st1" d="M225.2,256c0-31.9,0-63.9,0-95.8c0-4.5,0.1-4.6,4.5-4.6c32.7,0,65.4,0,98.1,0c10.3,0,15.6,5.4,15.7,15.7
		c0,56.5,0,112.9,0,169.4c0,10.3-5.4,15.7-15.7,15.7c-32.7,0-65.4,0-98.1,0c-4.4,0-4.4-0.1-4.4-4.7
		C225.2,319.8,225.2,287.9,225.2,256z M277.7,285.9c7.9,0,15.8,0,23.8,0c6.1,0,6,0,4.5-5.9c-2.3-9.2-7.2-16.4-15.8-20.8
		c-3.2-1.6-3.2-1.6-0.5-4.2c6.6-6.6,6.7-17.2,0.2-24c-6.3-6.5-17.2-6.6-23.8-0.3c-7,6.7-7,17.5-0.1,24.4c2.6,2.5,2.6,2.6-0.7,4.2
		c-4.8,2.4-8.6,5.8-11.5,10.3c-2.3,3.6-3.4,7.7-4.6,11.8c-1.3,4.3-1.2,4.5,3.5,4.5C261,285.9,269.4,285.9,277.7,285.9z"/>
	<path class="st1" d="M217.2,256.2c0,31.8,0,63.6,0,95.4c0,4.8,0,4.9-4.9,4.8c-6.4-0.1-12.8,0.5-19.2-0.4c-7.3-1-12-7.6-11.3-15.7
		c0.1-1.7,1.1-2.2,2.6-2.2c2,0,3.9,0,5.9,0c7.4-0.1,12.1-4,13.2-11.3c0.6-4.2,0.6-8.4-0.3-12.6c-1.2-5.6-5.5-9.3-11.2-9.7
		c-2.4-0.2-4.8-0.1-7.2-0.1c-2.2,0.1-3.2-1-3.1-3.1c0-0.9,0.1-1.7,0-2.6c-0.3-2.8,0.9-3.9,3.8-3.7c2.3,0.1,4.6,0.1,6.8-0.3
		c6.5-1,10-4.5,11.1-11c0.6-4.1,0.7-8.2-0.1-12.3c-1.2-6.1-5.8-10.1-12-10.5c-1.9-0.1-3.9-0.2-5.9,0c-2.9,0.2-3.9-1.1-3.7-3.8
		c0.1-1,0-2,0-2.9c0-1.9,0.8-2.8,2.7-2.8c1.8,0.1,3.7,0,5.5,0c7.7-0.1,12.7-4.5,13.5-12.1c0.3-3.1,0.3-6.3,0-9.4
		c-0.8-7.8-5.4-12-13.2-12.5c-1.8-0.1-3.7-0.1-5.5,0c-2.3,0.1-3.1-1-3.1-3.1c0-0.9,0.1-1.7,0-2.6c-0.3-2.8,1-4,3.8-3.8
		c1.6,0.1,3.3,0,4.9,0c7.2-0.2,11.8-4,13-11.1c0.7-4.2,0.7-8.4-0.2-12.6c-1.2-5.9-5.6-9.6-11.7-9.9c-2-0.1-3.9,0-5.9-0.1
		c-3.6-0.1-4.1-0.6-3.9-4.2c0.4-8.3,5.3-13.6,13.7-14c6.3-0.3,12.6,0,18.9-0.1c2.6,0,2.9,1.4,2.9,3.6c-0.1,12.6,0,25.2,0,37.8
		C217.2,216.7,217.2,236.4,217.2,256.2z"/>
	<path class="st1" d="M182.3,200c-2.6,0-5.2,0.1-7.8,0c-4-0.2-5.6-1.8-5.9-5.9c0-0.1,0-0.2,0-0.3c-0.6-11.2,0.3-12.1,11.4-12.1
		c3,0,6.1-0.1,9.1,0c4.8,0.2,6.4,1.8,6.5,6.6c0,2.1,0.1,4.1,0,6.2c-0.2,3.5-1.6,5.2-5.1,5.5C187.8,200.1,185,199.9,182.3,200
		C182.3,199.9,182.3,199.9,182.3,200z"/>
	<path class="st1" d="M182.2,330.3c-2.7,0-5.4,0.2-8.1,0c-3.6-0.3-5-1.8-5.3-5.3c-0.2-2.5-0.2-5,0-7.5c0.3-3.6,1.7-5.2,5.3-5.4
		c5.4-0.2,10.8-0.2,16.2,0c3.7,0.2,5.2,2,5.3,5.6c0.1,2.2,0.1,4.3,0,6.5c-0.1,4.2-1.7,5.8-6,6.1c-0.2,0-0.4,0-0.6,0
		C186.7,330.4,184.5,330.4,182.2,330.3C182.2,330.3,182.2,330.3,182.2,330.3z"/>
	<path class="st1" d="M182,243.2c-2.7,0-5.4,0-8.1,0c-3,0-4.8-1.5-5-4.4c-0.2-2.9-0.2-5.8,0-8.7c0.2-3,2.1-4.7,5.1-4.8
		c5.5-0.1,11-0.1,16.6,0c3.3,0.1,4.9,1.8,5,5.2c0.1,2.6,0.1,5.2,0,7.8c-0.2,3.4-1.8,4.9-5.1,5C187.6,243.2,184.8,243.2,182,243.2z"
		/>
	<path class="st1" d="M182.2,268.8c2.7,0,5.4-0.1,8.1,0c3.4,0.1,5,1.6,5.2,4.9c0.1,2.7,0.1,5.4,0,8.1c-0.1,3.1-1.9,4.9-4.9,4.9
		c-5.5,0.1-11,0.1-16.6,0c-3,0-5-1.7-5.2-4.7c-0.2-2.9-0.2-5.8,0-8.7c0.2-2.9,2-4.5,5-4.5C176.6,268.8,179.4,268.8,182.2,268.8z"/>
</g>
</svg>
