<?xml version="1.0" encoding="utf-8"?>
<!-- Generator: Adobe Illustrator 16.0.0, SVG Export Plug-In . SVG Version: 6.00 Build 0)  -->
<!DOCTYPE svg PUBLIC "-//W3C//DTD SVG 1.1//EN" "http://www.w3.org/Graphics/SVG/1.1/DTD/svg11.dtd">
<svg version="1.1" id="Capa_1" xmlns="http://www.w3.org/2000/svg" xmlns:xlink="http://www.w3.org/1999/xlink" x="0px" y="0px"
	 width="512px" height="512px" viewBox="0 0 512 512" enable-background="new 0 0 512 512" xml:space="preserve">
<radialGradient id="SVGID_1_" cx="256" cy="256.0005" r="250.3469" gradientUnits="userSpaceOnUse">
	<stop  offset="0" style="stop-color:#5B813C"/>
	<stop  offset="0.4389" style="stop-color:#5B823E"/>
	<stop  offset="0.597" style="stop-color:#598444"/>
	<stop  offset="0.7097" style="stop-color:#56874F"/>
	<stop  offset="0.8008" style="stop-color:#528C5C"/>
	<stop  offset="0.8789" style="stop-color:#4B926C"/>
	<stop  offset="0.9467" style="stop-color:#40987E"/>
	<stop  offset="1" style="stop-color:#2F9C90"/>
</radialGradient>
<circle fill="none" stroke="url(#SVGID_1_)" stroke-width="40" stroke-miterlimit="10" cx="256" cy="256" r="230.347"/>
<g>
	<path fill="#319186" d="M217.56,140.409h76.879v36.605H217.56V140.409z"/>
	<path fill="#319186" d="M308.003,155.503v35.076H203.996v-35.076H176.42v216.09h159.158v-216.09H308.003z M244.216,309.049
		l-9.591,9.591l-9.676-9.676l-9.676,9.676l-9.591-9.591l9.676-9.676l-9.676-9.677l9.591-9.591l9.676,9.676l9.676-9.676l9.591,9.591
		l-9.676,9.677L244.216,309.049z M220.672,260.456l-16.54-20.688l10.595-8.47l6.067,7.589l15.037-18.378l10.498,8.589
		L220.672,260.456z M307.091,306.154h-47.022v-13.563h47.022V306.154z M307.091,249.823h-47.022v-13.564h47.022V249.823z"/>
</g>
</svg>
