<?xml version="1.0" encoding="utf-8"?>
<!-- Generator: Adobe Illustrator 16.0.0, SVG Export Plug-In . SVG Version: 6.00 Build 0)  -->
<!DOCTYPE svg PUBLIC "-//W3C//DTD SVG 1.1//EN" "http://www.w3.org/Graphics/SVG/1.1/DTD/svg11.dtd">
<svg version="1.1" id="Capa_1" xmlns="http://www.w3.org/2000/svg" xmlns:xlink="http://www.w3.org/1999/xlink" x="0px" y="0px"
	 width="512px" height="512px" viewBox="0 0 512 512" enable-background="new 0 0 512 512" xml:space="preserve">
<radialGradient id="SVGID_1_" cx="256" cy="256.0005" r="250.3469" gradientUnits="userSpaceOnUse">
	<stop  offset="0" style="stop-color:#5B813C"/>
	<stop  offset="0.4389" style="stop-color:#5B823E"/>
	<stop  offset="0.597" style="stop-color:#598444"/>
	<stop  offset="0.7097" style="stop-color:#56874F"/>
	<stop  offset="0.8008" style="stop-color:#528C5C"/>
	<stop  offset="0.8789" style="stop-color:#4B926C"/>
	<stop  offset="0.9467" style="stop-color:#40987E"/>
	<stop  offset="1" style="stop-color:#2F9C90"/>
</radialGradient>
<circle fill="none" stroke="url(#SVGID_1_)" stroke-width="40" stroke-miterlimit="10" cx="256" cy="256" r="230.347"/>
<g>
	<g>
		<path fill="#319186" d="M320.345,128.373H143.8c-13.198,0-23.929,10.736-23.929,23.929v127.622
			c0,13.198,10.73,23.929,23.929,23.929c16.745,0,18.994,0,18.994,0h4.935v39.883c0,7.114,8.625,10.63,13.613,5.642
			c22.27-22.275,6.63-6.631,43.184-43.185c1.5-1.499,3.52-2.34,5.642-2.34h90.175c13.192,0,23.929-10.73,23.929-23.929
			c0-74.478,0-52.963,0-127.622C344.273,139.109,333.537,128.373,320.345,128.373z M159.753,176.231h112.733
			c4.408,0,7.977,3.568,7.977,7.976c0,4.408-3.568,7.977-7.977,7.977H159.753c-4.408,0-7.976-3.568-7.976-7.976
			C151.777,179.799,155.345,176.231,159.753,176.231z M240.581,255.995h-80.827c-4.408,0-7.976-3.568-7.976-7.976
			c0-4.409,3.568-7.977,7.976-7.977h80.827c4.408,0,7.977,3.568,7.977,7.977C248.557,252.427,244.989,255.995,240.581,255.995z
			 M304.392,224.089H159.753c-4.408,0-7.976-3.568-7.976-7.976c0-4.408,3.568-7.977,7.976-7.977h144.638
			c4.408,0,7.977,3.568,7.977,7.977C312.368,220.521,308.8,224.089,304.392,224.089z"/>
	</g>
</g>
<g>
	<g>
		<path fill="#319186" d="M368.2,160.279h-7.87v119.646c0,21.989-17.998,39.882-39.988,39.882h-85.808l-17.016,15.847h67.616
			l45.521,45.627c5.001,5.002,13.615,1.491,13.615-5.639v-39.988h23.929c13.195,0,23.93-10.628,23.93-23.823V184.208
			C392.13,171.013,381.396,160.279,368.2,160.279z"/>
	</g>
</g>
</svg>
