<?xml version="1.0" encoding="utf-8"?>
<!-- Generator: Adobe Illustrator 16.0.0, SVG Export Plug-In . SVG Version: 6.00 Build 0)  -->
<!DOCTYPE svg PUBLIC "-//W3C//DTD SVG 1.1//EN" "http://www.w3.org/Graphics/SVG/1.1/DTD/svg11.dtd">
<svg version="1.1" id="Capa_1" xmlns="http://www.w3.org/2000/svg" xmlns:xlink="http://www.w3.org/1999/xlink" x="0px" y="0px"
	 width="512px" height="512px" viewBox="0 0 512 512" enable-background="new 0 0 512 512" xml:space="preserve">
<radialGradient id="SVGID_1_" cx="256" cy="256.0005" r="250.3469" gradientUnits="userSpaceOnUse">
	<stop  offset="0" style="stop-color:#5B813C"/>
	<stop  offset="0.4389" style="stop-color:#5B823E"/>
	<stop  offset="0.597" style="stop-color:#598444"/>
	<stop  offset="0.7097" style="stop-color:#56874F"/>
	<stop  offset="0.8008" style="stop-color:#528C5C"/>
	<stop  offset="0.8789" style="stop-color:#4B926C"/>
	<stop  offset="0.9467" style="stop-color:#40987E"/>
	<stop  offset="1" style="stop-color:#2F9C90"/>
</radialGradient>
<circle fill="none" stroke="url(#SVGID_1_)" stroke-width="40" stroke-miterlimit="10" cx="256" cy="256" r="230.347"/>
<path fill="#319186" d="M343.739,264.001v-55.833h-23.929c-4.404,0-7.976,3.571-7.976,7.976v119.644
	c0-17.596,14.309-31.905,31.904-31.905c17.597,0,31.905,14.31,31.905,31.905h8.508c4.409,0,7.977-3.567,7.977-7.977v-23.929h-24.461
	c-4.408,0-7.976-3.567-7.976-7.976c0-4.409,3.567-7.977,7.976-7.977h24.461v-15.952h-40.413
	C347.308,271.978,343.739,268.41,343.739,264.001z"/>
<path fill="#319186" d="M343.739,319.835c-8.794,0-15.952,7.158-15.952,15.952s7.158,15.952,15.952,15.952
	s15.953-7.158,15.953-15.952S352.533,319.835,343.739,319.835z"/>
<path fill="#319186" d="M367.668,208.167h-7.976v47.857h32.437v-23.929C392.129,218.901,380.863,208.167,367.668,208.167z"/>
<path fill="#319186" d="M248.025,319.835c-8.794,0-15.953,7.158-15.953,15.952s7.159,15.952,15.953,15.952
	s15.953-7.158,15.953-15.952S256.819,319.835,248.025,319.835L248.025,319.835z"/>
<path fill="#319186" d="M200.167,319.835c-8.794,0-15.952,7.158-15.952,15.952s7.158,15.952,15.952,15.952
	c8.794,0,15.953-7.158,15.953-15.952S208.962,319.835,200.167,319.835z"/>
<path fill="#319186" d="M160.287,176.263c-3.264,0-6.193,1.986-7.408,5.016l-32.437,79.763c-0.623,1.558-0.74,3.271-0.326,4.891
	l16.484,63.81c0.64,2.562,2.495,4.533,4.842,5.455l52.978-158.934L160.287,176.263L160.287,176.263z"/>
<path fill="#319186" d="M202.401,271.978l31.905-95.715h-23.132l-31.905,95.715H202.401z"/>
<path fill="#319186" d="M242.283,271.978l31.905-95.715h-23.131l-31.905,95.715H242.283z"/>
<path fill="#319186" d="M303.858,176.263h-12.922l-31.904,95.715h36.851v-79.763h7.976c4.467,0,7.977-3.509,7.977-7.976
	S308.325,176.263,303.858,176.263z"/>
<path fill="#319186" d="M174.006,287.93l-15.812,47.436c0.682,0.189,1.35,0.422,2.093,0.422h7.976
	c0-17.596,14.309-31.905,31.905-31.905c9.575,0,18.077,4.325,23.929,11.023c5.852-6.698,14.354-11.023,23.929-11.023
	c17.596,0,31.905,14.31,31.905,31.905h15.952V287.93H174.006z"/>
</svg>
