<?xml version="1.0" encoding="UTF-8"?><svg id="Capa_1" xmlns="http://www.w3.org/2000/svg" width="500" height="500" xmlns:xlink="http://www.w3.org/1999/xlink" viewBox="0 0 500 500"><defs><style>.cls-1{fill:#fff;}.cls-2{fill:none;}.cls-3{fill:#e23334;}</style><clipPath id="clippath"><path class="cls-2" d="m113.54,38.44c-35.53,23.18-64.8,55.16-84.71,92.85v233.31c28.16,53.29,75.03,95.18,131.86,116.92h178.63c57.32-21.93,104.51-64.37,132.6-118.32v-230.51c-19.92-38.29-49.48-70.78-85.44-94.25H113.54Z"/></clipPath></defs><path class="cls-3" d="m250,500c138.07,0,250-111.93,250-250S388.07,0,250,0,0,111.93,0,250s111.93,250,250,250"/><g><path class="cls-1" d="m194.63,183.65c0-17.99.1-35.98-.07-53.98-.04-4.42,1.47-6.91,5.54-8.87,15.01-7.21,29.89-14.71,44.71-22.3,3.63-1.86,6.7-1.88,10.33-.02,15.28,7.79,30.64,15.43,46.05,22.96,3.69,1.8,4.18,4.65,4.18,8.21-.05,35.48-.03,70.97-.03,106.45,0,6.38,3,9.85,9.29,11.24,2.38.53,2.41-1.13,2.91-2.43,1.61-4.19,2.83-8.57,4.83-12.56,2.64-5.28,5.95-10.64,12.72-10.59,6.5.05,9.87,5.17,12.38,10.33,4.62,9.5,7.78,19.52,7.79,30.21,0,3.52,1.25,5.37,4.4,6.85,15.21,7.18,30.26,14.7,45.48,21.85,3.67,1.72,5.37,3.93,5.26,8.01-.2,7.16-.17,14.33-.01,21.49.08,3.8-1.33,6.1-4.84,7.79-50.41,24.29-100.77,48.66-151.1,73.11-3.17,1.54-5.75,1.52-8.92-.02-50.33-24.45-100.69-48.81-151.1-73.1-3.26-1.57-4.9-3.6-4.83-7.28.13-7.49.13-14.99,0-22.49-.07-3.67,1.51-5.73,4.8-7.29,15.35-7.27,30.57-14.81,45.93-22.06,3.15-1.49,4.39-3.34,4.4-6.86,0-10.69,3.17-20.7,7.79-30.21,2.51-5.16,5.88-10.29,12.38-10.33,6.76-.05,10.06,5.32,12.72,10.59,1.94,3.84,3.38,7.98,4.6,12.11.93,3.13,2.11,3.21,4.98,2.14,5.52-2.08,7.81-5.16,7.63-11.47-.51-17.14-.18-34.31-.17-51.47Zm196.33,114.06c-.49-.71-.61-1.1-.86-1.23-12.55-6.17-25.12-12.33-37.68-18.47-1.41-.69-2.7-.69-4.25.03-5.55,2.56-9.41,5.91-7.88,12.85.42,1.9.1,3.99.02,5.98-.13,3.54-2,5.84-5.54,5.73-3.26-.1-5.03-2.36-5.09-5.68-.07-3.5-.16-7,0-10.5.13-2.84-.81-4.47-3.54-5.77-6.6-3.14-10.97-8.48-11.26-15.89-.17-4.34-2.14-6.1-5.56-7.74-3.11-1.48-4.04-1.03-4,2.48.13,11.83-.07,23.66.11,35.49.06,4.21-1.42,6.67-5.3,8.54-15.14,7.33-30.18,14.89-45.15,22.57-3.47,1.78-6.29,1.88-9.81.06-14.36-7.42-28.72-14.84-43.38-21.63-5.62-2.6-7.49-5.94-7.26-11.9.42-10.98.16-21.99.06-32.99-.01-1.26,1.07-4.3-1.86-3.29-3.53,1.22-7.7,2.14-7.51,7.78.19,5.81-2.41,11.6-7.5,13.85-7.75,3.44-7.88,9.15-7.35,15.78.05.66-.02,1.33,0,2,.11,3.86-1.34,6.86-5.5,6.79-3.84-.06-5.28-2.91-5.22-6.58.05-3,.03-6,0-9-.06-6.15-7.74-11-13.28-8.34-11.26,5.41-22.5,10.86-33.71,16.37-1.21.6-3,.69-3.3,2.75.57.32,1.12.67,1.69.95,44.68,21.63,89.37,43.22,134,64.94,3.48,1.69,6.31,1.78,9.84.07,42.23-20.57,84.53-40.99,126.81-61.46,3.09-1.5,6.16-3.04,9.29-4.58Zm-185.61-82.43c0,24.47.07,48.94-.07,73.41-.02,3.68,1.2,5.73,4.51,7.32,10.21,4.89,20.31,10,30.38,15.16,3.14,1.61,4.55,1.85,4.54-2.55-.11-49.44-.1-98.88-.01-148.33,0-3.29-1.1-5.15-4.05-6.58-10.19-4.92-20.26-10.09-30.39-15.14-4.86-2.42-4.89-2.4-4.89,3.28,0,24.47,0,48.94,0,73.41Zm50,19.01c0,24.64.07,49.27-.07,73.91-.02,4.12.75,5,4.62,2.98,10.03-5.24,20.16-10.3,30.36-15.19,3.34-1.6,4.45-3.72,4.44-7.36-.1-49.11-.11-98.22,0-147.32,0-4.11-.74-5-4.61-2.98-9.88,5.17-19.84,10.2-29.92,14.95-3.73,1.76-4.93,4.05-4.9,8.09.17,24.3.09,48.61.09,72.91Zm-5.31-125.39c-1.2.45-2.48.82-3.65,1.4-9.83,4.88-19.65,9.78-29.45,14.73-1.08.55-2.9.7-2.72,2.41.13,1.26,1.66,1.49,2.67,2,9.8,4.93,19.65,9.79,29.43,14.76,2.42,1.23,4.59,1.42,7.08.15,9.92-5.06,19.92-9.98,29.87-15,.99-.5,2.53-.74,2.55-2.09.02-1.37-1.52-1.62-2.5-2.12-9.95-5.02-19.92-9.99-29.89-14.95-1.03-.51-2.15-.83-3.39-1.3Zm-79.18,159.99c2.83-1.88,3.78-4.48,3.53-7.01-.84-8.65-3.04-16.99-6.86-24.84-1.58-3.25-3.32-3.63-5.03-.12-3.84,7.84-6.08,16.17-6.92,24.83-.25,2.65.64,5.36,3.63,6.99,1.22-4.68-1.66-11.67,5.71-11.75,7.6-.08,4.49,7.32,5.94,11.9Zm158.28.06c1.4-4.63-1.7-11.99,5.87-11.97,7.53.02,4.43,7.38,5.82,12.02,2.78-2.1,3.83-4.63,3.57-7.23-.86-8.65-3.08-16.98-6.91-24.83-1.68-3.45-3.43-3.25-5.04.06-3.82,7.85-6.03,16.19-6.87,24.84-.25,2.54.7,5.14,3.56,7.11Zm-204.33,48.92c-7.51-3.6-14.39-6.85-21.22-10.21-2.36-1.16-3.12-.71-3.29,1.99-.55,8.56-.63,8.59,7.21,12.42,2.08,1.02,4.18,2,6.27,3.01,2.92,1.4,6.16,4.03,6.27-2.41.04-2.34,2.66-3.13,4.76-4.79Zm250.12.15c3.29,1.63,5.7,2.97,5.48,6.21-.24,3.51,1.47,2.98,3.61,1.94,4.19-2.03,8.42-3.97,12.58-6.06,2.51-1.26,4.43-10.38,2.75-12.53-.88-1.13-1.8-.41-2.64,0-7.03,3.35-14.05,6.74-21.79,10.46Zm-95.22,58.66c7.54-3.68,13.96-6.81,21-10.25-6.14-1.51-6.7-5.14-5.13-10-6.85,3.31-13.21,6.39-20.61,9.97,4.87,2.18,6.45,5.14,4.74,10.28Zm-104.73-21.99c6.99,3.41,13.21,6.44,20.78,10.12-2.61-5.52.48-8.05,3.52-10.84-5.24-2.56-10.03-4.79-14.7-7.24-2.89-1.51-4.48-1.74-4.25,2.41.16,2.93-2.38,4.1-5.34,5.55Zm195.65-34.55c-7.4,3.61-13.78,6.72-21.33,10.41,4.44,1.06,6.34,2.86,6.15,6.23-.16,2.81,1.37,2.54,3.14,1.69,5.33-2.54,10.64-5.12,16.9-8.13-5.28-1.8-6.75-4.9-4.86-10.2Zm-45.37,22.05c3.36,1.92,5.59,3.71,5.25,7.26-.18,1.98,1.2,2.02,2.69,1.3,5.46-2.65,10.93-5.28,17.18-8.3-5.48-2-6.82-5.22-4.44-10.41-7.22,3.55-13.57,6.66-20.68,10.16Zm-104.87,34.5c-1.15-4.35-.67-7.1,2.3-9,2.1-1.35.59-2.1-.63-2.7-4.31-2.13-8.68-4.14-12.96-6.32-2.57-1.31-3.86-1.38-3.7,2.19.15,3.36-2.54,4.75-6.03,5.68,7.12,3.44,13.51,6.52,21.01,10.14Zm-95.64-46.26c6.1,2.95,11.3,5.51,16.54,7.97,1.31.61,3.2,1.46,3.28-1.11.11-3.45,1.89-5.5,5.89-6.92-6.4-3.1-11.9-5.76-17.39-8.42-1.45-.7-2.78-.8-2.61,1.34.3,3.7-1.66,5.8-5.71,7.13Zm24.81,12.02c6.16,2.96,11.13,5.67,16.34,7.78,6.81,2.75,2.1-6.9,6.88-6.75.79.02,1.41-.93.67-1.84-.29-.36-.81-.55-1.26-.76-4.63-2.26-9.26-4.51-13.9-6.75-1.52-.73-3.08-1.22-2.85,1.41.32,3.66-1.82,5.47-5.89,6.91Zm170.63,2.06c-7.09,3.45-13.07,6.36-19.92,9.7,4.88,2.29,5.85,5.66,4.85,10.22,6.9-3.39,13.1-6.43,20.22-9.93-4.9-1.63-6.36-4.62-5.15-9.99Zm-50.23,24.48c-3.12,1.47-5.36,2.53-7.6,3.57-7.52,3.5-7.84,4.24-7.06,12.57.23,2.5,1.05,2.82,3.11,1.8,5.61-2.76,11.25-5.45,17.61-8.52-5.85-.95-6.73-4.41-6.05-9.43Zm-45.96,9.46c6.35,3.05,11.71,5.65,17.09,8.19.98.46,2.01,1.49,3.15.45,1.38-1.25.17-11.09-1.61-12.03-3.91-2.07-7.93-3.92-12.62-6.2,1.15,5.29-.02,8.65-6.01,9.59Z"/><path class="cls-1" d="m215.66,174.43c.68.22,2,.49,3.17,1.06,5.83,2.85,11.61,5.77,17.41,8.68,3.45,1.73,5.25,4.41,3.35,8.1-1.83,3.54-5.08,3.35-8.22,1.83-6.13-2.97-12.22-6.06-18.29-9.15-2.69-1.37-3.91-3.62-3.19-6.6.62-2.59,2.5-3.8,5.77-3.92Z"/><path class="cls-1" d="m209.72,199.28c.3-3.59,3.67-6.03,7.27-4.44,7.14,3.15,14.09,6.74,20.95,10.48,2.68,1.46,3.04,4.32,1.66,7.02-1.33,2.62-3.97,3.51-6.39,2.4-7.24-3.32-14.34-6.98-21.4-10.67-1.74-.91-2.21-2.82-2.09-4.78Z"/><path class="cls-1" d="m240.26,229.94c-.14,3.82-3.64,6.34-7.49,4.64-6.99-3.08-13.78-6.62-20.52-10.23-2.71-1.45-3.24-4.21-1.99-6.95,1.33-2.91,4.11-3.78,6.73-2.59,7.1,3.24,14.04,6.85,20.97,10.45,1.74.9,2.38,2.7,2.31,4.68Z"/><path class="cls-1" d="m240.26,249.91c-.12,3.83-3.62,6.38-7.47,4.68-6.99-3.08-13.79-6.62-20.53-10.22-2.71-1.45-3.26-4.19-2.03-6.95,1.31-2.92,4.1-3.81,6.71-2.62,7.1,3.23,14.04,6.85,20.97,10.44,1.74.9,2.39,2.69,2.33,4.67Z"/><path class="cls-1" d="m240.26,269.74c-.01,3.85-3.49,6.56-7.31,4.89-7.14-3.13-14.08-6.77-20.95-10.47-2.5-1.34-2.89-4.04-1.84-6.6,1.11-2.71,3.62-3.87,6.15-2.91,7.76,2.97,15.16,6.77,22.26,11.1,1.3.8,1.74,2.39,1.69,3.98Z"/><path class="cls-1" d="m240.26,169.95c-.15,3.82-3.66,6.32-7.51,4.62-6.99-3.09-13.78-6.62-20.52-10.23-2.71-1.45-3.23-4.21-1.97-6.96,1.34-2.91,4.12-3.76,6.74-2.57,7.1,3.24,14.03,6.86,20.97,10.45,1.74.9,2.37,2.71,2.3,4.69Z"/><path class="cls-1" d="m240.26,289.78c-.03,3.67-3.29,6.47-6.85,4.95-7.32-3.13-14.41-6.83-21.44-10.58-2.49-1.33-2.87-4.04-1.8-6.61,1.13-2.71,3.64-3.83,6.17-2.87,7.62,2.89,14.82,6.73,21.87,10.8,1.52.88,2.07,2.54,2.04,4.32Z"/><path class="cls-1" d="m266.34,195.02c-3.55.01-5.43-.97-6.25-3.25-.94-2.61-.48-5.22,2.04-6.56,6.9-3.66,13.89-7.16,20.97-10.44,2.21-1.02,4.67-.38,6.2,1.85,1.47,2.15,1.74,4.94-.22,6.42-7.19,5.44-15.63,8.57-22.74,11.98Z"/><path class="cls-1" d="m290.26,199.65c.05,2.43-1.14,4.15-3.22,5.21-6.38,3.23-12.73,6.52-19.21,9.54-3.03,1.41-6.09.97-7.61-2.41-1.45-3.24-.18-5.89,2.93-7.48,6.22-3.18,12.41-6.42,18.77-9.31,4.44-2.02,8.26.23,8.34,4.46Z"/><path class="cls-1" d="m290.26,219.78c.02,2.68-1.54,4.28-3.76,5.4-5.94,2.99-11.87,6-17.86,8.9-3.13,1.52-6.38,1.75-8.24-1.78-1.92-3.67-.17-6.38,3.29-8.11,5.95-2.98,11.84-6.08,17.88-8.86,4.71-2.16,8.7.04,8.68,4.45Z"/><path class="cls-1" d="m290.26,239.7c.04,2.21-.93,3.94-2.83,4.92-6.51,3.34-13.01,6.7-19.64,9.79-3.03,1.42-6.1.92-7.59-2.47-1.42-3.25-.11-5.88,2.99-7.46,6.22-3.17,12.41-6.42,18.77-9.3,4.43-2,8.25.29,8.29,4.52Z"/><path class="cls-1" d="m266.25,275.04c-3.54-.05-5.37-1.07-6.19-3.36-.79-2.2-.63-4.68,1.37-5.9,7.23-4.41,14.71-8.42,22.73-11.2,2.16-.75,4.3.35,5.45,2.53,1.11,2.1,1.25,4.67-.58,6.01-7.26,5.33-15.63,8.58-22.79,11.92Z"/><path class="cls-1" d="m265.37,295.03c-2.68-.05-4.51-1.06-5.31-3.36-.84-2.41-.53-4.98,1.77-6.21,7.02-3.77,14.15-7.38,21.39-10.7,2.41-1.11,5.05-.25,6.39,2.38,1.37,2.7,1.03,5.57-1.64,7.03-6.85,3.74-13.91,7.09-20.91,10.56-.57.28-1.29.24-1.68.31Z"/><path class="cls-1" d="m290.26,159.73c.03,2.44-1.22,4.12-3.29,5.17-6.23,3.16-12.45,6.33-18.75,9.35-2.99,1.43-6.07,1.37-7.8-1.9-1.8-3.38-.5-6.18,2.81-7.88,6.21-3.19,12.41-6.43,18.77-9.3,4.43-2,8.24.33,8.26,4.57Z"/></g></svg>