<?xml version="1.0" encoding="UTF-8"?><svg id="Capa_1" xmlns="http://www.w3.org/2000/svg" width="500" height="500" xmlns:xlink="http://www.w3.org/1999/xlink" viewBox="0 0 500 500"><defs><style>.cls-1{fill:#fff;}.cls-2{fill:#b7946c;}.cls-3{fill:none;}</style><clipPath id="clippath"><path class="cls-3" d="m169.81,19.99c-53.96,18.22-99.3,55.18-128.25,103.13v246.8c10.81,17.9,23.9,34.27,38.87,48.7h331.78c10.25-9.89,19.62-20.67,27.98-32.24V106.66c-28.86-39.93-69.75-70.59-117.36-86.67h-153.01Z"/></clipPath></defs><path class="cls-2" d="m250,500c138.07,0,250-111.93,250-250S388.07,0,250,0,0,111.93,0,250s111.93,250,250,250"/><g><path class="cls-1" d="m249.47,410.08c-49.15,0-98.31,0-147.46,0-10.73,0-12.32-1.62-12.32-12.56,0-9.16-.02-18.33,0-27.49.03-8.25,2.43-10.79,10.5-11.26q9.65-.56,9.65-10.3c0-5-.07-10,.03-15,.14-7.15,2.95-9.89,10.08-10.06q6.69-.16,6.69-7c0-25.66-.08-51.32.08-76.98.03-4.28-.48-6.88-5.67-7.03-4.81-.13-7.51-3.29-7.67-8.2-.18-5.49-.32-10.99-.28-16.48.02-3.29-1.12-4.72-4.62-4.91-7.32-.41-9.7-3.11-9.78-10.37-.06-5.66.24-11.35-.09-16.99-.34-5.77,2.08-9.28,7.13-11.88,21.47-11.06,42.83-22.33,64.23-33.53,24.05-12.59,48.18-25.06,72.11-37.88,5.62-3.01,10.26-2.94,15.88.03,45.06,23.81,90.22,47.45,135.45,70.95,5.54,2.88,8.46,6.42,7.98,12.88-.42,5.63-.02,11.33-.11,16.99-.11,6.6-2.71,9.56-9.32,9.78-4.04.13-5.18,1.81-5.08,5.5.13,4.99.15,10.01-.18,14.99-.43,6.44-2.41,8.69-8.81,9.3-3.82.36-4.6,2.02-4.58,5.42.09,26.66.12,53.32-.02,79.98-.02,4.03,1.07,5.58,5.33,5.53,9.22-.11,11.5,2.38,11.54,11.53.03,6.33.12,12.67-.02,18.99-.08,3.45,1.37,4.61,4.74,4.75,15.2.65,15.45,1,15.45,16.31,0,8,.02,16,0,23.99-.03,8.79-2.19,10.99-10.88,11-49.99.01-99.98,0-149.96,0Zm.4-15.37c44.98,0,89.97,0,134.95,0,1.5,0,3.01-.12,4.5.02,3.98.36,6.05-1.12,5.6-5.37-.12-1.15-.01-2.33-.01-3.5q0-10.49-10.26-11.28c-7.16-.55-9.83-3.28-9.91-10.4-.07-6-.02-12-.02-17.99q0-7.27-7.48-7.28c-76.47,0-152.94,0-229.41,0q-12.56,0-12.53,12.73.02,7.06,7.28,7.08c61.48.01,122.95,0,184.43.04,2.99,0,6,.18,8.95.58,3.98.54,6.34,3,6.49,7.02.15,4.04-2.15,6.7-5.96,7.54-2.89.64-5.95.73-8.93.73-66.47.04-132.95,0-199.42.06-15.05.02-12.85-2.02-13.01,12.91-.08,7.09.01,7.11,7.31,7.11,45.82,0,91.63,0,137.45,0Zm-101.09-236.28c.08.31.16.63.23.94,1.82,0,3.63,0,5.45,0,49.98,0,99.95,0,149.93,0,1.83,0,3.69-.11,5.49.14,3.94.55,6.36,2.78,6.6,6.89.23,4.04-1.67,6.82-5.59,7.74-2.39.56-4.95.6-7.43.6-59.64.03-119.28.02-178.92.03-2,0-4-.02-5.99.15-2.65.23-4.12,1.52-4.35,4.44-.58,7.42-.15,8,7.25,8,85.79,0,171.59,0,257.38,0,1.33,0,2.67-.02,4-.05,1.26-.03,2.21-.47,2.74-1.74,1.67-3.96-.21-9.35-4.08-11.38-42.49-22.24-85-44.45-127.45-66.76-3.04-1.6-5.52-1.44-8.4.19-5.22,2.94-10.59,5.61-15.9,8.4-26.98,14.13-53.97,28.26-80.95,42.39Zm73.27,120.3c0-13.32-.07-26.63.04-39.95.03-3.6-.48-6.05-4.93-6.33-5.07-.32-7.71-3.63-7.98-8.6-.23-4.15-.17-8.32-.18-12.48-.03-8.77-.01-8.59-8.91-8.56-4.02.01-5.26,1.64-5.12,5.39.18,4.65.14,9.32-.01,13.98-.23,7.05-2.37,9.58-9.41,10.43-3.23.39-4.2,1.69-4.19,4.76.07,27.13.1,54.26-.03,81.39-.02,3.92,1.66,4.75,5.12,4.69,9.98-.15,19.98-.24,29.96.03,4.45.12,5.77-1.53,5.71-5.81-.2-12.98-.07-25.96-.07-38.95Zm96.55-.4c0-13.32-.06-26.63.04-39.95.03-3.42-.43-5.5-4.68-5.86-6.37-.53-8.62-3.34-8.91-9.83-.2-4.49-.37-9.01,0-13.47.43-5.2-1.74-7.02-6.64-6.35-.82.11-1.67.09-2.49.01-3.7-.35-5.06,1.38-4.96,4.98.14,5.15.09,10.32-.09,15.47-.18,5.12-2.65,8.7-8.02,9.12-3.93.31-4.96,2.18-4.94,5.8.09,26.63.09,53.26,0,79.89-.01,3.78,1.16,5.38,5.17,5.3,10.15-.2,20.31-.21,30.46,0,3.96.09,5.2-1.31,5.14-5.2-.18-13.31-.07-26.63-.07-39.94Zm-151.96.14c0-13.65-.07-27.3.05-40.94.03-3.38-1.1-4.88-4.6-4.79-5.49.15-10.98.1-16.48.02-2.9-.04-4.23,1.08-4.23,4.11.05,27.46.05,54.92,0,82.38,0,2.95,1.05,4.25,4.09,4.17,4.99-.13,10-.3,14.97.05,4.69.33,6.43-1.1,6.31-6.07-.32-12.97-.11-25.96-.11-38.94Zm191.95-.07c0-13.48-.11-26.96.07-40.44.05-3.9-1.28-5.4-5.19-5.24-5.32.22-10.65.12-15.98.05-2.94-.04-4.16,1.17-4.15,4.17.06,27.46.06,54.92,0,82.39,0,3.02,1.16,4.17,4.14,4.1,5.32-.12,10.66-.22,15.97.04,3.88.19,5.28-1.14,5.22-5.12-.19-13.31-.07-26.63-.07-39.94Zm-120.58-.7c0,13.48.08,26.95-.05,40.43-.04,3.73,1.04,5.55,5.11,5.33,4.81-.26,9.65-.17,14.47-.03,3.21.1,4.48-1.23,4.47-4.41-.05-27.29-.05-54.57-.01-81.86,0-3.22-1.45-4.47-4.56-4.4-4.66.09-9.33.19-13.97-.04-4.14-.21-5.56,1.47-5.51,5.54.16,13.14.06,26.29.06,39.43Zm-84-60.39c5.65,0,11.29.03,16.94,0,9.63-.05,8.43,1,8.78-8.93.16-4.56-1.64-5.63-5.82-5.56-11.95.21-23.91.02-35.86.09-10.72.07-9.53-1.5-9.75,9.98-.07,3.64,1.52,4.54,4.8,4.47,6.97-.15,13.95-.05,20.92-.04Zm191.47,0c5.81,0,11.62.03,17.43,0,9.64-.05,8.47,1.02,8.82-8.89.16-4.52-1.56-5.67-5.79-5.59-11.95.22-23.91.02-35.86.09-10.78.06-9.55-1.47-9.78,9.94-.07,3.61,1.45,4.58,4.76,4.5,6.8-.16,13.61-.05,20.42-.04Zm-95.01-14.4c-7,0-14,.07-21-.03-3.15-.04-4.68,1.2-4.54,4.41.06,1.33.12,2.68-.03,4-.49,4.44,1.1,6.24,5.87,6.12,11.66-.3,23.33-.1,34.99-.1,9.75,0,9.61,0,9.35-9.58-.1-3.73-1.61-4.96-5.16-4.88-6.5.16-13,.04-19.5.05Z"/><path class="cls-1" d="m348.39,359.38c4.09.05,7.51,3.25,7.57,7.09.07,4.04-3.57,7.68-7.67,7.66-4.06-.02-7.62-3.72-7.5-7.79.12-3.99,3.42-7.01,7.6-6.96Z"/><path class="cls-1" d="m332.67,159.47c4.15.08,7.61,3.68,7.44,7.74-.17,3.96-4,7.46-8.01,7.32-3.65-.13-7.15-3.85-7.17-7.63-.02-4.04,3.59-7.5,7.75-7.42Z"/></g></svg>