<?xml version="1.0" encoding="UTF-8"?><svg id="Capa_1" xmlns="http://www.w3.org/2000/svg" width="500" height="505.55" xmlns:xlink="http://www.w3.org/1999/xlink" viewBox="0 0 500 505.55"><defs><style>.cls-1{fill:#fff;}.cls-2{fill:#7eb245;}.cls-3{fill:none;}</style><clipPath id="clippath"><path class="cls-3" d="m16.46,164.94v178.82c22.73,59.33,67.41,107.78,124.1,135.43h218.86c69.79-34.03,121.38-99.6,136.22-178.15v-93.38C473.78,91.89,372.12,4.35,250,4.35,143.43,4.35,52.44,71.02,16.46,164.94"/></clipPath></defs><path class="cls-2" d="m250,505.55c138.07,0,250-111.93,250-250S388.07,5.55,250,5.55,0,117.48,0,255.55s111.93,250,250,250"/><g><path class="cls-1" d="m288.99,275.93c-8.1,5.2-16.31,8.7-25.9,8.71-9.02.01-17.14-2.32-24.47-7.34-2.62-1.79-4.4-1.75-7.09-.03-15.51,9.91-31.34,10.08-47.08.56-3.18-1.92-4.11-1.92-4.08,2.11.13,16.33.13,32.66,0,48.99-.03,3.65,1.08,5.23,4.85,4.93,2.81-.23,5.66.02,8.49-.04,4.58-.1,6.74,2.06,6.72,6.66-.05,9.5.07,19-.05,28.49-.04,3.18.58,5.1,4.34,4.94,3.28-.14,5.47,1.62,5.56,5.06.1,3.7-2.11,5.62-5.64,5.48-3.85-.15-4.38,1.93-4.25,5.02.13,3.16.08,6.33-.03,9.5-.11,3.31-1.79,5.4-5.23,5.43-3.42.04-5.22-1.97-5.35-5.3-.14-3.66-.17-7.33-.06-11,.1-3.46-2.06-3.61-4.61-3.58-2.48.02-4.78-.02-4.69,3.5.09,3.5.02,7-.03,10.5-.05,3.49-1.57,5.87-5.31,5.88-3.73.01-5.29-2.33-5.34-5.84-.05-3.33-.15-6.67,0-10,.13-3.08-1.24-4.07-4.18-4.05-13.66.08-27.33.08-40.99,0-2.96-.02-4.28,1.02-4.16,4.08.14,3.49.09,7-.05,10.49-.13,3.33-1.9,5.35-5.33,5.32-3.43-.02-5.14-2.1-5.25-5.41-.11-3.5-.14-7-.05-10.5.07-2.67-.83-4.06-3.72-3.99-3.69.09-6.25-1.48-6.16-5.51.09-3.75,2.57-5.26,6.03-5.13,3.24.12,3.88-1.59,3.85-4.37-.08-9.5-.08-19,0-28.49.04-5.63,1.53-7.13,7.16-7.16,15.83-.06,31.66-.14,47.49.05,4.16.05,5.46-1.3,5.41-5.43-.2-15.83-.06-31.66-.1-47.49,0-1.45.71-3.37-.59-4.24-1.49-.99-2.65.84-3.86,1.55-25.13,14.76-55.41,3.11-64.07-24.7-5.47-17.56,2.1-38.1,18.02-47.99,3.44-2.13,4.32-3.76,2.83-7.83-6.16-16.86-.56-35.3,13.82-45.91,3.16-2.33,4.37-4.43,4.09-8.52-1.31-18.74,7.75-32.39,24.75-38.18,21.28-7.24,45.74,9.63,45.52,32.09-.08,7.68,1.68,12.61,7.66,17.99,13.01,11.69,15.61,26.89,10.11,43.45-.59,1.76-2.48,3.95.32,5.13,3.02,1.27,4.88,5.74,9.59,2.82,4.24-2.62,5.84-4.67,3.86-10.06-5.83-15.86-.23-33.85,13.52-44.2,3.83-2.88,4.86-5.61,4.63-10.26-.9-18.05,8.06-31.13,24.54-36.85,21.49-7.46,45.99,9.46,45.8,32.21-.06,7.43,1.56,12.32,7.45,17.56,13.06,11.63,15.93,26.85,10.26,43.35-1.17,3.42-.65,4.88,2.28,6.77,15.94,10.27,22.65,25.31,19.7,43.71-2.84,17.67-13.84,29.34-31.08,34.28-12.09,3.46-23.8,1.55-34.49-5.31-2.56-1.64-3.98-2.29-3.96,1.86.11,20.66.06,41.33.08,61.99,0,.63.2,1.26.31,1.89,1.97.53,2.37-1.12,3.13-2.02,6.35-7.45,14.23-9.46,23.39-6.49,2.06.67,3.76.54,5.76-.08,8.76-2.74,16.59-1.1,22.57,6.09,2.11,2.54,4.16,3.07,7.26,2.88,12.04-.73,20.11,5.54,22.39,17.36.45,2.33,1.63,3.37,3.48,4.36,9.38,5.01,13.65,14.19,11.15,23.74-2.44,9.36-10.33,15.11-20.91,15.12-32.66.02-65.32.02-97.98,0-10.49,0-18.47-5.89-20.83-15.23-2.42-9.59,1.82-18.59,11.3-23.68,1.89-1.01,3.04-2.1,3.37-4.44,1.01-7.08,4.88-12.27,11.33-15.43,2.07-1.01,3.56-2.11,3.55-4.79-.1-21.16-.09-42.32-.13-63.48,0-.3-.23-.6-.61-1.55Zm-120.45-45.45c1.67-2.44,1.13-4.15,1.14-5.73.05-14.5.05-29,.02-43.5,0-3.86.67-7.32,5.44-7.27,4.78.05,5.34,3.6,5.3,7.4-.05,4.41-.01,8.83-.01,13.24,3.93-2.36,6.66-5.23,9.41-8.07,2.6-2.69,5.73-4.1,8.77-1.27,3.28,3.06,1.9,6.32-.9,9.12-4.59,4.6-9.08,9.31-13.82,13.75-2.5,2.35-3.57,4.86-3.52,8.33.17,12.33.21,24.67-.01,36.99-.07,4,1.22,7.02,3.84,9.86,8.56,9.28,22.6,12.7,34.38,8.25,12.42-4.69,20.63-16.26,21-29.57.35-12.51-7.8-24.7-19.9-29.8-8.73-3.68-9.05-4.72-4.28-13.14,3.12-5.5,4.64-11.36,3.87-17.72-1.38-11.38-7.33-19.42-17.69-24.21-4.23-1.95-5.51-4.88-3.77-9.33,1.21-3.1,2.09-6.42,1.72-9.76-1.12-10.27-6.1-17.95-15.99-21.67-9.26-3.48-17.88-1.67-25.01,5.04-7.59,7.16-9.63,16.02-6.36,26.05,1.86,5.71,1.17,7.2-4.15,9.9-16.93,8.61-22.21,26.93-12.43,43.08,3.8,6.26,3.15,8.66-3.85,11.15-12.56,4.47-23.73,19.06-20.46,35.93,2.25,11.64,11.74,22.27,23.22,25.01,12.74,3.04,26.18-1.63,33.39-11.61,3.27-4.52,2.6-13.45-1.35-17.43-4.81-4.86-9.66-9.67-14.46-14.52-2.54-2.56-3.5-5.62-.84-8.41,2.88-3.02,6.09-2.05,8.75.68,2.87,2.93,5.6,6.01,8.57,9.21Zm131.88-35.94l1.3.78c2.78-3,5.51-6.05,8.35-8.98,2.64-2.72,5.84-3.81,8.75-.83,2.91,2.98,1.65,6.11-1.01,8.78-4.82,4.84-9.59,9.74-14.51,14.47-2.08,2-2.96,4.16-2.93,7.05.11,12.49.2,24.99-.04,37.49-.08,4.19,1.17,7.44,4.06,10.26,9.53,9.33,20.71,12.46,33.45,8.24,12.92-4.28,21.68-16.65,21.81-29.99.13-12.76-8.15-24.75-20.61-29.86-7.83-3.21-8.39-4.88-4.08-12.15,3.41-5.74,5.08-11.88,4.26-18.6-1.4-11.39-7.46-19.34-17.79-24.13-3.96-1.84-5.4-4.63-3.73-8.91,1.21-3.11,2.13-6.43,1.83-9.75-.92-10.07-5.65-17.75-15.2-21.71-9.34-3.87-18.14-2.24-25.54,4.49-7.56,6.87-9.77,15.58-6.9,25.48,2.11,7.26,1.86,7.6-4.89,11.22-8.74,4.68-14.18,11.75-15.84,21.74-1.33,8.04.76,15.09,5.01,21.79,3.02,4.75,2.02,7.54-3.12,9.8-2.13.93-4.25,1.9-6.37,2.86-3.1,1.41-3.48,3.29-1.8,6.35,7.76,14.08,7.78,28.34.03,42.41-1.89,3.43-.87,4.98,2.12,6.67,11.45,6.49,25.7,4.69,36.47-3.65,7.22-5.59,9.21-18.76,1.06-24.55-4.42-3.14-7.9-7.61-11.74-11.55-3.52-3.6-4.1-7.31-1.34-9.51,3.53-2.81,6.42-1.08,9.2,1.6,2.77,2.67,5.11,5.86,9.04,8.21,0-16.86.02-33.01-.01-49.16,0-3.71.84-6.87,5.27-6.94,4.39-.06,5.49,2.96,5.46,6.75-.04,4.61,0,9.21,0,13.82Zm29.77,199.28v-.03c16.17,0,32.33.1,48.5-.05,6.21-.06,10.44-3.8,10.9-8.91.45-5-3.37-9.06-9.6-10.19-5.73-1.04-6.77-2.45-5.82-8.59.63-4.07-.7-7.25-3.97-9.54-3.16-2.2-6.49-2.11-9.89-.29-7.26,3.89-8.65,3.32-11.41-4.47-2.22-6.25-7.86-8.78-13.47-5.42-3.76,2.25-6.71,2.45-10.54.1-5.62-3.44-11.36-1.02-13.59,5.13-2.94,8.09-3.93,8.49-11.72,4.52-3.45-1.76-6.73-1.58-9.9.58-2.87,1.96-4.1,4.82-3.92,8.17.44,8.17.49,8.16-7.33,10.16-4.67,1.19-7.86,4.86-7.91,9.1-.05,4.39,3.31,8.31,8.22,9.32,1.77.36,3.64.39,5.46.39,15.33.03,30.66.02,46,.02Zm-175.49-40c10.16,0,20.33-.11,30.49.06,3.55.06,4.59-1.31,4.6-4.71,0-3.43-1.09-4.71-4.62-4.68-20,.12-39.99.1-59.99,0-3.27-.02-4.85.77-4.86,4.45-.01,3.66,1.12,5.02,4.88,4.94,9.83-.2,19.66-.07,29.49-.07Zm-10.13,20c6.83,0,13.67-.13,20.49.05,3.4.09,4.78-1.02,4.73-4.57-.05-3.27-.81-4.86-4.48-4.82-13.49.16-26.99.16-40.49,0-3.68-.04-4.42,1.56-4.48,4.83-.06,3.56,1.34,4.66,4.73,4.56,6.49-.18,13-.05,19.49-.05Zm45.07-4.36c.41-3.13-.3-5.06-4.09-4.99-3.22.07-5.31.39-5.23,4.47.07,3.5.94,5.09,4.75,4.96,3.23-.11,5.18-.81,4.57-4.45Z"/><path class="cls-1" d="m250.39,384.14c0,4.83.04,9.66-.01,14.49-.04,3.85-2.08,5.85-5.91,5.87-6.33.04-12.66.06-18.98-.01-3.89-.04-5.74-2.23-5.75-6.03-.02-9.49-.01-18.99,0-28.48,0-4.1,2.1-6.13,6.18-6.14,6,0,11.99.04,17.99-.02,4.66-.04,6.62,2.33,6.54,6.83-.08,4.5-.02,8.99-.02,13.49h-.02Zm-19.95-.33c0,2.17.08,4.33-.02,6.5-.15,3.5,2.14,3.53,4.65,3.53,2.52,0,4.75-.06,4.64-3.54-.11-3.49-.12-7,.02-10.49.12-3.2-.23-5.33-4.42-5.39-4.23-.06-5.27,1.74-4.9,5.4.13,1.32.02,2.66.04,4Z"/></g></svg>