<?xml version="1.0" encoding="UTF-8"?><svg id="Capa_1" xmlns="http://www.w3.org/2000/svg" width="500" height="500" xmlns:xlink="http://www.w3.org/1999/xlink" viewBox="0 0 500 500"><defs><style>.cls-1{fill:#fff;}.cls-2{fill:#fcc03c;}.cls-3{fill:none;}</style><clipPath id="clippath"><path class="cls-3" d="m169.84,20.79c-53.96,18.22-99.3,55.18-128.25,103.13v246.8c10.81,17.9,23.9,34.27,38.87,48.7h331.78c10.25-9.89,19.62-20.67,27.98-32.24V107.46c-28.86-39.93-69.75-70.59-117.36-86.67h-153.01Z"/></clipPath></defs><path class="cls-2" d="m250,500c138.07,0,250-111.93,250-250S388.07,0,250,0,0,111.93,0,250s111.93,250,250,250"/><g><path class="cls-1" d="m410.11,190c0,14.16.06,28.32-.01,42.48-.24,48.88-36.45,94.43-84.02,106.2-7.04,1.74-13.75,2.47-20.54-.18-4.2-1.64-6.12.04-8.02,3.81-7.22,14.32-17.42,26.25-29.74,36.55-8.77,7.33-19.32,8.01-29.67,8.44-50.01,2.09-90.35-22.98-111.4-68.43-11.55-24.93-23.22-49.8-35.08-74.58-3.04-6.34-2.66-11.62,1.82-17.04,12.17-14.72,27.17-25.99,43.41-35.68,25.02-14.92,51.44-26.6,79.91-33.27,3.63-.85,4.99-2.57,4.76-6.21-.24-3.82.09-7.67-.08-11.49-.24-5.51,2.32-9.1,7.07-11.57,11.79-6.15,24.45-9.65,37.41-12.09,26.21-4.94,52.65-5.31,79.11-2.95,18.62,1.66,36.84,5.37,54.17,12.89,7.75,3.36,11.56,8.09,11.13,17.15-.72,15.29-.2,30.64-.21,45.97Zm-179.72,176.86c3.83,0,7.66.12,11.48-.03,6.5-.25,12.1-2.39,17.15-6.86,28.72-25.37,39.5-68.44,24.43-103.61-11.41-26.61-24.33-52.57-36.52-78.85-.97-2.1-2.21-3.18-4.58-2.88-3.8.48-7.63.69-11.4,1.32-23.91,3.96-46.07,12.91-67.52,23.84-17.88,9.12-34.74,19.72-49.02,34.06-2.56,2.57-3.31,4.63-1.59,8.21,11.51,24.02,22.36,48.37,34.19,72.22,17.01,34.28,45.26,51.54,83.37,52.57Zm159.97-174.63c0-15.87-.1-29.03.07-42.19.05-3.71-1.15-5.67-4.75-7.02-15.13-5.66-30.91-8.45-46.84-9.34-20.43-1.14-40.94-1.47-61.32,1.69-10.88,1.69-21.53,4.18-31.94,7.84-4.69,1.65-3.95,5.16-3.8,8.58.17,3.85,3.15,2.58,5.25,2.58,6.95-.02,12.7,1.54,15.58,8.97,2.4,6.2,5.49,12.13,8.44,18.11,4.4,8.92,11.96,10.93,20.1,5.49,4.72-3.15,10.12-2.61,13.52,1.36,3.5,4.08,3.19,9.92-.89,14.01-4.12,4.12-9.22,6.63-14.88,7.69-3.22.6-3.85,1.61-2.43,4.56,4.2,8.69,8.31,17.44,12.26,26.25,1.47,3.27,3.24,4.18,6.97,3.55,18-3.06,34.01,1.33,47.52,13.86,4.77,4.42,5.13,10.85,1.03,15.07-4.07,4.18-9.46,4.16-14.68-.46-7.62-6.74-16.37-9.81-26.55-9.45-4.58.16-5.8,1.97-4.91,6.2,2.94,14.04,2.7,28.08.03,42.15-1.28,6.76-.16,7.94,6.93,8.23,1.48.06,3.01-.07,4.46-.39,37.58-8.07,68.4-44.79,70.25-83.11.76-15.66.23-31.3.55-44.24Z"/><path class="cls-1" d="m210.53,329.65c-6.19-.1-12.28-.86-18.05-3.23-5.49-2.25-7.99-7.36-6.24-12.42,1.89-5.47,6.9-7.99,12.78-6.43,20.06,5.31,34.59-1.39,43.8-20.17,3.01-6.14,8.04-8.52,13.25-6.26,5.47,2.37,7.37,7.78,5.02,14.29-7.22,19.97-28.36,34.29-50.54,34.23Z"/><path class="cls-1" d="m241.47,224.84c3.55-.07,6.97.55,10.19,2.04,4.61,2.14,7.05,6.99,5.82,11.43-1.35,4.88-6,8.46-10.93,7.44-7.17-1.49-12.11.07-15.46,7.15-2.25,4.76-8.52,5.89-13.08,3.42-4.46-2.42-6.19-7.64-4.29-12.99,3.82-10.77,15.54-18.6,27.75-18.51Z"/><path class="cls-1" d="m195.09,265.47c-.12,6.13-5.26,10.86-11.36,9.55-7.12-1.53-11.76.3-14.98,7.06-2.17,4.56-8.02,5.91-12.61,3.87-4.46-1.99-6.68-7.18-5.18-12.16,4.48-14.88,23.4-23.92,37.59-17.94,4.25,1.79,6.6,4.89,6.53,9.63Z"/><path class="cls-1" d="m352.24,210.46c-7.66-.06-14.34-2.66-19.89-7.92-4.46-4.23-4.98-9.53-1.54-13.86,3.51-4.42,9.22-5.03,14.27-1.52,5.84,4.06,8.99,4.04,14.85-.1,4.59-3.24,10.01-2.83,13.54,1.02,3.54,3.87,3.47,9.3-.19,13.6-4.46,5.24-12.99,8.79-21.03,8.77Z"/></g></svg>