<?xml version="1.0" encoding="UTF-8"?><svg id="Capa_1" xmlns="http://www.w3.org/2000/svg" width="500" height="505.55" xmlns:xlink="http://www.w3.org/1999/xlink" viewBox="0 0 500 505.55"><defs><style>.cls-1{fill:#fff;}.cls-2{fill:#4ebcc2;}.cls-3{fill:none;}</style><clipPath id="clippath"><path class="cls-3" d="m16.46,164.94v178.82c22.73,59.33,67.41,107.78,124.1,135.43h218.86c69.79-34.03,121.38-99.6,136.22-178.15v-93.38C473.78,91.89,372.12,4.35,250,4.35,143.43,4.35,52.44,71.02,16.46,164.94"/></clipPath></defs><path class="cls-2" d="m250,505.55c138.07,0,250-111.93,250-250S388.07,5.55,250,5.55,0,117.48,0,255.55s111.93,250,250,250"/><g><path class="cls-1" d="m207.71,219.8c23.66,0,47.32,0,70.98,0,8.32,0,15.58,1.84,19.28,10.41,1.16,2.68,1.38,5.45,1.37,8.31-.02,13.66.08,27.33-.07,40.99-.04,3.47,1.01,5.24,4.41,6.64,11.86,4.88,17.06,14.62,17.18,26.89.27,26.82.16,53.65.04,80.48-.03,6.94-2.11,8.63-9.21,8.66-5.83.02-11.66,0-17.5-.02-4.28-.02-6.47-2.17-6.48-6.48-.01-3.17-.24-6.35.03-9.49.35-4.06-1.37-5.12-5.21-5.1-24.49.13-48.99.06-73.48.06s-48.99.11-73.48-.1c-4.86-.04-6.78,1.12-6.72,6.37.18,14.76-.03,14.76-14.58,14.76-4,0-8-.01-12-.02-4.26,0-6.57-2.07-6.57-6.39,0-29.16-.31-58.32.21-87.47.19-10.52,6.57-18.07,16.28-22.04,3.65-1.49,4.62-3.42,4.57-7.05-.17-12.99-.08-25.99-.06-38.99.02-14.09,6.27-20.37,20.5-20.41,23.49-.06,46.99-.02,70.48-.01Zm.34,117.08c31.65,0,63.29-.06,94.94.07,4.23.02,6.05-1.17,5.84-5.67-.31-6.65.05-13.32-.14-19.98-.24-8.79-5.96-14.61-14.69-15.25-1.49-.11-3-.11-4.49-.11-54.3,0-108.6,0-162.89,0-1.5,0-3,0-4.49.1-8.73.63-14.49,6.52-14.7,15.23-.15,6.33-.06,12.66-.05,18.99.01,6.57.04,6.62,6.74,6.62,31.31.01,62.63,0,93.94,0Zm.06,12.25c-31.64,0-63.28.09-94.92-.1-4.65-.03-6.05,1.42-5.91,5.98.3,9.98.17,19.98.05,29.97-.04,3.41.27,5.65,4.71,5.65,4.41,0,4.96-2.18,4.71-5.62-.11-1.49-.02-3-.02-4.49.01-9.87,1.63-11.49,11.61-11.62.67,0,1.33,0,2,0,51.79,0,103.58,0,155.37.01,2.16,0,4.33.09,6.48.26,4.77.37,7.26,2.87,7.16,7.78-.06,2.83.14,5.67-.03,8.49-.21,3.44.71,5.2,4.67,5.18,3.78-.02,4.89-1.43,4.83-5.03-.17-9.99-.05-19.98-.06-29.97q0-6.46-6.72-6.48c-31.31,0-62.61,0-93.92,0Zm.45-117.22c-.83,0-1.67,0-2.5,0-23.16,0-46.32.02-69.48-.02-4.01,0-7.53.43-7.54,5.62-.03,13.99,0,27.99-.05,41.98-.01,3.36,1.75,4.21,4.75,4.21,2.98,0,4.23-1.22,4.18-4.19-.08-5-.11-10,.03-14.99.3-10.89,7.18-17.81,17.95-17.94,9.99-.12,19.99-.15,29.99.02,10.56.17,17.11,6.71,17.43,17.24.16,5.16.16,10.33.01,15.49-.09,3.27,1.29,4.42,4.45,4.4,3.09-.02,5.16-.52,5.03-4.33-.18-5.32-.14-10.66.01-15.99.27-9.3,6.74-16.4,15.9-16.7,11.15-.37,22.33-.33,33.48,0,8.27.24,14.14,6.18,15.38,14.4.85,5.65.45,11.31.46,16.96,0,3.43.48,5.69,4.82,5.72,4.23.03,4.94-1.89,4.9-5.51-.14-12.33-.04-24.66-.06-36.99-.01-8.12-1.21-9.36-9.17-9.37-23.32-.02-46.65,0-69.97,0Zm37.24,26.34s0-.01,0-.02c-4.65,0-9.3-.11-13.95.03-5.13.15-7.29,2.31-7.41,7.31-.1,4.48.12,8.97-.07,13.45-.15,3.44,1.18,4.74,4.62,4.7,10.79-.13,21.59-.1,32.38-.02,3.04.02,4.69-.96,4.61-4.28-.12-4.98-.03-9.96-.05-14.95-.01-4.1-2.24-6.12-6.19-6.21-4.65-.1-9.3-.02-13.95-.02Zm-75.21,25.42c5.32,0,10.64-.07,15.95.03,3.11.06,4.63-1.15,4.57-4.38-.09-4.98-.08-9.97-.01-14.96.06-4.24-2.2-6.08-6.15-6.1-9.47-.05-18.95-.06-28.42,0-4.25.03-6.38,2.28-6.35,6.58.04,4.82.09,9.64-.03,14.46-.08,3.22,1.33,4.47,4.49,4.4,5.32-.12,10.64-.03,15.95-.03Z"/><path class="cls-1" d="m95.7,186.74c0-9,.26-18.01-.1-26.99-.22-5.34,1.89-8.13,6.67-10.25,45.35-20.16,90.57-40.63,135.94-60.75,22.26-9.87,13.37-9.91,35.94.1,45.22,20.05,90.28,40.46,135.48,60.55,4.94,2.19,7,5.05,6.91,10.61-.32,18.49-.23,36.99-.04,55.48.05,4.36-1.32,5.82-5.71,5.79-4.44-.02-6.19-1.25-6.13-5.96.23-16.66-.01-33.33.16-49.99.04-3.73-1.23-5.64-4.64-7.16-46.4-20.67-92.76-41.42-139.07-62.31-3.72-1.68-6.71-1.52-10.35.12-46.31,20.87-92.68,41.62-139.07,62.3-3.2,1.42-4.44,3.26-4.4,6.81.17,16.66.1,33.33.03,49.99,0,2.02.91,4.77-1.82,5.66-2.68.87-5.67.88-8.36-.09-1.93-.7-1.41-2.82-1.42-4.41-.05-9.83-.02-19.66-.03-29.49Z"/><path class="cls-1" d="m416.41,328.71c0,11.99-.18,23.99.09,35.98.1,4.56-1.68,5.63-5.86,5.61-4.1-.03-6.16-.94-5.97-5.56.3-7.15-.05-14.32.13-21.48.09-3.51-.85-5.12-4.73-5.09-17.66.15-35.31.14-52.97,0-3.7-.03-5.03,1.28-4.94,4.95.18,7.32-.11,14.66.09,21.98.13,4.44-2.11,5.25-5.89,5.16-3.6-.09-6.53,0-6.5-5.04.15-24.32,0-48.64.13-72.96.03-6.14,2.51-8.49,8.61-8.51,23.15-.08,46.31-.08,69.46,0,6.37.02,8.32,2.15,8.34,8.49.04,12.16.01,24.32.01,36.48Zm-42.83-2.16c8.81,0,17.63-.09,26.44.05,3.33.05,4.86-.95,4.77-4.54-.19-7.15-.17-14.3,0-21.45.08-3.45-1.24-4.72-4.66-4.7-17.79.09-35.59.1-53.38,0-3.54-.02-4.63,1.55-4.57,4.85.13,6.98.17,13.97-.02,20.95-.1,3.71,1.34,4.97,4.98,4.89,8.81-.18,17.63-.06,26.44-.06Z"/><path class="cls-1" d="m373.37,274.67c-4.16,0-8.33.05-12.49-.01-5.41-.08-3.91-4.2-4.15-7.28-.26-3.22.82-4.99,4.45-4.95,2.12.02,5.37,1.31,6.13-1.65.94-3.65.84-7.61-.07-11.36-.37-1.53-2.11-1.39-3.42-1.41-3.5-.07-7.01.13-10.48-.18-6.03-.54-8.15-3.88-6.29-9.62,2.98-9.17,6.14-18.29,9.04-27.49,1.5-4.77,4.34-7.21,9.48-7.06,5.32.16,10.66.11,15.98.02,4.38-.08,7.31,1.71,8.7,5.96,3.21,9.8,6.58,19.56,9.64,29.41,1.52,4.89-.76,8.19-5.91,8.75-3.46.37-6.99.25-10.48.18-2.94-.06-4.35,1.12-4.16,4.14.09,1.49.16,3.02-.02,4.49-.58,4.52,1.14,6.58,5.83,5.93,4.14-.58,5.13,1.81,5.04,5.4-.09,3.44.29,6.94-4.82,6.81-3.99-.1-7.99-.02-11.99-.02,0-.02,0-.03,0-.05Zm-.61-39.02c3.15,0,6.31-.02,9.46,0,3.01.03,3.8-1.27,2.78-4.09-1.42-3.89-2.75-7.83-3.9-11.81-.84-2.9-2.64-3.78-5.51-3.87-8.64-.26-8.75-.27-11.36,8.17q-3.6,11.62,8.53,11.6Z"/><path class="cls-1" d="m230.25,160.5c.07,15.73,11.06,26.9,25.19,27.12,14.57.23,25.85-10.41,26.4-24.88.2-5.27,4.43-8.53,9.46-7.09,3.49,1,2.88,4.28,2.76,6.69-.6,11.88-5.19,21.95-14.71,29.37-13.22,10.3-30.68,10.75-44.71,1.37-13.52-9.05-19.38-25.72-14.84-42.19,4.11-14.9,18.75-26.36,34.75-27.06,2.3-.1,4.64.29,6.94.64,7.53,1.15,8.89,4.64,4.47,10.93-1.6,2.28-3.52,1.18-5.4.93-14.04-1.84-26.08,5.78-29.51,18.79-.59,2.23-.68,4.58-.8,5.4Z"/><path class="cls-1" d="m297.01,133.11c-.05,1.71-1.13,2.58-2.06,3.5-11.17,11.2-22.32,22.42-33.57,33.54-4.02,3.97-6.56,3.86-10.72-.03-1.7-1.59-3.31-3.28-4.96-4.93-5.05-5.06-4.9-4.91.04-9.99,2.66-2.74,4.68-2.73,6.84.19,2.45,3.32,4.43,2.7,7.1-.07,8.55-8.87,17.34-17.51,26.12-26.16,1.3-1.28,2.46-3.98,4.75-2.61,2.67,1.59,4.86,3.97,6.47,6.55Z"/><path class="cls-1" d="m373.5,305.44c1.66,0,3.33.15,4.96-.03,4.45-.49,6.08,1.21,6.08,5.84,0,4.65-1.66,6.2-6.1,5.9-4.12-.27-8.28-.13-12.41-.07-4.32.06-4.06-2.99-4.06-5.84,0-2.85-.26-5.93,4.08-5.8,2.48.07,4.97.01,7.45.01,0,0,0-.02,0-.02Z"/></g></svg>