<?xml version="1.0" encoding="UTF-8"?><svg id="Capa_1" xmlns="http://www.w3.org/2000/svg" width="500" height="505.55" xmlns:xlink="http://www.w3.org/1999/xlink" viewBox="0 0 500 505.55"><defs><style>.cls-1{fill:#fff;}.cls-2{fill:none;}.cls-3{fill:#913b8e;}</style><clipPath id="clippath"><path class="cls-2" d="m16.46,164.94v178.82c22.73,59.33,67.41,107.78,124.1,135.43h218.86c69.79-34.03,121.38-99.6,136.22-178.15v-93.38C473.78,91.89,372.12,4.35,250,4.35,143.43,4.35,52.44,71.02,16.46,164.94"/></clipPath></defs><path class="cls-3" d="m250,505.55c138.07,0,250-111.93,250-250S388.07,5.55,250,5.55,0,117.48,0,255.55s111.93,250,250,250"/><g><path class="cls-1" d="m410.4,131.85c.29,18.99-5.73,35.98-16.34,51.51-3.85,5.64-7.9,11.16-11.52,16.94-9.78,15.65-24.22,23.47-42.23,23.13-16.7-.31-28.1,6.24-38.46,19.35-42.64,53.99-86.2,107.25-129.42,160.79-8.61,10.67-19.02,13.98-30.4,9.63-11.42-4.36-17.96-14.57-17.29-27.03.34-6.34,3.36-11.36,7.69-15.79,27.93-28.61,55.84-57.24,83.74-85.88,22.55-23.15,45.01-46.39,67.68-69.43,6.78-6.89,9.59-14.77,9.16-24.37-.37-8.27-2.04-16.53-.39-24.9,1.51-7.68,3.87-15.13,9.33-20.68,13.78-14.01,27.81-27.93,45.78-36.67,13.69-6.66,28.28-9.97,43.57-8.28,10.06,1.11,16.06,7.27,18.11,17.22.98,4.78.95,9.6.97,14.44Zm-10.64-.1c.24-4.03-.35-7.98-1.02-11.93-1.02-5.97-4.06-8.78-10.05-9.05-13.07-.6-25.5,1.95-37.2,7.83-15.74,7.91-27.75,20.54-40.39,32.32-3.05,2.85-4.78,6.73-6.21,10.72-3.21,8.96-1.99,18.25-1.21,27.23,1.17,13.5-2.83,24.43-12.22,33.89-11.38,11.46-22.53,23.16-33.8,34.73-39.05,40.08-78.12,80.15-117.18,120.22-1.75,1.8-3.38,3.63-4.24,6.08-2.31,6.57.69,14.63,6.85,18.14,7.16,4.07,14.22,2.97,19.61-3.63,16.54-20.25,32.93-40.63,49.35-60.97,29.3-36.28,58.62-72.54,87.86-108.86,7.93-9.85,18-14.94,30.66-15.19,5.48-.11,10.98-.5,16.43-1.14,9.55-1.12,17.55-5.43,23.2-13.22,6.35-8.76,12.44-17.73,18.23-26.86,7.77-12.25,11.21-25.85,11.34-40.3Z"/><path class="cls-1" d="m143.59,107.52c-.04,2.79,1.96,3.78,3.28,5.11,14.46,14.53,28.99,28.98,43.47,43.49,8.02,8.04,8.02,14.79.06,22.82-5.87,5.91-11.75,11.81-17.68,17.67-8.28,8.18-15.04,8.22-23.24.06-14.53-14.46-28.99-28.98-43.51-43.44-1.38-1.37-2.47-3.16-4.83-3.81-.72,2.04.84,3.03,1.78,4.15,16.3,19.39,32.7,38.68,48.9,58.15,7.41,8.91,17.01,12.31,28.19,12.61,7.31.2,14.6-.36,21.93.71,13.46,1.98,21.52,11.17,29.29,20.87,1.79,2.23,1.47,4.82-.7,6.75-2.14,1.91-4.75,1.92-6.85.08-2.49-2.18-4.71-4.71-6.9-7.21-6.18-7.06-13.87-10.49-23.3-10.59-10.59-.12-21.35,1.4-31.61-2.91-6.08-2.56-11.71-5.71-16-10.79-17.74-21-35.46-42.03-53.11-63.1-3.77-4.5-4.12-9.99-1.32-14.37,2.7-4.23,7.73-6.32,12.58-5.18,3.23.76,5.54,2.92,7.8,5.18,14.85,14.84,29.71,29.67,44.58,44.5.94.94,1.91,1.86,2.89,2.76,1.41,1.29,2.7.89,3.93-.33,1.31-1.29.74-2.35-.34-3.4-.84-.81-1.65-1.65-2.47-2.48-15.79-15.79-31.59-31.57-47.38-47.36-.94-.94-1.95-1.84-2.77-2.88-1.98-2.51-2.42-5.25-.05-7.66,2.23-2.28,4.86-1.87,7.23-.04,1.44,1.11,2.73,2.44,4.03,3.73,15.57,15.54,31.12,31.1,46.69,46.64,1.06,1.06,2.15,2.09,3.29,3.06.74.63,1.57.47,2.23-.19.65-.64.96-1.44.34-2.23-.83-1.03-1.75-2.01-2.69-2.94-16.04-16.01-32.1-32-48.1-48.04-2.76-2.76-6.61-5.52-2.95-10.08,2.44-3.05,5.77-2.14,10.5,2.57,15.81,15.76,31.58,31.57,47.48,47.25,1.5,1.48,2.99,5.4,5.75,2.62,2.62-2.64-.61-4.84-2.36-6.6-14.45-14.53-29-28.96-43.51-43.44-7.32-7.31-8.33-14-3-19.52,5.27-5.45,11.52-4.79,19.38,1.84,19.74,16.66,39.56,33.21,59.26,49.91,9.56,8.1,14.21,18.62,14.63,31.1.24,7.31-.42,14.62.57,21.95,1.01,7.53,4.44,13.48,10.02,18.42,2.37,2.1,4.75,4.21,6.89,6.53,2.03,2.2,2.42,4.84.29,7.21-2.09,2.33-4.71,2.48-7.18.62-12.82-9.66-21.86-21.32-21.23-38.53.25-6.8.62-13.66-.62-20.45-1.49-8.21-5.52-14.79-11.97-20.14-19.09-15.87-38.05-31.91-57.08-47.84-1.23-1.03-2.2-2.54-4.5-2.81Z"/><path class="cls-1" d="m408.41,387.75c-.07,12.16-6.18,21.23-16.48,25.22-10.85,4.2-21.05,1.68-29.01-7.06-29.28-32.16-58.58-64.3-87.88-96.44-4.68-5.13-5.43-8.01-2.68-10.67,2.88-2.79,5.95-1.73,10.73,3.51,29.29,32.15,58.59,64.29,87.93,96.4,5.42,5.93,11.17,7.03,17.98,3.82,6.07-2.87,9.47-9.13,8.77-16-.43-4.29-2.86-7.27-5.92-10.05-32.82-29.79-65.59-59.63-98.35-89.49-2.89-2.64-6.84-5.19-3.54-9.94,2.1-3.02,6.07-2.21,10.71,2,33.06,30.03,66.11,60.06,99.14,90.11,5.67,5.16,9.31,11.3,8.62,18.57Z"/></g></svg>