<?xml version="1.0" encoding="utf-8"?>
<!-- Generator: Adobe Illustrator 16.0.0, SVG Export Plug-In . SVG Version: 6.00 Build 0)  -->
<!DOCTYPE svg PUBLIC "-//W3C//DTD SVG 1.1//EN" "http://www.w3.org/Graphics/SVG/1.1/DTD/svg11.dtd">
<svg version="1.1" id="Capa_1" xmlns="http://www.w3.org/2000/svg" xmlns:xlink="http://www.w3.org/1999/xlink" x="0px" y="0px"
	 width="512px" height="512px" viewBox="0 0 512 512" enable-background="new 0 0 512 512" xml:space="preserve">
<radialGradient id="SVGID_1_" cx="256" cy="256.0005" r="250.3469" gradientUnits="userSpaceOnUse">
	<stop  offset="0" style="stop-color:#5B813C"/>
	<stop  offset="0.4389" style="stop-color:#5B823E"/>
	<stop  offset="0.597" style="stop-color:#598444"/>
	<stop  offset="0.7097" style="stop-color:#56874F"/>
	<stop  offset="0.8008" style="stop-color:#528C5C"/>
	<stop  offset="0.8789" style="stop-color:#4B926C"/>
	<stop  offset="0.9467" style="stop-color:#40987E"/>
	<stop  offset="1" style="stop-color:#2F9C90"/>
</radialGradient>
<circle fill="none" stroke="url(#SVGID_1_)" stroke-width="40" stroke-miterlimit="10" cx="256" cy="256" r="230.347"/>
<g>
	<g>
		<path fill="#319186" d="M343.778,299.538c-4.045,4.777-7.389,10.424-9.653,16.831H177.701
			c-2.416-6.369-5.959-12.021-10.219-16.831h-15.143c-6.45,0-12.84-1.834-18.395-5.215h-4.988v16.13
			c0,7.129,4.638,14.835,8.408,18.087c2.998,2.6,9.356,5.221,14.976,5.221h207.326c12.846,0,23.394-10.473,23.394-23.313v-19.899
			c-6.201,5.587-14.398,8.984-23.394,8.984h-15.887V299.538z"/>
		<path fill="#319186" d="M359.665,148.415H152.339c-12.835,0-23.383,10.204-23.383,23.038v93.107
			c0,7.129,4.632,14.873,8.408,18.151c2.998,2.6,9.356,5.221,14.976,5.221h207.326c12.846,0,23.394-10.538,23.394-23.372v-93.107
			C383.064,158.619,372.511,148.415,359.665,148.415z M365.651,238.41c-13.634,4.892-25.875,16.168-31.526,32.114H177.701
			c-5.824-15.364-18.287-26.667-31.343-31.774v-41.319c13.347-4.929,25.481-15.952,31.246-31.904h156.667
			c5.63,16.82,17.467,27.492,31.402,32.2v40.683H365.651z"/>
		<path fill="#319186" d="M255.816,176.862c-22.763,0-41.212,18.449-41.212,41.217c0,22.763,18.449,41.222,41.212,41.222
			c22.768,0,41.217-18.459,41.217-41.222C297.038,195.311,278.584,176.862,255.816,176.862z M259.203,241.673v7.68h-7.254v-7.151
			c-5.22-0.227-10.122-1.596-13.007-3.273l2.254-8.909c3.192,1.753,7.674,3.349,12.613,3.349c4.342,0,7.302-1.677,7.302-4.719
			c0-2.891-2.438-4.719-8.073-6.622c-8.148-2.745-13.687-6.553-13.687-13.94c0-6.698,4.757-11.956,12.884-13.552v-7.248h7.539v6.725
			c4.935,0.226,8.467,1.289,10.974,2.513l-2.227,8.602c-1.979-0.836-5.501-2.588-10.975-2.588c-4.95,0-6.558,2.13-6.558,4.26
			c0,2.513,2.653,4.109,9.13,6.552c9.065,3.198,12.674,7.383,12.674,14.242C272.798,234.366,267.906,240.152,259.203,241.673z"/>
		<path fill="#319186" d="M343.778,345.377c-4.045,4.767-7.389,10.413-9.653,16.82H177.701c-2.416-6.364-5.959-12.021-10.219-16.82
			h-15.143c-6.45,0-12.84-1.834-18.395-5.226h-4.988v16.135c0,7.13,4.638,14.841,8.408,18.093c2.998,2.594,9.356,5.221,14.976,5.221
			h207.326c12.846,0,23.394-10.479,23.394-23.318v-19.895c-6.201,5.582-14.398,8.984-23.394,8.984h-15.887V345.377z"/>
	</g>
</g>
</svg>
