<?xml version="1.0" encoding="utf-8"?>
<!-- Generator: Adobe Illustrator 16.0.0, SVG Export Plug-In . SVG Version: 6.00 Build 0)  -->
<!DOCTYPE svg PUBLIC "-//W3C//DTD SVG 1.1//EN" "http://www.w3.org/Graphics/SVG/1.1/DTD/svg11.dtd">
<svg version="1.1" id="Capa_1" xmlns="http://www.w3.org/2000/svg" xmlns:xlink="http://www.w3.org/1999/xlink" x="0px" y="0px"
	 width="512px" height="512px" viewBox="0 0 512 512" enable-background="new 0 0 512 512" xml:space="preserve">
<radialGradient id="SVGID_1_" cx="256" cy="256.0005" r="250.3469" gradientUnits="userSpaceOnUse">
	<stop  offset="0" style="stop-color:#5B813C"/>
	<stop  offset="0.4389" style="stop-color:#5B823E"/>
	<stop  offset="0.597" style="stop-color:#598444"/>
	<stop  offset="0.7097" style="stop-color:#56874F"/>
	<stop  offset="0.8008" style="stop-color:#528C5C"/>
	<stop  offset="0.8789" style="stop-color:#4B926C"/>
	<stop  offset="0.9467" style="stop-color:#40987E"/>
	<stop  offset="1" style="stop-color:#2F9C90"/>
</radialGradient>
<circle fill="none" stroke="url(#SVGID_1_)" stroke-width="40" stroke-miterlimit="10" cx="256" cy="256" r="230.347"/>
<path fill="#319186" d="M368.205,140.408h-13.546c-16.807,0-30.478,13.671-30.478,30.478c0-16.807-13.672-30.478-30.479-30.478
	h-13.546c-1.866,0-3.387,1.52-3.387,3.386v13.546c0,16.807,13.671,30.479,30.479,30.479h10.247
	c0.032,22.975-0.606,46.996-17.789,58.447l-5.119,3.413h-21.655c-5.61,0-10.159,4.549-10.159,10.159s4.549,10.159,10.159,10.159
	h47.41c5.611,0,10.16-4.549,10.16-10.159s-4.549-10.159-10.16-10.159h-4.313c14.272-16.187,14.951-40.894,14.923-61.86h10.161
	c16.808,0,30.479-13.671,30.479-30.479v-13.546C371.592,141.928,370.071,140.408,368.205,140.408z"/>
<path fill="#319186" d="M279.705,351.273H245.84c-5.61,0-10.159,4.549-10.159,10.159s4.549,10.159,10.159,10.159h33.865
	c5.611,0,10.16-4.549,10.16-10.159S285.316,351.273,279.705,351.273z"/>
<path fill="#319186" d="M293.251,317.408H245.84c-5.61,0-10.159,4.549-10.159,10.159c0,5.611,4.549,10.16,10.159,10.16h47.411
	c5.611,0,10.16-4.549,10.16-10.16C303.411,321.957,298.862,317.408,293.251,317.408z"/>
<path fill="#319186" d="M306.797,283.543h-47.41c-5.611,0-10.16,4.549-10.16,10.16c0,5.61,4.549,10.159,10.16,10.159h47.41
	c5.611,0,10.16-4.549,10.16-10.159C316.957,288.092,312.408,283.543,306.797,283.543z"/>
<path fill="#319186" d="M222.135,327.567c0-10.572,7.006-19.445,16.583-22.491c-1.875-3.393-3.037-7.23-3.037-11.373
	c0-10.572,7.006-19.446,16.583-22.492c-1.875-3.392-3.037-7.229-3.037-11.373c0-3.649,0.898-7.067,2.377-10.159h-6.983
	c-7.722,16.391-24.382,27.092-42.805,27.092c-3.794,0-6.773-2.98-6.773-6.773c0-3.794,2.979-6.772,6.773-6.772
	c14.297,0,27.118-8.999,31.907-22.45c0.955-2.683,3.26-4.642,6.108-4.642h36.488c7.481,0,13.546-6.066,13.546-13.546
	c0-7.482-6.064-13.546-13.546-13.546h-47.411c-22.508,0-43.264,9.83-57.479,27.092h-24.249c-3.741,0-6.773,3.032-6.773,6.773v94.822
	c0,3.74,3.032,6.772,6.773,6.772h24.249c13.251,16.093,32.208,25.612,52.949,26.845c-1.404-3.026-2.244-6.363-2.244-9.912
	c0-6.636,2.758-12.625,7.168-16.933C224.894,340.193,222.135,334.203,222.135,327.567z"/>
</svg>
