<?xml version="1.0" encoding="utf-8"?>
<!-- Generator: Adobe Illustrator 16.0.0, SVG Export Plug-In . SVG Version: 6.00 Build 0)  -->
<!DOCTYPE svg PUBLIC "-//W3C//DTD SVG 1.1//EN" "http://www.w3.org/Graphics/SVG/1.1/DTD/svg11.dtd">
<svg version="1.1" id="Capa_1" xmlns="http://www.w3.org/2000/svg" xmlns:xlink="http://www.w3.org/1999/xlink" x="0px" y="0px"
	 width="512px" height="512px" viewBox="0 0 512 512" enable-background="new 0 0 512 512" xml:space="preserve">
<radialGradient id="SVGID_1_" cx="256" cy="256.0005" r="250.3469" gradientUnits="userSpaceOnUse">
	<stop  offset="0" style="stop-color:#5B813C"/>
	<stop  offset="0.4389" style="stop-color:#5B823E"/>
	<stop  offset="0.597" style="stop-color:#598444"/>
	<stop  offset="0.7097" style="stop-color:#56874F"/>
	<stop  offset="0.8008" style="stop-color:#528C5C"/>
	<stop  offset="0.8789" style="stop-color:#4B926C"/>
	<stop  offset="0.9467" style="stop-color:#40987E"/>
	<stop  offset="1" style="stop-color:#2F9C90"/>
</radialGradient>
<circle fill="none" stroke="url(#SVGID_1_)" stroke-width="40" stroke-miterlimit="10" cx="256" cy="256" r="230.347"/>
<g>
	<g>
		<path fill="#319186" d="M390.596,208.526l-42.54-59.556c-1.701-2.212-4.254-3.573-6.977-3.573H170.92
			c-2.722,0-5.275,1.361-6.977,3.573l-42.54,59.556c-0.51,1.532-1.021,3.063-1.531,4.594c-0.17,18.888,15.144,34.372,34.032,34.372
			c10.209,0,19.228-4.424,25.524-11.571c6.296,7.147,15.314,11.571,25.523,11.571c10.21,0,19.229-4.424,25.524-11.571
			c6.296,7.147,15.314,11.571,25.523,11.571c10.21,0,19.229-4.424,25.524-11.571c6.296,7.147,15.313,11.571,25.523,11.571
			s19.229-4.424,25.524-11.571c6.296,7.147,15.313,11.571,25.523,11.571c18.888,0,34.202-15.484,34.031-34.372
			C391.616,211.589,391.106,210.058,390.596,208.526z"/>
	</g>
</g>
<g>
	<g>
		<path fill="#319186" d="M358.096,264.508c-9.036,0-17.833-2.415-25.523-6.874c-15.383,8.899-35.666,8.899-51.048,0
			c-15.383,8.899-35.683,8.899-51.048,0c-15.365,8.899-35.683,8.899-51.048,0c-12.779,7.419-28.604,8.372-42.54,3.556v88.398
			c0,9.393,7.623,17.016,17.016,17.016h136.126v-85.079h51.048v85.079h17.017c9.393,0,17.016-7.623,17.016-17.016v-88.193
			C369.7,263.316,364,264.508,358.096,264.508z M238.984,332.572H170.92v-51.048h68.064V332.572z"/>
	</g>
</g>
</svg>
