<?xml version="1.0" encoding="utf-8"?>
<!-- Generator: Adobe Illustrator 16.0.0, SVG Export Plug-In . SVG Version: 6.00 Build 0)  -->
<!DOCTYPE svg PUBLIC "-//W3C//DTD SVG 1.1//EN" "http://www.w3.org/Graphics/SVG/1.1/DTD/svg11.dtd">
<svg version="1.1" id="Capa_1" xmlns="http://www.w3.org/2000/svg" xmlns:xlink="http://www.w3.org/1999/xlink" x="0px" y="0px"
	 width="512px" height="512px" viewBox="0 0 512 512" enable-background="new 0 0 512 512" xml:space="preserve">
<radialGradient id="SVGID_1_" cx="256" cy="256.0005" r="250.3469" gradientUnits="userSpaceOnUse">
	<stop  offset="0" style="stop-color:#5B813C"/>
	<stop  offset="0.4389" style="stop-color:#5B823E"/>
	<stop  offset="0.597" style="stop-color:#598444"/>
	<stop  offset="0.7097" style="stop-color:#56874F"/>
	<stop  offset="0.8008" style="stop-color:#528C5C"/>
	<stop  offset="0.8789" style="stop-color:#4B926C"/>
	<stop  offset="0.9467" style="stop-color:#40987E"/>
	<stop  offset="1" style="stop-color:#2F9C90"/>
</radialGradient>
<circle fill="none" stroke="url(#SVGID_1_)" stroke-width="40" stroke-miterlimit="10" cx="256" cy="256" r="230.347"/>
<g>
	<g>
		<path fill="#319186" d="M363.335,198.204h-41.282v-49.539c0-4.561-3.697-8.257-8.258-8.257H148.664
			c-4.56,0-8.256,3.696-8.256,8.257v189.901c0,18.24,14.786,33.025,33.026,33.025h165.131c18.24,0,33.027-14.785,33.027-33.025
			V206.46C371.592,201.901,367.896,198.204,363.335,198.204z M206.46,181.691h49.539c4.561,0,8.257,3.697,8.257,8.257
			s-3.696,8.256-8.257,8.256H206.46c-4.561,0-8.257-3.696-8.257-8.256S201.9,181.691,206.46,181.691z M280.769,338.566H181.69
			c-4.56,0-8.257-3.697-8.257-8.258c0-4.56,3.697-8.256,8.257-8.256h99.079c4.561,0,8.258,3.696,8.258,8.256
			C289.026,334.869,285.329,338.566,280.769,338.566z M280.769,305.54H181.69c-4.56,0-8.257-3.697-8.257-8.258
			c0-4.56,3.697-8.256,8.257-8.256h99.079c4.561,0,8.258,3.696,8.258,8.256C289.026,301.843,285.329,305.54,280.769,305.54z
			 M280.769,272.514H181.69c-4.56,0-8.257-3.697-8.257-8.257c0-4.561,3.697-8.256,8.257-8.256h99.079
			c4.561,0,8.258,3.696,8.258,8.256C289.026,268.816,285.329,272.514,280.769,272.514z M280.769,239.487H181.69
			c-4.56,0-8.257-3.696-8.257-8.256s3.697-8.257,8.257-8.257h99.079c4.561,0,8.258,3.697,8.258,8.257
			S285.329,239.487,280.769,239.487z M355.078,338.566c0,9.119-7.394,16.513-16.514,16.513c-9.119,0-16.512-7.394-16.512-16.513
			V214.717h33.025V338.566L355.078,338.566z"/>
	</g>
</g>
</svg>
