<?xml version="1.0" encoding="utf-8"?>
<!-- Generator: Adobe Illustrator 16.0.0, SVG Export Plug-In . SVG Version: 6.00 Build 0)  -->
<!DOCTYPE svg PUBLIC "-//W3C//DTD SVG 1.1//EN" "http://www.w3.org/Graphics/SVG/1.1/DTD/svg11.dtd">
<svg version="1.1" id="Capa_1" xmlns="http://www.w3.org/2000/svg" xmlns:xlink="http://www.w3.org/1999/xlink" x="0px" y="0px"
	 width="512px" height="512px" viewBox="0 0 512 512" enable-background="new 0 0 512 512" xml:space="preserve">
<radialGradient id="SVGID_1_" cx="256" cy="256.0005" r="250.3469" gradientUnits="userSpaceOnUse">
	<stop  offset="0" style="stop-color:#5B813C"/>
	<stop  offset="0.4389" style="stop-color:#5B823E"/>
	<stop  offset="0.597" style="stop-color:#598444"/>
	<stop  offset="0.7097" style="stop-color:#56874F"/>
	<stop  offset="0.8008" style="stop-color:#528C5C"/>
	<stop  offset="0.8789" style="stop-color:#4B926C"/>
	<stop  offset="0.9467" style="stop-color:#40987E"/>
	<stop  offset="1" style="stop-color:#2F9C90"/>
</radialGradient>
<circle fill="none" stroke="url(#SVGID_1_)" stroke-width="40" stroke-miterlimit="10" cx="256" cy="256" r="230.347"/>
<g id="Paticipatation-2">
	<path fill="#319186" d="M198.963,347.996c0.782-0.783,1.843-1.223,2.95-1.224h21.884l26.331-26.364l-1.932-1.937
		c-1.374-1.395-2.399-3.095-2.991-4.961l-10.848,10.849l-5.9-5.899l21.655-21.634l-5.007-5.007
		c-0.114-0.113-0.222-0.233-0.321-0.359l-0.55-0.546l-9.876,9.875l-5.9-5.899l9.868-9.868l-4.902-4.885
		c-0.332-0.348-0.642-0.714-0.931-1.098l-9.943,9.942l-5.899-5.899l11.432-11.433l1.807-1.807c0.306-2.8,1.551-5.413,3.534-7.414
		c1.016-0.999,2.194-1.818,3.484-2.424l-0.521-0.521c-1.49-1.51-2.567-3.378-3.125-5.424c-0.518,0.893-1.142,1.718-1.861,2.458
		l-20.653,20.653l-5.899-5.899l20.653-20.653c1.58-1.565,1.639-4.1,0.133-5.737c-0.071-0.075-0.133-0.154-0.2-0.234
		c-1.664-1.563-4.269-1.518-5.879,0.1l-46.313,46.376l-5.625,22.438c-0.184,0.734-0.563,1.404-1.097,1.94l-2.963,2.963
		l32.465,32.465L198.963,347.996z"/>
	<path fill="#319186" d="M259.93,306.589c-0.778-0.729-1.809-1.127-2.875-1.109c-0.33,0.083-0.669,0.125-1.009,0.125
		c-0.736,0.153-1.409,0.527-1.928,1.072c-1.631,1.627-1.635,4.269-0.008,5.9c0.002,0.003,0.005,0.005,0.008,0.008l34.163,34.213
		h21.863c1.106,0,2.168,0.44,2.95,1.223l2.921,2.921l32.465-32.466l-2.954-2.954c-0.534-0.535-0.913-1.206-1.098-1.939
		l-5.604-22.451l-46.359-46.414c-1.649-1.585-4.257-1.585-5.907,0c-1.632,1.627-1.635,4.269-0.008,5.9
		c0.003,0.002,0.005,0.005,0.008,0.008l20.653,20.653l-5.9,5.9l-32.46-32.461c-0.786-0.797-1.856-1.248-2.976-1.251
		c-0.161-0.004-0.321,0.01-0.479,0.042c-0.923,0.135-1.779,0.553-2.453,1.197c-0.817,0.826-1.253,1.956-1.202,3.117
		c0.019,1.034,0.436,2.02,1.164,2.753l32.498,32.498l-5.899,5.899l-41.306-41.306c-0.462-0.467-1.037-0.807-1.668-0.989
		c-0.403-0.136-0.826-0.207-1.252-0.208c-1.112-0.018-2.185,0.414-2.975,1.197c-1.631,1.627-1.635,4.27-0.008,5.901
		c0.003,0.002,0.005,0.005,0.008,0.007l41.306,41.306l-5.899,5.9l-32.461-32.461c-0.717-0.697-1.656-1.121-2.653-1.197
		c-0.158-0.004-0.315-0.018-0.472-0.037c-2.302,0.099-4.088,2.045-3.989,4.348c0,0.003,0,0.005,0,0.008
		c0.021,1.031,0.438,2.014,1.165,2.745l44.31,44.27l-5.899,5.899L259.93,306.589z"/>
	<path fill="#319186" d="M139.934,330.255l11.799-11.799l41.298,41.297l-11.799,11.8L139.934,330.255z"/>
	<path fill="#319186" d="M226.822,235.956v-24.617h8.345v25.034c-0.009,2.004-0.511,3.976-1.46,5.741
		c0.341,0.668,0.621,1.367,0.834,2.086c0.513-0.888,1.135-1.708,1.852-2.44c1.929-1.911,4.428-3.14,7.119-3.5v-10.231h8.344v11.992
		c0.812,0.494,1.564,1.08,2.241,1.748l0.546,0.547c1.123-2.518,3.088-4.566,5.558-5.791v-8.495h8.345v7.397
		c2.351,0.505,4.505,1.678,6.204,3.38l2.141,2.157v-12.934h8.345v7.965c2.7-0.93,5.632-0.947,8.345-0.05v-44.311l-11.921-19.869
		c-0.391-0.649-0.597-1.392-0.597-2.149v-4.172h-45.896v4.172c-0.001,1.107-0.44,2.168-1.223,2.95l-15.466,15.467v47.924
		C221.177,235.004,224.122,235.004,226.822,235.956z"/>
	<path fill="#319186" d="M318.927,359.773l41.354-41.237l11.786,11.819l-41.354,41.237L318.927,359.773z"/>
	<path fill="#319186" d="M230.995,140.409h58.413v16.689h-58.413V140.409z"/>
	<path fill="#319186" d="M204.5,196.99l-5.424-6.342c-22.978,19.681-34.196,49.81-29.686,79.725l8.249-1.252
		c-0.59-3.935-0.885-7.908-0.884-11.887C176.746,234.061,186.885,212.047,204.5,196.99L204.5,196.99z"/>
	<path fill="#319186" d="M260.405,344.749l-0.417-8.345c-2.629,0.13-5.308,0.13-7.928,0l-0.417,8.345
		c1.448,0.067,2.92,0.104,4.377,0.104C257.476,344.854,258.949,344.816,260.405,344.749z"/>
	<path fill="#319186" d="M343.23,265.996c0.288-2.883,0.417-5.842,0.417-8.762c0.009-25.612-11.197-49.944-30.667-66.586
		l-5.424,6.342c17.615,15.057,27.754,37.071,27.746,60.245c0,2.653-0.134,5.324-0.393,7.928L343.23,265.996z"/>
	<path fill="#319186" d="M162.15,277.229c-9.309-43.955,13.071-88.495,53.895-107.259l-3.479-7.581
		c-44.37,20.395-68.694,68.802-58.58,116.575L162.15,277.229z"/>
	<path fill="#319186" d="M240.032,351.871l-1.385,8.229c11.508,1.925,23.256,1.925,34.764,0l-1.385-8.229
		C261.434,353.633,250.624,353.633,240.032,351.871z"/>
	<path fill="#319186" d="M351.992,257.234c0.003,6.719-0.696,13.42-2.086,19.994l8.165,1.735
		c9.361-44.218-10.769-89.443-49.889-112.082l-4.172,7.227C333.653,191.309,351.925,222.963,351.992,257.234z"/>
</g>
</svg>
