<?xml version="1.0" encoding="utf-8"?>
<!-- Generator: Adobe Illustrator 16.0.0, SVG Export Plug-In . SVG Version: 6.00 Build 0)  -->
<!DOCTYPE svg PUBLIC "-//W3C//DTD SVG 1.1//EN" "http://www.w3.org/Graphics/SVG/1.1/DTD/svg11.dtd">
<svg version="1.1" id="Capa_1" xmlns="http://www.w3.org/2000/svg" xmlns:xlink="http://www.w3.org/1999/xlink" x="0px" y="0px"
	 width="512px" height="512px" viewBox="0 0 512 512" enable-background="new 0 0 512 512" xml:space="preserve">
<radialGradient id="SVGID_1_" cx="256" cy="256.0005" r="250.3469" gradientUnits="userSpaceOnUse">
	<stop  offset="0" style="stop-color:#5B813C"/>
	<stop  offset="0.4389" style="stop-color:#5B823E"/>
	<stop  offset="0.597" style="stop-color:#598444"/>
	<stop  offset="0.7097" style="stop-color:#56874F"/>
	<stop  offset="0.8008" style="stop-color:#528C5C"/>
	<stop  offset="0.8789" style="stop-color:#4B926C"/>
	<stop  offset="0.9467" style="stop-color:#40987E"/>
	<stop  offset="1" style="stop-color:#2F9C90"/>
</radialGradient>
<circle fill="none" stroke="url(#SVGID_1_)" stroke-width="40" stroke-miterlimit="10" cx="256" cy="256" r="230.347"/>
<g id="XMLID_1595_">
	<path id="XMLID_1598_" fill="#319186" d="M247.993,196.889l-48.046,24.022v63.398l48.046-25.149V196.889z"/>
	<path id="XMLID_1772_" fill="#319186" d="M312.053,220.911l-48.045-24.022v62.271l48.045,25.149V220.911z"/>
	<path id="XMLID_1779_" fill="#319186" d="M209.848,297.204L256,319.197l46.151-21.993L256,273.045L209.848,297.204z"/>
	<path id="XMLID_1806_" fill="#319186" d="M381.732,124.707c-82.256,25.705-169.21,25.705-251.466,0l-10.395-3.249v269.086
		l10.396-3.25c82.255-25.704,169.21-25.704,251.465,0l10.396,3.25V121.458L381.732,124.707z M328.068,302.594L256,336.938
		l-72.068-34.345v-91.58L256,174.979l72.068,36.034V302.594z"/>
</g>
</svg>
