<?xml version="1.0" encoding="utf-8"?>
<!-- Generator: Adobe Illustrator 16.0.0, SVG Export Plug-In . SVG Version: 6.00 Build 0)  -->
<!DOCTYPE svg PUBLIC "-//W3C//DTD SVG 1.1//EN" "http://www.w3.org/Graphics/SVG/1.1/DTD/svg11.dtd">
<svg version="1.1" id="Capa_1" xmlns="http://www.w3.org/2000/svg" xmlns:xlink="http://www.w3.org/1999/xlink" x="0px" y="0px"
	 width="512px" height="512px" viewBox="0 0 512 512" enable-background="new 0 0 512 512" xml:space="preserve">
<radialGradient id="SVGID_1_" cx="256" cy="256.0005" r="250.3469" gradientUnits="userSpaceOnUse">
	<stop  offset="0" style="stop-color:#5B813C"/>
	<stop  offset="0.4389" style="stop-color:#5B823E"/>
	<stop  offset="0.597" style="stop-color:#598444"/>
	<stop  offset="0.7097" style="stop-color:#56874F"/>
	<stop  offset="0.8008" style="stop-color:#528C5C"/>
	<stop  offset="0.8789" style="stop-color:#4B926C"/>
	<stop  offset="0.9467" style="stop-color:#40987E"/>
	<stop  offset="1" style="stop-color:#2F9C90"/>
</radialGradient>
<circle fill="none" stroke="url(#SVGID_1_)" stroke-width="40" stroke-miterlimit="10" cx="256" cy="256" r="230.347"/>
<g>
	<g>
		<path fill="#319186" d="M256,212.185c-24.174,0-43.815,19.641-43.815,43.815s19.641,43.815,43.815,43.815
			c24.173,0,43.814-19.642,43.814-43.815S280.173,212.185,256,212.185z M252.676,243.007c-5.439,0-9.972,4.532-9.972,9.972H228.2
			c0.302-13.598,11.18-24.476,24.476-24.476V243.007z"/>
	</g>
</g>
<g>
	<g>
		<path fill="#319186" d="M388.955,246.935C374.148,228.502,321.269,168.37,256,168.37c-65.27,0-118.149,60.132-132.956,78.564
			c-4.23,5.138-4.23,12.691,0,18.131C137.851,283.497,190.73,343.63,256,343.63c65.269,0,118.148-60.133,132.955-78.564
			C393.186,259.928,393.186,252.374,388.955,246.935z M256,319.456c-35.052,0-63.456-28.404-63.456-63.456
			s28.404-63.456,63.456-63.456c35.051,0,63.456,28.404,63.456,63.456S291.051,319.456,256,319.456z"/>
	</g>
</g>
</svg>
