<?xml version="1.0" encoding="utf-8"?>
<!-- Generator: Adobe Illustrator 16.0.0, SVG Export Plug-In . SVG Version: 6.00 Build 0)  -->
<!DOCTYPE svg PUBLIC "-//W3C//DTD SVG 1.1//EN" "http://www.w3.org/Graphics/SVG/1.1/DTD/svg11.dtd">
<svg version="1.1" id="Capa_1" xmlns="http://www.w3.org/2000/svg" xmlns:xlink="http://www.w3.org/1999/xlink" x="0px" y="0px"
	 width="512px" height="512px" viewBox="0 0 512 512" enable-background="new 0 0 512 512" xml:space="preserve">
<radialGradient id="SVGID_1_" cx="256" cy="256.0005" r="250.3469" gradientUnits="userSpaceOnUse">
	<stop  offset="0" style="stop-color:#5B813C"/>
	<stop  offset="0.4389" style="stop-color:#5B823E"/>
	<stop  offset="0.597" style="stop-color:#598444"/>
	<stop  offset="0.7097" style="stop-color:#56874F"/>
	<stop  offset="0.8008" style="stop-color:#528C5C"/>
	<stop  offset="0.8789" style="stop-color:#4B926C"/>
	<stop  offset="0.9467" style="stop-color:#40987E"/>
	<stop  offset="1" style="stop-color:#2F9C90"/>
</radialGradient>
<circle fill="none" stroke="url(#SVGID_1_)" stroke-width="40" stroke-miterlimit="10" cx="256" cy="256" r="230.347"/>
<g>
	<path fill-rule="evenodd" clip-rule="evenodd" fill="#319186" d="M310.856,281.792c-12.702,12.616-25.352,25.18-37.999,37.743
		c-3.042,3.021-5.902,6.256-9.158,9.026c-5.779,4.916-9.243,10.778-10.643,18.411c-1.675,9.141-2.182,9.015-11.661,9.358
		c-16.57,0.603-32.895-1.397-48.631-6.354c-14.024-4.418-27.653-10.092-41.441-15.254c-1.976-0.74-3.468-1.668-3.304-4.443
		c1.809-30.764,11.023-58.317,35.045-79.088c17.229-14.896,37.48-21.011,60.247-18.978
		C272.977,234.863,297.544,254.418,310.856,281.792z"/>
	<path fill-rule="evenodd" clip-rule="evenodd" fill="#319186" d="M193.743,182.016c-0.017-23.044,18.517-41.61,41.537-41.607
		c23.002,0.002,41.535,18.594,41.51,41.645c-0.023,22.787-18.573,41.367-41.334,41.403
		C212.382,223.491,193.761,204.991,193.743,182.016z"/>
	<path fill-rule="evenodd" clip-rule="evenodd" fill="#319186" d="M330.311,275.547c7.065,7.128,14.64,14.77,21.988,22.183
		c-21.114,21.096-42.558,42.522-63.931,63.877c-7.24-7.313-14.811-14.962-21.948-22.172
		C287.509,318.347,308.871,296.984,330.311,275.547z"/>
	<path fill-rule="evenodd" clip-rule="evenodd" fill="#319186" d="M359.338,291.614c-7.729-7.846-15.276-15.505-22.936-23.277
		c2.962-5.407,14.643-6.552,21.076-1.345C365.342,273.357,366.237,283.615,359.338,291.614z"/>
	<path fill-rule="evenodd" clip-rule="evenodd" fill="#319186" d="M278.812,366.374c-6.771,1.554-14.458,3.316-22.754,5.219
		c1.882-8.241,3.61-15.804,5.242-22.95C267.179,354.596,273.09,360.581,278.812,366.374z"/>
</g>
</svg>
