<?xml version="1.0" encoding="utf-8"?>
<!-- Generator: Adobe Illustrator 27.2.0, SVG Export Plug-In . SVG Version: 6.00 Build 0)  -->
<svg version="1.1" id="Capa_1" xmlns="http://www.w3.org/2000/svg" xmlns:xlink="http://www.w3.org/1999/xlink" x="0px" y="0px"
	 viewBox="0 0 512 512" style="enable-background:new 0 0 512 512;" xml:space="preserve">
<style type="text/css">
	.st0{fill:none;stroke:url(#SVGID_1_);stroke-width:40;stroke-miterlimit:10;}
	.st1{fill:#319186;}
</style>
<radialGradient id="SVGID_1_" cx="256" cy="256" r="250.347" gradientTransform="matrix(1 0 0 -1 0 512)" gradientUnits="userSpaceOnUse">
	<stop  offset="0" style="stop-color:#5B813C"/>
	<stop  offset="0.4389" style="stop-color:#5B823E"/>
	<stop  offset="0.597" style="stop-color:#598444"/>
	<stop  offset="0.7097" style="stop-color:#56874F"/>
	<stop  offset="0.8008" style="stop-color:#528C5C"/>
	<stop  offset="0.8789" style="stop-color:#4B926C"/>
	<stop  offset="0.9467" style="stop-color:#40987E"/>
	<stop  offset="1" style="stop-color:#2F9C90"/>
</radialGradient>
<circle class="st0" cx="256" cy="256" r="230.3"/>
<g>
	<path class="st1" d="M246.5,366.1c-15.9,0-31.8,0-47.6,0c-18.6,0-34-6.7-44.5-22.5c-20.1-30.3-1.9-71.1,34-76.5
		c3.7-0.6,7.3-0.7,11-0.7c24,0,47.9,0,71.9,0c8.9,0,15.1-4.9,16.7-12.8c2-9.5-4.7-18.4-14.5-18.8c-7.1-0.3-14.2-0.1-21.3-0.1
		c-14.4,0-28.7,0-43.1,0c-1.3,0-3,0.6-3.8-0.8c-0.9-1.5,0.9-2.4,1.6-3.4c3.9-5,7.4-10.2,10.5-15.7c1.1-1.9,2.2-3.3,4.7-3.3
		c18.3,0.3,36.7-1,55,0.7c15.3,1.4,25.9,10,31.5,24.1c5.6,14,3.3,27.3-6.2,38.9c-7.6,9.3-17.6,14-29.8,13.9c-24.4-0.1-48.7,0-73.1,0
		c-4,0-8,0.3-11.7,1.6c-13.1,4.5-20.3,16.5-18.2,29.9c2.1,13,12.7,22.2,26.5,22.3c28.6,0.2,57.2,0.1,85.8,0c4.1,0,6.6,1.1,8.3,4.9
		c2.3,5.1,5.6,9.7,8.9,14.3c0.7,0.9,2.1,1.8,1.5,3.1c-0.7,1.5-2.4,0.9-3.7,0.9C279.9,366.1,263.2,366.1,246.5,366.1z"/>
	<path class="st1" d="M212.8,179.3c-0.8,20.6-9.9,36-24.4,48.4c-10,8.6-7.7,8.8-18.2-0.1c-11.6-10-20-22.1-23-37.4
		c-3-14.8-0.3-27.9,12.3-37.4c10.7-8.1,22.5-9.1,34.4-3.3C206.4,155.6,212.4,166.3,212.8,179.3z M195.1,179.3
		c0-8.9-6.9-15.9-15.8-15.9c-8.6,0-15.7,7-15.8,15.6c-0.1,8.9,6.8,16,15.7,16C188.3,195.1,195.1,188.4,195.1,179.3z"/>
	<path class="st1" d="M366,309.8c-0.3,18.6-7.7,32.9-19.8,45.2c-3.4,3.4-7,6.5-10.9,9.4c-1.8,1.3-3.4,1.4-5.2,0
		c-16.2-12.1-27.7-27-30.5-47.7c-2.8-20.8,11.5-38.8,32.5-39.3c18.7-0.5,31.7,14.3,33.3,28.5C365.7,307.6,365.9,309.2,366,309.8z
		 M332.5,326.5c9,0.1,16-6.8,16-15.7c0-8.7-6.8-15.7-15.5-15.9c-8.9-0.2-16,6.7-16.1,15.6C316.8,319.6,323.4,326.4,332.5,326.5z"/>
</g>
</svg>
