<?xml version="1.0" encoding="UTF-8"?><svg id="Capa_1" xmlns="http://www.w3.org/2000/svg" width="500.6" height="500.6" xmlns:xlink="http://www.w3.org/1999/xlink" viewBox="0 0 500.6 500.6"><defs><style>.cls-1{fill:none;stroke:url(#Degradado_sin_nombre);stroke-miterlimit:10;stroke-width:40px;}.cls-2{fill:#319186;}</style><radialGradient id="Degradado_sin_nombre" cx="250.3" cy="1238.3" fx="250.3" fy="1238.3" r="250.3" gradientTransform="translate(0 -988)" gradientUnits="userSpaceOnUse"><stop offset="0" stop-color="#5b813c"/><stop offset=".44" stop-color="#5b823e"/><stop offset=".6" stop-color="#598444"/><stop offset=".71" stop-color="#56874f"/><stop offset=".8" stop-color="#528c5c"/><stop offset=".88" stop-color="#4b926c"/><stop offset=".95" stop-color="#40987e"/><stop offset="1" stop-color="#2f9c90"/></radialGradient></defs><circle class="cls-1" cx="250.3" cy="250.3" r="230.3"/><g><path class="cls-2" d="m134.94,255.36c0-20.58-.04-41.16.01-61.74.03-14.01,4.84-25.84,16.2-34.57,8.35-6.42,17.97-8.44,28.25-8.38,6.56.04,6.56,0,6.66-6.39.09-5.67,3.26-9.33,8.16-9.43,5-.11,8.37,3.7,8.46,9.54q.09,6.29,6.37,6.29c20.71,0,41.43,0,62.14,0,5.48,0,5.48-.02,5.56-5.52.11-7.61,5.15-11.94,11.4-9.72,4.53,1.61,5.53,5.41,5.73,9.63.27,5.59.26,5.71,5.95,5.58,22.89-.51,36.28,11.63,42.13,26.48,1.73,4.39,2.57,9,2.58,13.71.05,15.64.03,31.27,0,46.91,0,1.14.54,2.69-.66,3.32-1.24.66-2.13-.76-3.08-1.4-25.38-17-58.95-4.21-65.45,25.31-2.69,12.18-.71,23.94,7.03,34.26q3.6,4.81-1.17,8.15c-9.54,6.7-16.5,15.52-21.16,26.15-3.29,7.5-4.16,15.19-1.05,22.97,1.14,2.84.5,3.84-2.59,3.83-27.53-.07-55.07.26-82.59-.17-20.09-.31-36.52-16.24-38.3-36.3-1.42-16-.31-32.05-.58-48.07-.11-6.81-.02-13.63-.02-20.45Zm78.2,23.63c8.42,0,16.84.05,25.25-.02,5.7-.04,8.84-2.84,8.75-7.6-.09-4.58-3.17-7.27-8.68-7.28-16.84-.05-33.67-.05-50.51,0-5.51.01-9.08,3-9.16,7.44-.08,4.36,3.54,7.4,9.1,7.44,8.42.06,16.84.02,25.25.02Zm-10.35-42.67c5.34,0,10.68.08,16.02-.02,4.86-.1,8.09-3.21,8.12-7.57.02-4.22-3.02-7.21-7.84-7.26-10.68-.11-21.36-.11-32.04,0-4.92.05-8.35,3.31-8.25,7.43.1,4.17,3.52,7.29,8.38,7.4,5.2.11,10.41.03,15.62.03Zm-.73-71.58s.02,0,.02,0c0-3.33-.04-6.66.01-9.99.03-1.97-.74-2.99-2.81-2.96-3.33.05-6.66.03-9.99.01-1.83-.01-2.66.85-2.65,2.68.03,6.79-.14,13.6.09,20.38.16,4.72,3.33,7.72,7.49,7.79,4.33.07,7.5-3.02,7.79-7.93.2-3.32.04-6.66.04-9.99Zm90.69.07s.02,0,.03,0c0-3.2-.07-6.41.02-9.61.07-2.29-.7-3.52-3.2-3.43-2.8.11-5.61.1-8.41,0-2.4-.08-3.36.98-3.34,3.34.06,6.67-.07,13.35.08,20.02.1,4.6,2.95,7.43,7.13,7.54,4.39.12,7.43-2.73,7.65-7.45.17-3.46.03-6.94.03-10.41Z"/><path class="cls-2" d="m324.11,306.29c10.93,2.18,19.94,6.33,27.34,13.47,7.15,6.89,12.85,14.73,14.2,24.9,1.42,10.68-6.83,20.17-17.55,20.53-19.89.67-39.79.59-59.69.56-11.18-.02-18.17-5.1-20.83-14.61-1.29-4.61-.59-9.05,1.28-13.28,6.89-15.61,18.44-25.9,35.04-30.33,1.26-.34,2.51-.73,4.77-1.39-9.64-3.36-16.82-8.55-21.1-17.02-4.31-8.53-4.84-17.33-1.48-26.37,5.24-14.1,19.12-22.32,35.17-20.7,13.96,1.41,25.45,13.48,27.73,29.12,2.1,14.37-7.08,27.7-24.88,35.13Z"/></g></svg>