<?xml version="1.0" encoding="utf-8"?>
<!-- Generator: Adobe Illustrator 16.0.0, SVG Export Plug-In . SVG Version: 6.00 Build 0)  -->
<!DOCTYPE svg PUBLIC "-//W3C//DTD SVG 1.1//EN" "http://www.w3.org/Graphics/SVG/1.1/DTD/svg11.dtd">
<svg version="1.1" id="Capa_1" xmlns="http://www.w3.org/2000/svg" xmlns:xlink="http://www.w3.org/1999/xlink" x="0px" y="0px"
	 width="512px" height="512px" viewBox="0 0 512 512" enable-background="new 0 0 512 512" xml:space="preserve">
<radialGradient id="SVGID_1_" cx="256" cy="256.0005" r="250.3469" gradientUnits="userSpaceOnUse">
	<stop  offset="0" style="stop-color:#5B813C"/>
	<stop  offset="0.4389" style="stop-color:#5B823E"/>
	<stop  offset="0.597" style="stop-color:#598444"/>
	<stop  offset="0.7097" style="stop-color:#56874F"/>
	<stop  offset="0.8008" style="stop-color:#528C5C"/>
	<stop  offset="0.8789" style="stop-color:#4B926C"/>
	<stop  offset="0.9467" style="stop-color:#40987E"/>
	<stop  offset="1" style="stop-color:#2F9C90"/>
</radialGradient>
<circle fill="none" stroke="url(#SVGID_1_)" stroke-width="40" stroke-miterlimit="10" cx="256" cy="256" r="230.347"/>
<g>
	<g>
		<path fill="#319186" d="M219.045,156.42h25.544c9.764,0,17.91,7.01,19.698,16.235h14.333
			c-1.901-17.086-16.434-30.426-34.031-30.426h-25.544c-17.597,0-32.129,13.34-34.059,30.426h14.333
			C201.164,163.431,209.31,156.42,219.045,156.42z"/>
		<path fill="#319186" d="M144.626,318.854h130.73c-0.624-3.292-0.937-6.67-0.937-10.133c0-30.113,24.522-54.637,54.636-54.637
			c5.989,0,11.779,0.965,17.172,2.754v-45.81c-1.221,2.526-2.64,5.023-4.229,7.493c-6.188,9.48-15.015,17.938-26.169,25.147
			c-17.398,11.24-39.168,18.591-62.783,21.315v2.441v6.585c0,10.756-8.742,19.498-19.499,19.498h-3.378
			c-10.757,0-19.499-8.742-19.499-19.498v-6.585v-2.441c-23.586-2.753-45.384-10.075-62.782-21.315
			c-11.183-7.209-19.981-15.667-26.169-25.147c-1.618-2.469-3.008-4.938-4.229-7.493v80.663
			C117.436,306.706,129.612,318.854,144.626,318.854z"/>
		<path fill="#319186" d="M154.021,234.131c20.691,13.369,48.335,20.748,77.796,20.748s57.106-7.351,77.797-20.748
			c18.619-12.034,29.404-27.531,30.767-43.993c-4.967-6.301-12.688-10.36-21.344-10.36h-40.19h-14.19h-65.678h-14.191h-40.161
			c-8.657,0-16.376,4.059-21.344,10.36C124.617,206.572,135.402,222.097,154.021,234.131z"/>
		<path fill="#319186" d="M221.997,274.009c0,4.513,3.661,8.146,8.146,8.146h3.377c4.513,0,8.146-3.661,8.146-8.146v-6.584h-19.669
			L221.997,274.009L221.997,274.009z"/>
		<path fill="#319186" d="M346.199,288.91c-4.599-4.002-10.615-6.415-17.172-6.415c-14.475,0-26.254,11.779-26.254,26.254
			c0,3.576,0.71,7.011,2.044,10.133c0.511,1.221,1.135,2.412,1.816,3.548c0.766,1.249,1.646,2.441,2.61,3.548
			c0.426,0.482,0.852,0.937,1.307,1.391h7.237c10.019,0,19.016-4.314,25.231-11.183c4.996-5.506,8.203-12.659,8.742-20.577
			c-0.596-1.051-1.277-2.044-2.016-2.98C348.696,291.266,347.505,290.017,346.199,288.91z"/>
		<path fill="#319186" d="M374.411,339.146l-2.555-2.582l-1.618-1.646c-0.312-0.313-0.624-0.596-0.965-0.88
			c4.627-7.323,7.295-16.008,7.295-25.289c0-17.342-9.338-32.555-23.273-40.871c-1.164-0.681-2.328-1.334-3.548-1.93
			c-1.164-0.567-2.328-1.079-3.548-1.561c-5.336-2.072-11.126-3.208-17.172-3.208c-26.225,0-47.54,21.315-47.54,47.541
			c0,3.462,0.368,6.868,1.078,10.132c0.255,1.192,0.567,2.385,0.908,3.548c0.369,1.192,0.766,2.385,1.221,3.548
			c6.925,17.739,24.153,30.313,44.305,30.313c9.281,0,17.967-2.668,25.289-7.294c0.228,0.284,0.482,0.568,0.738,0.852l1.76,1.788
			l2.525,2.583l12.205,12.403c2.071,2.128,4.825,3.179,7.578,3.179c2.696,0,5.393-1.022,7.465-3.065
			c4.2-4.115,4.257-10.87,0.142-15.043L374.411,339.146z M329.027,342.099c-10.87,0-20.549-5.223-26.65-13.312
			c-0.341-0.454-0.682-0.937-1.022-1.419c-0.313-0.454-0.596-0.937-0.88-1.391c-0.142-0.255-0.284-0.482-0.426-0.738
			c-0.511-0.908-0.993-1.845-1.419-2.81c-0.511-1.135-0.965-2.327-1.362-3.548c-1.022-3.207-1.562-6.585-1.562-10.133
			c0-18.392,14.958-33.35,33.35-33.35c6.272,0,12.147,1.732,17.172,4.769c1.248,0.738,2.412,1.562,3.548,2.47
			c0.709,0.567,1.419,1.164,2.071,1.788c0.397,0.369,0.795,0.766,1.192,1.163c0.085,0.086,0.198,0.199,0.284,0.284
			c1.589,1.675,2.979,3.52,4.2,5.479c3.094,5.052,4.882,11.013,4.882,17.369C362.377,327.142,347.419,342.099,329.027,342.099z"/>
	</g>
</g>
</svg>
