<?xml version="1.0" encoding="utf-8"?>
<!-- Generator: Adobe Illustrator 16.0.0, SVG Export Plug-In . SVG Version: 6.00 Build 0)  -->
<!DOCTYPE svg PUBLIC "-//W3C//DTD SVG 1.1//EN" "http://www.w3.org/Graphics/SVG/1.1/DTD/svg11.dtd">
<svg version="1.1" id="Capa_1" xmlns="http://www.w3.org/2000/svg" xmlns:xlink="http://www.w3.org/1999/xlink" x="0px" y="0px"
	 width="512px" height="512px" viewBox="0 0 512 512" enable-background="new 0 0 512 512" xml:space="preserve">
<radialGradient id="SVGID_1_" cx="256" cy="256.0005" r="250.3469" gradientUnits="userSpaceOnUse">
	<stop  offset="0" style="stop-color:#5B813C"/>
	<stop  offset="0.4389" style="stop-color:#5B823E"/>
	<stop  offset="0.597" style="stop-color:#598444"/>
	<stop  offset="0.7097" style="stop-color:#56874F"/>
	<stop  offset="0.8008" style="stop-color:#528C5C"/>
	<stop  offset="0.8789" style="stop-color:#4B926C"/>
	<stop  offset="0.9467" style="stop-color:#40987E"/>
	<stop  offset="1" style="stop-color:#2F9C90"/>
</radialGradient>
<circle fill="none" stroke="url(#SVGID_1_)" stroke-width="40" stroke-miterlimit="10" cx="256" cy="256" r="230.347"/>
<g>
	<g>
		<path fill="#319186" d="M206.288,303.208h-26.29c-2.237,0-4.043,1.884-3.884,4.115c0.938,13.216,26.68,37.147,32.778,42.643
			c0.819,0.738,1.286,1.788,1.286,2.89v2.351c0,9.05,7.336,16.386,16.385,16.386h58.869c9.05,0,16.388-7.337,16.388-16.388v-2.349
			c0-1.102,0.467-2.151,1.286-2.89c6.098-5.495,31.839-29.427,32.778-42.643c0.158-2.231-1.647-4.115-3.885-4.115h-26.287
			c-2.148,0-3.891-1.742-3.891-3.891v-17.623c0-1.103,0.467-2.151,1.286-2.89c6.097-5.495,31.839-29.426,32.778-42.64
			c0.158-2.231-1.647-4.116-3.885-4.116h-26.289c-2.148,0-3.891-1.742-3.891-3.891v-17.623c0-1.103,0.467-2.152,1.286-2.89
			c6.098-5.495,31.839-29.426,32.778-42.642c0.158-2.231-1.647-4.116-3.885-4.116h-26.289c-2.148,0-3.891-1.742-3.891-3.89v-0.205
			c0-9.049-7.336-16.385-16.386-16.385h-58.873c-9.049,0-16.386,7.336-16.386,16.386v0.205c0,2.148-1.742,3.89-3.89,3.89h-26.29
			c-2.237,0-4.043,1.884-3.884,4.116c0.938,13.216,26.681,37.148,32.778,42.642c0.819,0.738,1.286,1.788,1.286,2.89v17.623
			c0,2.149-1.742,3.891-3.89,3.891h-26.29c-2.237,0-4.043,1.884-3.884,4.116c0.939,13.214,26.68,37.145,32.777,42.64
			c0.819,0.737,1.286,1.787,1.286,2.89v17.623C210.178,301.466,208.437,303.208,206.288,303.208z M256.141,160.158
			c14.187,0,25.687,11.5,25.687,25.687s-11.5,25.687-25.687,25.687c-14.187,0-25.688-11.5-25.688-25.687
			S241.954,160.158,256.141,160.158z M256.141,230.452c14.187,0,25.687,11.5,25.687,25.688c0,14.187-11.5,25.687-25.687,25.687
			c-14.187,0-25.688-11.5-25.688-25.688C230.453,241.953,241.954,230.452,256.141,230.452z M256.141,300.743
			c14.187,0,25.687,11.501,25.687,25.688s-11.5,25.687-25.687,25.687c-14.187,0-25.688-11.5-25.688-25.687
			S241.954,300.743,256.141,300.743z"/>
	</g>
</g>
</svg>
