<?xml version="1.0" encoding="utf-8"?>
<!-- Generator: Adobe Illustrator 27.2.0, SVG Export Plug-In . SVG Version: 6.00 Build 0)  -->
<svg version="1.1" id="Capa_1" xmlns="http://www.w3.org/2000/svg" xmlns:xlink="http://www.w3.org/1999/xlink" x="0px" y="0px"
	 viewBox="0 0 512 512" style="enable-background:new 0 0 512 512;" xml:space="preserve">
<style type="text/css">
	.st0{fill:none;stroke:url(#SVGID_1_);stroke-width:40;stroke-miterlimit:10;}
	.st1{fill:#319186;}
</style>
<radialGradient id="SVGID_1_" cx="256" cy="256" r="250.347" gradientTransform="matrix(1 0 0 -1 0 512)" gradientUnits="userSpaceOnUse">
	<stop  offset="0" style="stop-color:#5B813C"/>
	<stop  offset="0.4389" style="stop-color:#5B823E"/>
	<stop  offset="0.597" style="stop-color:#598444"/>
	<stop  offset="0.7097" style="stop-color:#56874F"/>
	<stop  offset="0.8008" style="stop-color:#528C5C"/>
	<stop  offset="0.8789" style="stop-color:#4B926C"/>
	<stop  offset="0.9467" style="stop-color:#40987E"/>
	<stop  offset="1" style="stop-color:#2F9C90"/>
</radialGradient>
<circle class="st0" cx="256" cy="256" r="230.3"/>
<g>
	<path class="st1" d="M255.8,371.4c-33.1,0-66.2,0-99.3,0c-4.7,0-4.8-0.1-4.9-4.8c0-5,0.1-10.1,0-15.1c-0.1-2.9,1-4.1,4-4.1
		c4.8,0.1,9.6,0,14.4,0c4.4,0,4.7-0.2,4.7-4.7c0-29.8,0-59.5,0-89.3c0-35.8,0-71.5,0-107.3c0-5.7,0-5.7,5.7-5.7
		c50.5,0,101,0,151.5,0c5.4,0,5.4,0,5.4,5.4c0,65.1,0,130.3,0,195.4c0,6.2,0,6.2,6.1,6.2c4.4,0,8.9,0.1,13.3,0
		c2.6,0,3.7,1.1,3.6,3.7c-0.1,5.3-0.2,10.6,0,15.8c0.1,3.4-1,4.5-4.5,4.5c-32.4-0.1-64.8-0.1-97.2-0.1
		C257.7,371.4,256.8,371.4,255.8,371.4z M256.1,347.4c6.5,0,12.9,0,19.4,0c2.2,0,3.3-0.7,3.3-3.1c-0.1-6.6,0.2-13.2-0.1-19.8
		c-0.5-11.1-9.3-20.8-19.4-21.7c-12.9-1.2-22.7,5.7-25.4,18.1c-1.7,8-0.5,16.2-0.7,24.3c0,2.3,1.9,2.1,3.4,2.1
		C243.2,347.5,249.6,347.4,256.1,347.4z M210.3,256.2c-2.9,0-5.8,0.1-8.6,0c-2.1-0.1-3,0.7-3,2.9c0.1,5.6,0.1,11.3,0,16.9
		c0,2,0.9,2.7,2.8,2.7c5.6-0.1,11.3-0.1,16.9,0c2,0,2.8-0.7,2.8-2.7c-0.1-5.6-0.1-11.3,0-16.9c0-2.2-0.9-3-3-2.9
		C215.5,256.3,212.9,256.2,210.3,256.2z M302.4,256.2c-2.9,0-5.8,0.1-8.6,0c-2.2-0.1-3,0.8-3,2.9c0.1,5.5,0.1,11,0,16.6
		c0,2.1,0.6,3.1,2.9,3.1c5.6-0.1,11.3-0.1,16.9,0c2,0,2.8-0.8,2.8-2.8c-0.1-5.6-0.1-11.3,0-16.9c0-2.2-0.9-3-3-2.9
		C307.7,256.3,305,256.2,302.4,256.2z M209.6,186.6c3,0,6,0,9,0c1.8,0,2.6-0.8,2.6-2.6c0-5.5-0.1-11,0-16.5c0-2.2-1-3-3.1-2.9
		c-5.5,0-11,0-16.5,0c-2.1,0-3,1-2.9,3.1c0.1,5.4,0.1,10.8,0,16.2c0,2.3,1,2.9,3.1,2.8C204.3,186.5,207,186.6,209.6,186.6z
		 M301.8,186.6c3,0,6,0,9,0c1.8,0,2.6-0.8,2.6-2.6c0-5.5-0.1-11,0-16.5c0-2.2-1-3-3.1-2.9c-5.5,0-11,0-16.5,0c-2.1,0-3,1-3,3.1
		c0.1,5.4,0.1,10.8,0,16.2c0,2.3,1,2.9,3.1,2.8C296.5,186.5,299.1,186.6,301.8,186.6z M210.2,210.2c-2.9,0-5.8,0.1-8.6,0
		c-2.2-0.1-3,0.9-2.9,3c0.1,5.3,0.1,10.5,0,15.8c0,2.2,0.7,3.3,3.1,3.3c5.5-0.1,11,0,16.5,0c2.1,0,3-1,2.9-3.1
		c-0.1-5.4-0.1-10.8,0-16.2c0-2.3-1.1-2.9-3.1-2.8C215.5,210.2,212.8,210.2,210.2,210.2z M302.1,232.2c2.8,0,5.5,0,8.3,0
		c2.1,0,3-0.8,3-3c-0.1-5.4-0.1-10.8,0-16.2c0-2.2-0.9-2.9-3-2.9c-5.5,0.1-11,0.1-16.5,0c-2.1,0-3.1,0.7-3,2.9
		c0.1,5.4,0.1,10.8,0,16.2c0,2.2,0.9,3,3,3C296.5,232.2,299.3,232.2,302.1,232.2z M245.2,267.4c0,2.8,0,5.5,0,8.3
		c0,2,0.7,3.1,2.9,3.1c5.3-0.1,10.5-0.1,15.8,0c1.9,0,2.9-0.8,2.9-2.7c0-5.6,0-11.3,0-16.9c0-2.2-1-3-3.1-2.9c-2.5,0.1-5,0-7.5,0
		C245.2,256.2,245.2,256.2,245.2,267.4z M266.8,176C266.8,176,266.8,176,266.8,176c0-2.9,0-5.7,0-8.6c0-1.9-0.9-2.9-2.8-2.9
		c-5.3,0-10.5,0-15.8,0c-2.1,0-3,1.1-3,3.1c0,5.4,0,10.8,0,16.2c0,1.9,0.9,2.8,2.8,2.8c5.3,0,10.5-0.1,15.8,0c2.2,0,3.1-0.9,3-3
		C266.8,181.1,266.8,178.5,266.8,176z M266.8,221.1C266.8,221.1,266.8,221.1,266.8,221.1c0-2.8,0-5.5,0-8.3c0-1.7-0.8-2.6-2.6-2.6
		c-5.4,0-10.8,0-16.2,0c-2,0-2.9,0.9-2.8,2.8c0,5.4,0,10.8,0,16.2c0,2.3,1.2,3.2,3.4,3.1c5,0,10.1,0,15.1,0c2.3,0,3.3-1,3.2-3.3
		C266.8,226.3,266.8,223.7,266.8,221.1z"/>
</g>
</svg>
