<?xml version="1.0" encoding="utf-8"?>
<!-- Generator: Adobe Illustrator 16.0.0, SVG Export Plug-In . SVG Version: 6.00 Build 0)  -->
<!DOCTYPE svg PUBLIC "-//W3C//DTD SVG 1.1//EN" "http://www.w3.org/Graphics/SVG/1.1/DTD/svg11.dtd">
<svg version="1.1" id="Capa_1" xmlns="http://www.w3.org/2000/svg" xmlns:xlink="http://www.w3.org/1999/xlink" x="0px" y="0px"
	 width="512px" height="512px" viewBox="0 0 512 512" enable-background="new 0 0 512 512" xml:space="preserve">
<radialGradient id="SVGID_1_" cx="256" cy="256.0005" r="250.3469" gradientUnits="userSpaceOnUse">
	<stop  offset="0" style="stop-color:#5B813C"/>
	<stop  offset="0.4389" style="stop-color:#5B823E"/>
	<stop  offset="0.597" style="stop-color:#598444"/>
	<stop  offset="0.7097" style="stop-color:#56874F"/>
	<stop  offset="0.8008" style="stop-color:#528C5C"/>
	<stop  offset="0.8789" style="stop-color:#4B926C"/>
	<stop  offset="0.9467" style="stop-color:#40987E"/>
	<stop  offset="1" style="stop-color:#2F9C90"/>
</radialGradient>
<circle fill="none" stroke="url(#SVGID_1_)" stroke-width="40" stroke-miterlimit="10" cx="256" cy="256" r="230.347"/>
<g>
	<path fill="#319186" d="M254.984,371.592c-1.262,0-2.495-0.5-3.41-1.405c-1.137-1.137-1.638-2.774-1.32-4.354l6.811-34.062
		c0.192-0.936,0.636-1.793,1.319-2.457l74.923-74.923c5.626-5.635,14.806-5.635,20.431,0l13.621,13.621
		c5.635,5.634,5.635,14.795,0,20.431l-74.923,74.923c-0.665,0.675-1.522,1.127-2.466,1.32l-34.052,6.81
		C255.61,371.564,255.292,371.592,254.984,371.592L254.984,371.592z M266.235,335.094l-5.105,25.546l25.536-5.105l73.893-73.892
		c1.878-1.879,1.878-4.932,0-6.811l-13.621-13.621c-1.878-1.878-4.932-1.878-6.81,0L266.235,335.094z M289.035,359.966h0.098
		H289.035z"/>
</g>
<g>
	<path fill="#319186" d="M270.455,284.898h-96.328c-2.658,0-4.816-2.158-4.816-4.816c0-2.659,2.158-4.816,4.816-4.816h96.328
		c2.658,0,4.815,2.157,4.815,4.816C275.271,282.74,273.113,284.898,270.455,284.898z"/>
</g>
<g>
	<path fill="#319186" d="M251.189,313.796h-77.062c-2.658,0-4.816-2.157-4.816-4.815c0-2.659,2.158-4.817,4.816-4.817h77.062
		c2.658,0,4.816,2.158,4.816,4.817C256.006,311.639,253.848,313.796,251.189,313.796z"/>
</g>
<g>
	<path fill="#319186" d="M222.291,207.837c-10.625,0-19.265-8.641-19.265-19.265c0-10.625,8.641-19.266,19.265-19.266
		c10.625,0,19.266,8.641,19.266,19.266C241.557,199.196,232.916,207.837,222.291,207.837z M222.291,178.939
		c-5.317,0-9.632,4.325-9.632,9.633s4.315,9.632,9.632,9.632s9.633-4.325,9.633-9.632S227.608,178.939,222.291,178.939z"/>
</g>
<g>
	<path fill="#319186" d="M256.006,256c-2.659,0-4.816-2.158-4.816-4.816v-9.633c0-7.966-6.483-14.449-14.449-14.449h-28.898
		c-7.966,0-14.449,6.482-14.449,14.449v9.633c0,2.658-2.158,4.816-4.816,4.816s-4.816-2.158-4.816-4.816v-9.633
		c0-13.274,10.798-24.082,24.082-24.082h28.898c13.284,0,24.082,10.808,24.082,24.082v9.633
		C260.822,253.842,258.664,256,256.006,256z"/>
</g>
<g>
	<path fill="#319186" d="M231.924,342.694h-67.429c-13.284,0-24.082-10.808-24.082-24.082V164.49
		c0-13.274,10.798-24.082,24.082-24.082h115.592c13.284,0,24.082,10.808,24.082,24.082v86.694c0,2.658-2.158,4.816-4.816,4.816
		s-4.816-2.158-4.816-4.816V164.49c0-7.967-6.483-14.449-14.449-14.449H164.495c-7.966,0-14.449,6.482-14.449,14.449v154.122
		c0,7.967,6.483,14.45,14.449,14.45h67.429c2.659,0,4.816,2.156,4.816,4.815S234.583,342.694,231.924,342.694z"/>
</g>
</svg>
