<?xml version="1.0" encoding="utf-8"?>
<!-- Generator: Adobe Illustrator 27.2.0, SVG Export Plug-In . SVG Version: 6.00 Build 0)  -->
<svg version="1.1" id="Capa_1" xmlns="http://www.w3.org/2000/svg" xmlns:xlink="http://www.w3.org/1999/xlink" x="0px" y="0px"
	 viewBox="0 0 512 512" style="enable-background:new 0 0 512 512;" xml:space="preserve">
<style type="text/css">
	.st0{fill:none;stroke:url(#SVGID_1_);stroke-width:40;stroke-miterlimit:10;}
	.st1{fill:#319186;}
</style>
<radialGradient id="SVGID_1_" cx="256" cy="256" r="250.347" gradientTransform="matrix(1 0 0 -1 0 512)" gradientUnits="userSpaceOnUse">
	<stop  offset="0" style="stop-color:#5B813C"/>
	<stop  offset="0.4389" style="stop-color:#5B823E"/>
	<stop  offset="0.597" style="stop-color:#598444"/>
	<stop  offset="0.7097" style="stop-color:#56874F"/>
	<stop  offset="0.8008" style="stop-color:#528C5C"/>
	<stop  offset="0.8789" style="stop-color:#4B926C"/>
	<stop  offset="0.9467" style="stop-color:#40987E"/>
	<stop  offset="1" style="stop-color:#2F9C90"/>
</radialGradient>
<circle class="st0" cx="256" cy="256" r="230.3"/>
<g>
	<path class="st1" d="M221.4,377.6c-22,0-43.9,0-65.9,0c-13.7,0-22-8.3-22-21.9c0-62.4,0-124.8,0-187.2c0-13.5,8.3-21.9,21.7-21.9
		c31.9,0,63.8,0,95.7,0c4.7,0,4.8,0,4.8,4.8c0,13.4,0,26.9,0,40.3c0,6.7,2.2,8.9,8.8,8.9c13.6,0,27.1,0.1,40.7-0.1
		c3.4,0,4.7,0.9,4.6,4.4c-0.2,7.3-0.1,14.6,0,22c0,2.3-0.8,4-2.4,5.7c-13.9,13.8-27.7,27.6-41.6,41.4c-4.2,4.1-7.2,8.9-9,14.5
		c-1.8,5.6-3.7,11.2-5.5,16.7c-2.1,6.5-0.9,12.4,3.9,17.2c4.9,4.9,10.9,5.8,17.3,3.7c5.7-1.8,11.3-3.9,17.1-5.6
		c6.9-2,11.8-6.6,16.7-11.5c0.8-0.8,1.6-2.2,2.9-1.6c1.1,0.5,0.6,2,0.6,3c0,15.2,0.1,30.5,0,45.7c-0.1,12.7-9,21.4-21.7,21.4
		C265.7,377.7,243.5,377.6,221.4,377.6z M214.5,227.4c6.7,0,13.4,0,20.2,0c8.9,0,17.8,0,26.6,0c3.9,0,6.7-2.7,6.8-6
		c0.1-3.4-2.5-6-6.4-6.5c-0.8-0.1-1.7-0.1-2.5-0.1c-29.9,0-59.7,0-89.6,0c-1.3,0-2.7,0.1-3.9,0.4c-3.2,0.9-5,4.1-4.3,7.3
		c0.6,3,3.2,4.8,7.1,4.8C183.8,227.4,199.1,227.4,214.5,227.4z M201.2,241.9C201.2,241.9,201.2,241.9,201.2,241.9c-6,0-12,0-18,0
		c-5.4,0-10.8,0-16.2,0.1c-3.3,0.1-5.3,2-5.8,5.3c-0.4,3.2,1.4,5.8,4.6,6.7c1.4,0.4,2.8,0.5,4.2,0.5c20.6,0,41.2,0,61.9,0
		c1.4,0,2.9-0.2,4.3-0.5c3.1-0.8,4.5-2.9,4.5-6.1c0-3.9-2.4-6.1-7.2-6.1C222.8,241.9,212,241.9,201.2,241.9z M200.5,281.4
		c11,0,22.1,0,33.1,0c4.7,0,7.2-2.2,7.2-6.1c0-3.9-2.5-6.4-7.1-6.4c-21.8-0.1-43.6-0.1-65.4,0c-4.5,0-7.1,2.6-7.1,6.4
		c0,3.8,2.7,6.1,7.3,6.1C179.2,281.4,189.9,281.4,200.5,281.4z M201.2,295.9C201.2,295.9,201.2,295.9,201.2,295.9
		c-6.2,0-12.5,0-18.7,0c-5.2,0-10.3,0-15.5,0.1c-3.3,0.1-5.3,2.1-5.8,5.3c-0.4,3.2,1.4,5.8,4.6,6.7c1.4,0.4,2.8,0.5,4.2,0.5
		c20.6,0,41.2,0,61.9,0c1.4,0,2.9-0.2,4.3-0.5c3.1-0.8,4.5-2.9,4.5-6.1c0-3.9-2.4-6.1-7.2-6.1C222.8,295.9,212,295.9,201.2,295.9z
		 M241.7,336.5c-6.6,0-13.2,0-19.8,0c-4.2,0-6.6,2.2-6.8,5.8c-0.2,3.9,2.2,6.6,6.4,6.6c13.2,0.1,26.4,0.1,39.5,0
		c4.2,0,6.9-2.8,7-6.3c0-3.6-3-6.2-7.3-6.2C254.4,336.4,248.1,336.5,241.7,336.5z"/>
	<path class="st1" d="M340.8,255.5c-0.1,1.3-0.9,1.9-1.6,2.6c-13.5,13.5-27,26.9-40.4,40.5c-1.8,1.8-3,1.7-4.7,0
		c-5-5.2-10.1-10.2-15.3-15.3c-1.7-1.6-1.7-2.7,0-4.4c13.6-13.5,27.2-27.1,40.7-40.7c1.2-1.2,2.3-2.1,3.9-0.4
		c5.4,5.4,10.9,10.8,16.3,16.2C340.2,254.5,340.5,255.1,340.8,255.5z"/>
	<path class="st1" d="M268.1,167.1c0-5.6,0.1-11.3,0-16.9c-0.1-3,1.2-3.8,3.9-3.5c4.4,0.6,8.4,2.2,11.6,5.3
		c7.1,6.6,14,13.5,20.6,20.6c3,3.3,4.5,7.2,5,11.7c0.4,3-0.8,3.6-3.3,3.6c-4.8,0-9.6,0-14.4,0c-6.4,0-12.7-0.1-19.1,0
		c-3.1,0.1-4.6-0.9-4.4-4.3C268.3,178.1,268.1,172.6,268.1,167.1z"/>
	<path class="st1" d="M364.4,226.9c0.1,3.6-1.1,6.6-3.5,9.2c-2.7,3-5.7,5.8-8.6,8.7c-1.4,1.4-2.5,1.5-3.9,0
		c-5.3-5.4-10.6-10.7-16-16c-1.2-1.2-1.5-2.3-0.1-3.6c3.1-3,6-6.3,9.3-9c4.7-3.8,10-4.5,15.5-1.7C362,217.2,364.4,221.5,364.4,226.9
		z"/>
	<path class="st1" d="M263,309.6c1.6-4.9,3.5-10.6,5.5-16.2c0.6-1.6,1.7-0.9,2.5-0.1c4.3,4.3,8.6,8.7,12.9,13c1.6,1.6,0.8,2.5-0.9,3
		c-5,1.7-10,3.4-15,4.9C265,315.2,262.9,313.4,263,309.6z"/>
</g>
</svg>
