<?xml version="1.0" encoding="utf-8"?>
<!-- Generator: Adobe Illustrator 27.2.0, SVG Export Plug-In . SVG Version: 6.00 Build 0)  -->
<svg version="1.1" id="Capa_1" xmlns="http://www.w3.org/2000/svg" xmlns:xlink="http://www.w3.org/1999/xlink" x="0px" y="0px"
	 viewBox="0 0 512 512" style="enable-background:new 0 0 512 512;" xml:space="preserve">
<style type="text/css">
	.st0{fill:none;stroke:url(#SVGID_1_);stroke-width:40;stroke-miterlimit:10;}
	.st1{fill:#319186;}
</style>
<radialGradient id="SVGID_1_" cx="256" cy="256" r="250.347" gradientTransform="matrix(1 0 0 -1 0 512)" gradientUnits="userSpaceOnUse">
	<stop  offset="0" style="stop-color:#5B813C"/>
	<stop  offset="0.4389" style="stop-color:#5B823E"/>
	<stop  offset="0.597" style="stop-color:#598444"/>
	<stop  offset="0.7097" style="stop-color:#56874F"/>
	<stop  offset="0.8008" style="stop-color:#528C5C"/>
	<stop  offset="0.8789" style="stop-color:#4B926C"/>
	<stop  offset="0.9467" style="stop-color:#40987E"/>
	<stop  offset="1" style="stop-color:#2F9C90"/>
</radialGradient>
<circle class="st0" cx="256" cy="256" r="230.3"/>
<g>
	<path class="st1" d="M231.9,356.8c-19.2,0-38.3,0-57.5,0c-11.9,0-19.2-7.3-19.2-19.2c0-54.5,0-109,0-163.4c0-11.7,7.3-19.1,19-19.1
		c27.9,0,55.7,0,83.6,0c4.1,0,4.1,0,4.1,4.2c0,11.7,0,23.5,0,35.2c0,5.8,1.9,7.7,7.8,7.7c11.8,0,23.7,0.1,35.5-0.1
		c3,0,4,0.9,3.9,3.9c-0.2,6.3-0.1,12.6,0,18.9c0,2.3-0.8,3.9-2.4,5.5c-12.1,11.9-24,24-36.1,35.9c-3.6,3.5-6.2,7.6-7.7,12.4
		c-1.6,5-3.3,9.9-4.9,14.9c-1.9,5.7-0.7,10.8,3.5,15c4.2,4.2,9.3,5,14.8,3.3c6-1.9,11.9-4,17.8-6c4.8-1.7,8.1-5.4,11.7-8.8
		c0.8-0.7,1.5-2.2,2.7-1.6c1,0.5,0.5,1.9,0.5,2.9c0,13-0.1,26,0,39c0.1,11.3-8.6,19.6-19.3,19.4
		C270.4,356.5,251.2,356.8,231.9,356.8z M226,225.6c7.3,0,14.7,0,22,0c6.4,0,12.8,0,19.2,0c3,0,5.3-2.3,5.6-5
		c0.2-2.7-1.8-5.2-4.8-5.7c-1.2-0.2-2.5-0.2-3.8-0.2c-25.6,0-51.1,0-76.7,0c-1.3,0-2.5,0-3.7,0.2c-3,0.6-4.8,3.3-4.3,6.3
		c0.4,2.7,2.8,4.4,6.3,4.4C199.2,225.6,212.6,225.6,226,225.6z M214.5,238.3c-9.5,0-19.1,0-28.6,0c-4.2,0-6.4,1.9-6.5,5.2
		c-0.1,3.4,2.3,5.6,6.4,5.9c0.5,0,1,0,1.6,0c17.9,0,35.8,0,53.7,0c1.6,0,3.2-0.1,4.6-0.7c3.7-1.5,4.4-6.6,1.5-9.1
		c-1.5-1.3-3.3-1.3-5-1.3C232.9,238.3,223.7,238.3,214.5,238.3z M214.2,272.8c9.4,0,18.8,0,28.3,0c1.8,0,3.5-0.2,4.9-1.6
		c1.7-1.7,1.9-3.7,1.2-5.8c-1-2.7-3.3-3.6-6-3.6c-18.9,0-37.9,0-56.8,0c-4.1,0-6.4,2.3-6.3,5.8c0.1,3.2,2.5,5.1,6.5,5.2
		C195.4,272.8,204.8,272.8,214.2,272.8z M214.5,285.5c-9.5,0-19.1,0-28.6,0c-4.2,0-6.4,1.9-6.5,5.2c-0.1,3.4,2.3,5.6,6.4,5.9
		c0.5,0,1,0,1.6,0c17.9,0,35.8,0,53.7,0c1.6,0,3.2-0.1,4.6-0.7c3.7-1.5,4.4-6.6,1.5-9.1c-1.5-1.3-3.3-1.3-5-1.3
		C232.9,285.5,223.7,285.5,214.5,285.5z M249.6,320.9c-5.6,0-11.3,0-16.9,0c-4,0-6.2,2-6.2,5.5c0,3.3,2.2,5.4,6,5.4
		c11.3,0.1,22.6,0.1,33.9,0c3.9,0,6.4-2.4,6.3-5.6c0-3.1-2.6-5.3-6.5-5.3C260.7,320.8,255.2,320.9,249.6,320.9z"/>
	<path class="st1" d="M297.5,289.1c-0.9-0.1-1.4-0.8-2-1.4c-4.5-4.4-8.9-8.9-13.4-13.3c-1.4-1.4-1.5-2.4,0-3.8
		c11.9-11.8,23.7-23.6,35.5-35.5c1.5-1.5,2.4-1.4,3.9,0c4.5,4.6,9,9,13.6,13.5c1.4,1.3,1.4,2.3,0,3.6
		c-11.9,11.9-23.9,23.8-35.8,35.7C298.8,288.4,298.3,289,297.5,289.1z"/>
	<path class="st1" d="M290.9,191.1c-4.9,0-9.8,0-14.8,0c-2.3,0-3.4-0.6-3.4-3.2c0.1-9.9,0.1-19.9,0-29.8c0-2.4,0.9-3.2,3.2-2.9
		c4,0.4,7.5,2,10.4,4.7c6.2,5.8,12.2,11.8,18,18c2.6,2.9,3.9,6.3,4.4,10.2c0.3,2.4-0.6,3.1-2.7,3.1
		C301,191.1,295.9,191.1,290.9,191.1C290.9,191.1,290.9,191.1,290.9,191.1z"/>
	<path class="st1" d="M356.8,225.3c0.1,3.1-1,5.8-3,8c-2.4,2.6-5,5.1-7.5,7.6c-1.2,1.2-2.2,1.3-3.4,0c-4.6-4.7-9.3-9.3-14-14
		c-1.1-1.1-1.3-2-0.1-3.2c2.7-2.6,5.2-5.5,8.1-7.8c4.1-3.3,8.8-3.9,13.5-1.4C354.8,216.7,356.8,220.5,356.8,225.3z"/>
	<path class="st1" d="M272.3,301.7c-2.9,0.1-4.6-1.8-3.9-4.2c1.3-4.7,3-9.4,4.5-14c0.5-1.5,1.5-1.2,2.4-0.3
		c3.8,3.8,7.5,7.6,11.3,11.4c0.7,0.7,1.3,1.7,0,2.2C281.6,298.6,276.7,300.2,272.3,301.7z"/>
</g>
</svg>
