<?xml version="1.0" encoding="utf-8"?>
<!-- Generator: Adobe Illustrator 16.0.0, SVG Export Plug-In . SVG Version: 6.00 Build 0)  -->
<!DOCTYPE svg PUBLIC "-//W3C//DTD SVG 1.1//EN" "http://www.w3.org/Graphics/SVG/1.1/DTD/svg11.dtd">
<svg version="1.1" id="Capa_1" xmlns="http://www.w3.org/2000/svg" xmlns:xlink="http://www.w3.org/1999/xlink" x="0px" y="0px"
	 width="512px" height="512px" viewBox="0 0 512 512" enable-background="new 0 0 512 512" xml:space="preserve">
<radialGradient id="SVGID_1_" cx="256" cy="256.0005" r="250.3469" gradientUnits="userSpaceOnUse">
	<stop  offset="0" style="stop-color:#5B813C"/>
	<stop  offset="0.4389" style="stop-color:#5B823E"/>
	<stop  offset="0.597" style="stop-color:#598444"/>
	<stop  offset="0.7097" style="stop-color:#56874F"/>
	<stop  offset="0.8008" style="stop-color:#528C5C"/>
	<stop  offset="0.8789" style="stop-color:#4B926C"/>
	<stop  offset="0.9467" style="stop-color:#40987E"/>
	<stop  offset="1" style="stop-color:#2F9C90"/>
</radialGradient>
<circle fill="none" stroke="url(#SVGID_1_)" stroke-width="40" stroke-miterlimit="10" cx="256" cy="256" r="230.347"/>
<g>
	<g>
		<path fill="#319186" d="M164.489,246.369v-28.898c2.659,0,4.817-2.158,4.817-4.817s-2.158-4.816-4.817-4.816
			c-13.283,0-24.081,10.808-24.081,24.082v9.632c0,7.966,6.482,14.449,14.449,14.449h9.632c2.659,0,4.817-2.158,4.817-4.816
			C169.306,248.526,167.148,246.369,164.489,246.369z"/>
	</g>
</g>
<g>
	<g>
		<path fill="#319186" d="M347.51,207.837c-2.658,0-4.815,2.158-4.815,4.816s2.157,4.817,4.815,4.817v28.898
			c-2.658,0-4.815,2.158-4.815,4.816s2.157,4.816,4.815,4.816h9.633c7.967,0,14.449-6.483,14.449-14.449v-9.632
			C371.592,218.646,360.794,207.837,347.51,207.837z"/>
	</g>
</g>
<g>
	<g>
		<path fill="#319186" d="M222.286,342.695c-2.659,0-4.816,2.157-4.816,4.816h-28.898c0-2.659-2.158-4.816-4.816-4.816
			s-4.816,2.157-4.816,4.816v9.632c0,7.967,6.482,14.449,14.449,14.449h19.266c7.966,0,14.449-6.482,14.449-14.449v-9.632
			C227.102,344.853,224.944,342.695,222.286,342.695z"/>
	</g>
</g>
<g>
	<g>
		<path fill="#319186" d="M328.245,342.695c-2.659,0-4.817,2.157-4.817,4.816H294.53c0-2.659-2.158-4.816-4.816-4.816
			c-2.659,0-4.815,2.157-4.815,4.816v9.632c0,7.967,6.482,14.449,14.448,14.449h19.266c7.967,0,14.448-6.482,14.448-14.449v-9.632
			C333.061,344.853,330.903,342.695,328.245,342.695z"/>
	</g>
</g>
<g>
	<g>
		<path fill="#319186" d="M328.245,140.409h-144.49c-13.284,0-24.082,10.808-24.082,24.082v163.755
			c0,13.273,10.798,24.081,24.082,24.081h144.49c13.283,0,24.081-10.808,24.081-24.081V164.491
			C352.326,151.217,341.528,140.409,328.245,140.409z M203.021,159.674h105.959c7.967,0,14.449,6.483,14.449,14.449
			s-6.482,14.449-14.449,14.449H203.021c-7.967,0-14.449-6.482-14.449-14.449S195.054,159.674,203.021,159.674z M203.021,323.43
			c-7.967,0-14.449-6.482-14.449-14.449s6.482-14.449,14.449-14.449c7.966,0,14.449,6.482,14.449,14.449
			S210.986,323.43,203.021,323.43z M308.979,323.43c-7.967,0-14.449-6.482-14.449-14.449s6.482-14.449,14.449-14.449
			c7.966,0,14.448,6.482,14.448,14.449S316.945,323.43,308.979,323.43z M333.061,260.817c0,7.967-6.481,14.449-14.448,14.449
			H193.388c-7.967,0-14.449-6.482-14.449-14.449v-48.164c0-7.966,6.482-14.449,14.449-14.449h125.225
			c7.966,0,14.448,6.482,14.448,14.449V260.817L333.061,260.817z"/>
	</g>
</g>
</svg>
