<?xml version="1.0" encoding="utf-8"?>
<!-- Generator: Adobe Illustrator 16.0.0, SVG Export Plug-In . SVG Version: 6.00 Build 0)  -->
<!DOCTYPE svg PUBLIC "-//W3C//DTD SVG 1.1//EN" "http://www.w3.org/Graphics/SVG/1.1/DTD/svg11.dtd">
<svg version="1.1" id="Capa_1" xmlns="http://www.w3.org/2000/svg" xmlns:xlink="http://www.w3.org/1999/xlink" x="0px" y="0px"
	 width="512px" height="512px" viewBox="0 0 512 512" enable-background="new 0 0 512 512" xml:space="preserve">
<radialGradient id="SVGID_1_" cx="256" cy="256.0005" r="250.3469" gradientUnits="userSpaceOnUse">
	<stop  offset="0" style="stop-color:#5B813C"/>
	<stop  offset="0.4389" style="stop-color:#5B823E"/>
	<stop  offset="0.597" style="stop-color:#598444"/>
	<stop  offset="0.7097" style="stop-color:#56874F"/>
	<stop  offset="0.8008" style="stop-color:#528C5C"/>
	<stop  offset="0.8789" style="stop-color:#4B926C"/>
	<stop  offset="0.9467" style="stop-color:#40987E"/>
	<stop  offset="1" style="stop-color:#2F9C90"/>
</radialGradient>
<circle fill="none" stroke="url(#SVGID_1_)" stroke-width="40" stroke-miterlimit="10" cx="256" cy="256" r="230.347"/>
<g>
	<path fill-rule="evenodd" clip-rule="evenodd" fill="#319186" d="M255.823,371.478c-17.568,0.001-35.137,0.012-52.706-0.005
		c-7.5-0.006-10.227-2.689-10.221-10.188c0.019-26.777-0.142-53.558,0.206-80.331c0.242-18.669,17.543-35.731,36.225-36.005
		c17.848-0.262,35.705-0.266,53.552,0.002c18.659,0.279,35.923,17.367,36.159,36.069c0.344,27.199,0.198,54.403,0.181,81.605
		c-0.005,5.988-3.108,8.824-9.413,8.838C291.811,371.502,273.816,371.478,255.823,371.478z"/>
	<path fill-rule="evenodd" clip-rule="evenodd" fill="#319186" d="M256.248,234.915c-26.043,0.17-47.449-21.184-47.516-47.401
		c-0.064-25.368,21.56-46.967,47.157-47.104c25.664-0.137,47.701,21.742,47.513,47.17
		C303.208,213.749,282.293,234.744,256.248,234.915z"/>
	<path fill-rule="evenodd" clip-rule="evenodd" fill="#319186" d="M177.894,370.894c-12.836,0-25.461,0.784-37.941-0.229
		c-11.561-0.938-19.62-10.694-19.819-22.31c-0.265-15.434-0.445-30.887,0.043-46.31c0.636-20.101,18.146-36.616,38.325-36.827
		c7.068-0.074,14.138-0.012,21.62-0.012c-5.07,16.475-2.666,33.071-2.994,49.502c-0.331,16.564-0.074,33.141,0.007,49.711
		C177.146,366.628,177.641,368.834,177.894,370.894z"/>
	<path fill-rule="evenodd" clip-rule="evenodd" fill="#319186" d="M335.086,371.325c0-25.486-0.015-50.668,0.008-75.85
		c0.009-10.027,0.489-20.091-3.54-30.825c10.822,0.594,21.107,0.079,30.944,1.939c16.826,3.181,29.407,19.639,29.561,36.835
		c0.127,14.162,0.044,28.327,0.023,42.49c-0.019,13.98-7.578,23.644-21.257,25.038c-10.797,1.102-21.775,0.425-32.673,0.516
		C336.905,371.479,335.658,371.354,335.086,371.325z"/>
	<path fill-rule="evenodd" clip-rule="evenodd" fill="#319186" d="M173.123,255.155c-19.513-0.009-35.296-15.803-35.29-35.313
		c0.006-19.396,15.952-35.348,35.331-35.346c19.294,0.003,35.365,16.096,35.331,35.381
		C208.461,239.246,192.5,255.163,173.123,255.155z"/>
	<path fill-rule="evenodd" clip-rule="evenodd" fill="#319186" d="M339.026,255.154c-19.382,0.011-35.348-15.902-35.383-35.266
		c-0.036-19.289,16.029-35.387,35.32-35.393c19.385-0.005,35.333,15.941,35.342,35.335
		C374.314,239.342,358.531,255.145,339.026,255.154z"/>
</g>
</svg>
