<?xml version="1.0" encoding="utf-8"?>
<!-- Generator: Adobe Illustrator 27.2.0, SVG Export Plug-In . SVG Version: 6.00 Build 0)  -->
<svg version="1.1" id="Capa_1" xmlns="http://www.w3.org/2000/svg" xmlns:xlink="http://www.w3.org/1999/xlink" x="0px" y="0px"
	 viewBox="0 0 500 500" style="enable-background:new 0 0 500 500;" xml:space="preserve">
<style type="text/css">
	.st0{fill:none;stroke:#4BB8A6;stroke-width:1.374;stroke-miterlimit:10;}
	.st1{fill:#306A74;}
	.st2{fill:none;stroke:#306A74;stroke-width:0.687;stroke-miterlimit:10;}
	.st3{fill:#4BB8A6;}
	.st4{fill:none;stroke:#4BB8A6;stroke-width:0.687;stroke-miterlimit:10;}
	.st5{fill:none;stroke:#306A74;stroke-width:0.172;stroke-miterlimit:10;}
	.st6{fill:none;stroke:#FFFFFF;stroke-width:0.916;stroke-miterlimit:10;}
</style>
<g>
	<path class="st0" d="M175,362.6h13.1c2.6,0,4.7-1.6,4.7-3.6l0.2-116.4V125.1c0-6.9-5.6-12.5-12.5-12.5H27.8
		c-6.9,0-12.4,5.6-12.4,12.4v231.3c0,3.4,2.8,6.2,6.2,6.2h14.6"/>
	<path class="st1" d="M213.2,173c0-5.5,1-10.9,3.1-16.2c2-5.3,5-10.1,8.9-14.5c3.9-4.4,8.7-7.9,14.5-10.4c5.7-2.6,12.2-3.9,19.5-3.9
		c8.6,0,16,1.8,22.2,5.5c6.1,3.7,10.7,8.4,13.6,14.2l-7.5,4.3c-2.1-4-4.7-7.2-7.9-9.5c-3.2-2.3-6.6-4-10.2-5
		c-3.6-1-7.2-1.5-10.7-1.5c-5.8,0-11,1.1-15.4,3.2c-4.5,2.2-8.2,5.1-11.3,8.7c-3,3.6-5.3,7.6-6.9,12.1c-1.5,4.5-2.3,9-2.3,13.6
		c0,5,0.9,9.8,2.7,14.4c1.8,4.6,4.4,8.6,7.6,12.2c3.3,3.5,7.1,6.3,11.5,8.4c4.4,2.1,9.2,3.1,14.4,3.1c3.6,0,7.4-0.6,11.2-1.8
		s7.4-3,10.7-5.5c3.3-2.5,6-5.6,8-9.6l7.9,3.8c-2,4.5-5.1,8.3-9.3,11.5c-4.2,3.1-8.8,5.5-14,7.1c-5.1,1.6-10.2,2.4-15.1,2.4
		c-6.6,0-12.7-1.3-18.3-4c-5.5-2.7-10.3-6.2-14.4-10.7c-4-4.5-7.2-9.5-9.3-15C214.3,184.3,213.2,178.7,213.2,173"/>
	<path class="st2" d="M213.2,173c0-5.5,1-10.9,3.1-16.2c2-5.3,5-10.1,8.9-14.5c3.9-4.4,8.7-7.9,14.5-10.4c5.7-2.6,12.2-3.9,19.5-3.9
		c8.6,0,16,1.8,22.2,5.5c6.1,3.7,10.7,8.4,13.6,14.2l-7.5,4.3c-2.1-4-4.7-7.2-7.9-9.5c-3.2-2.3-6.6-4-10.2-5
		c-3.6-1-7.2-1.5-10.7-1.5c-5.8,0-11,1.1-15.4,3.2c-4.5,2.2-8.2,5.1-11.3,8.7c-3,3.6-5.3,7.6-6.9,12.1c-1.5,4.5-2.3,9-2.3,13.6
		c0,5,0.9,9.8,2.7,14.4c1.8,4.6,4.4,8.6,7.6,12.2c3.3,3.5,7.1,6.3,11.5,8.4c4.4,2.1,9.2,3.1,14.4,3.1c3.6,0,7.4-0.6,11.2-1.8
		s7.4-3,10.7-5.5c3.3-2.5,6-5.6,8-9.6l7.9,3.8c-2,4.5-5.1,8.3-9.3,11.5c-4.2,3.1-8.8,5.5-14,7.1c-5.1,1.6-10.2,2.4-15.1,2.4
		c-6.6,0-12.7-1.3-18.3-4c-5.5-2.7-10.3-6.2-14.4-10.7c-4-4.5-7.2-9.5-9.3-15C214.3,184.3,213.2,178.7,213.2,173z"/>
	<path class="st1" d="M311.3,126h9.3v12.7h-9.3V126z M311.3,152.6h9.3V219h-9.3V152.6z"/>
	<path class="st2" d="M311.3,126h9.3v12.7h-9.3V126z M311.3,152.6h9.3V219h-9.3V152.6z"/>
	<path class="st1" d="M375.1,216.3c-0.7,0.3-1.9,0.7-3.4,1.4c-1.5,0.7-3.4,1.3-5.6,1.8c-2.2,0.5-4.5,0.8-7.1,0.8
		c-2.6,0-5.1-0.5-7.4-1.4c-2.3-0.9-4.2-2.4-5.5-4.3c-1.4-1.9-2-4.3-2-7.1v-47.7h-9.8v-6.9h9.8v-22.4h9.3v22.4h16.4v6.9h-16.4v45.3
		c0.2,2.4,1.1,4.2,2.8,5.4c1.7,1.2,3.6,1.8,5.8,1.8c2.5,0,4.9-0.4,7-1.2c2.1-0.8,3.4-1.4,3.8-1.7L375.1,216.3z"/>
	<path class="st2" d="M375.1,216.3c-0.7,0.3-1.9,0.7-3.4,1.4c-1.5,0.7-3.4,1.3-5.6,1.8c-2.2,0.5-4.5,0.8-7.1,0.8
		c-2.6,0-5.1-0.5-7.4-1.4c-2.3-0.9-4.2-2.4-5.5-4.3c-1.4-1.9-2-4.3-2-7.1v-47.7h-9.8v-6.9h9.8v-22.4h9.3v22.4h16.4v6.9h-16.4v45.3
		c0.2,2.4,1.1,4.2,2.8,5.4c1.7,1.2,3.6,1.8,5.8,1.8c2.5,0,4.9-0.4,7-1.2c2.1-0.8,3.4-1.4,3.8-1.7L375.1,216.3z"/>
	<path class="st1" d="M390.8,239.4c1.3,0.1,2.5,0.1,3.7,0.2c1.2,0,2,0,2.6-0.2c1.1-0.2,2.1-0.8,3.1-1.8c1-1,2.2-3,3.5-5.8
		c1.4-2.9,3.3-7.1,5.7-12.7l-31-66.2h9.8l26,57.3l24-57.3h9.3l-36.8,85.4c-0.6,1.6-1.6,3.1-2.9,4.5c-1.3,1.4-2.8,2.5-4.7,3.3
		c-1.9,0.8-4.2,1.2-6.9,1.3c-0.8,0.1-1.7,0.1-2.5,0.1c-0.9,0-1.9-0.2-3.1-0.3V239.4z"/>
	<path class="st2" d="M390.8,239.4c1.3,0.1,2.5,0.1,3.7,0.2c1.2,0,2,0,2.6-0.2c1.1-0.2,2.1-0.8,3.1-1.8c1-1,2.2-3,3.5-5.8
		c1.4-2.9,3.3-7.1,5.7-12.7l-31-66.2h9.8l26,57.3l24-57.3h9.3l-36.8,85.4c-0.6,1.6-1.6,3.1-2.9,4.5c-1.3,1.4-2.8,2.5-4.7,3.3
		c-1.9,0.8-4.2,1.2-6.9,1.3c-0.8,0.1-1.7,0.1-2.5,0.1c-0.9,0-1.9-0.2-3.1-0.3V239.4z"/>
	<path class="st3" d="M248,237.7h8l40.2,90.5h-10.1l-12.1-28.3h-44.3l-12.1,28.3h-10.2L248,237.7z M271.1,292.9L252,248.1
		l-19.1,44.7H271.1z"/>
	<path class="st4" d="M248,237.7h8l40.2,90.5h-10.1l-12.1-28.3h-44.3l-12.1,28.3h-10.2L248,237.7z M271.1,292.9L252,248.1
		l-19.1,44.7H271.1z"/>
	<path class="st3" d="M344.6,329.4c-5.9,0-11.2-1.4-15.9-4.3c-4.7-2.9-8.4-6.4-11.1-10.6v40.8h-9.3V262h8.3V275
		c2.8-4.1,6.6-7.5,11.3-10.1s9.8-3.9,15.1-3.9c4.9,0,9.4,1,13.5,2.9c4.1,1.9,7.6,4.5,10.6,7.7c3,3.2,5.3,6.9,7,11
		c1.7,4.1,2.5,8.3,2.5,12.7c0,6.2-1.3,11.8-4,17c-2.7,5.2-6.4,9.4-11.3,12.5C356.7,327.9,351,329.4,344.6,329.4 M342,321.8
		c3.9,0,7.4-0.7,10.5-2.2c3.1-1.5,5.7-3.5,8-6c2.2-2.5,3.9-5.4,5.1-8.5c1.2-3.2,1.8-6.4,1.8-9.8c0-3.5-0.7-6.9-2-10.1
		c-1.3-3.2-3.2-6-5.7-8.5c-2.5-2.4-5.3-4.4-8.5-5.8c-3.2-1.4-6.6-2.2-10.4-2.2c-2.4,0-4.8,0.4-7.4,1.3c-2.5,0.8-5,2-7.3,3.6
		c-2.3,1.6-4.3,3.3-5.8,5.2c-1.5,1.9-2.5,4-2.9,6.2v20.3c1.5,3.1,3.4,5.9,5.9,8.4c2.5,2.5,5.3,4.5,8.5,5.9
		C335.2,321.1,338.5,321.8,342,321.8"/>
	<path class="st4" d="M344.6,329.4c-5.9,0-11.2-1.4-15.9-4.3c-4.7-2.9-8.4-6.4-11.1-10.6v40.8h-9.3V262h8.3V275
		c2.8-4.1,6.6-7.5,11.3-10.1s9.8-3.9,15.1-3.9c4.9,0,9.4,1,13.5,2.9c4.1,1.9,7.6,4.5,10.6,7.7c3,3.2,5.3,6.9,7,11
		c1.7,4.1,2.5,8.3,2.5,12.7c0,6.2-1.3,11.8-4,17c-2.7,5.2-6.4,9.4-11.3,12.5C356.7,327.9,351,329.4,344.6,329.4z M342,321.8
		c3.9,0,7.4-0.7,10.5-2.2c3.1-1.5,5.7-3.5,8-6c2.2-2.5,3.9-5.4,5.1-8.5c1.2-3.2,1.8-6.4,1.8-9.8c0-3.5-0.7-6.9-2-10.1
		c-1.3-3.2-3.2-6-5.7-8.5c-2.5-2.4-5.3-4.4-8.5-5.8c-3.2-1.4-6.6-2.2-10.4-2.2c-2.4,0-4.8,0.4-7.4,1.3c-2.5,0.8-5,2-7.3,3.6
		c-2.3,1.6-4.3,3.3-5.8,5.2c-1.5,1.9-2.5,4-2.9,6.2v20.3c1.5,3.1,3.4,5.9,5.9,8.4c2.5,2.5,5.3,4.5,8.5,5.9
		C335.2,321.1,338.5,321.8,342,321.8z"/>
	<path class="st3" d="M428.7,329.4c-5.9,0-11.2-1.4-15.9-4.3c-4.7-2.9-8.4-6.4-11.1-10.6v40.8h-9.3V262h8.3V275
		c2.8-4.1,6.6-7.5,11.3-10.1c4.7-2.6,9.8-3.9,15.1-3.9c4.9,0,9.4,1,13.5,2.9c4.1,1.9,7.6,4.5,10.6,7.7c3,3.2,5.3,6.9,7,11
		c1.7,4.1,2.5,8.3,2.5,12.7c0,6.2-1.3,11.8-4,17c-2.7,5.2-6.4,9.4-11.3,12.5C440.8,327.9,435.2,329.4,428.7,329.4 M426.1,321.8
		c3.9,0,7.4-0.7,10.5-2.2c3.1-1.5,5.7-3.5,8-6c2.2-2.5,3.9-5.4,5.1-8.5c1.2-3.2,1.8-6.4,1.8-9.8c0-3.5-0.7-6.9-2-10.1
		c-1.3-3.2-3.2-6-5.7-8.5c-2.5-2.4-5.3-4.4-8.5-5.8c-3.2-1.4-6.6-2.2-10.4-2.2c-2.4,0-4.8,0.4-7.4,1.3c-2.5,0.8-5,2-7.3,3.6
		c-2.3,1.6-4.3,3.3-5.8,5.2c-1.5,1.9-2.5,4-2.9,6.2v20.3c1.5,3.1,3.4,5.9,5.9,8.4c2.5,2.5,5.3,4.5,8.5,5.9
		C419.3,321.1,422.7,321.8,426.1,321.8"/>
	<path class="st4" d="M428.7,329.4c-5.9,0-11.2-1.4-15.9-4.3c-4.7-2.9-8.4-6.4-11.1-10.6v40.8h-9.3V262h8.3V275
		c2.8-4.1,6.6-7.5,11.3-10.1c4.7-2.6,9.8-3.9,15.1-3.9c4.9,0,9.4,1,13.5,2.9c4.1,1.9,7.6,4.5,10.6,7.7c3,3.2,5.3,6.9,7,11
		c1.7,4.1,2.5,8.3,2.5,12.7c0,6.2-1.3,11.8-4,17c-2.7,5.2-6.4,9.4-11.3,12.5C440.8,327.9,435.2,329.4,428.7,329.4z M426.1,321.8
		c3.9,0,7.4-0.7,10.5-2.2c3.1-1.5,5.7-3.5,8-6c2.2-2.5,3.9-5.4,5.1-8.5c1.2-3.2,1.8-6.4,1.8-9.8c0-3.5-0.7-6.9-2-10.1
		c-1.3-3.2-3.2-6-5.7-8.5c-2.5-2.4-5.3-4.4-8.5-5.8c-3.2-1.4-6.6-2.2-10.4-2.2c-2.4,0-4.8,0.4-7.4,1.3c-2.5,0.8-5,2-7.3,3.6
		c-2.3,1.6-4.3,3.3-5.8,5.2c-1.5,1.9-2.5,4-2.9,6.2v20.3c1.5,3.1,3.4,5.9,5.9,8.4c2.5,2.5,5.3,4.5,8.5,5.9
		C419.3,321.1,422.7,321.8,426.1,321.8z"/>
	<path class="st1" d="M131.4,133.7H77c-0.8,0-1.4-0.6-1.4-1.4v-3.7c0-0.8,0.6-1.4,1.4-1.4h54.4c0.8,0,1.4,0.6,1.4,1.4v3.7
		C132.8,133.1,132.2,133.7,131.4,133.7"/>
	<path class="st5" d="M131.4,133.7H77c-0.8,0-1.4-0.6-1.4-1.4v-3.7c0-0.8,0.6-1.4,1.4-1.4h54.4c0.8,0,1.4,0.6,1.4,1.4v3.7
		C132.8,133.1,132.2,133.7,131.4,133.7z"/>
	<path class="st1" d="M175,363.8H36.2v-210c0-4,3.3-7.3,7.3-7.3h124.2c4,0,7.3,3.3,7.3,7.3V363.8z"/>
	<path class="st6" d="M107.7,352.2c-2.7-0.6-5.2-1.5-7.4-3.2c-5-3.9-6.7-10.7-4.2-16.5c2.4-5.6,8.8-9.3,14.9-8.7
		c6.7,0.7,12,5.5,13.1,11.8c1.3,7.7-3.8,14.8-11.7,16.4c-0.2,0-0.3,0.2-0.5,0.3H107.7z"/>
	<path class="st6" d="M50.9,269.3v-61.8l33.3-26.4V237c0,1.1-0.7,2-1.6,2h-3.7c-0.9,0-1.6-0.9-1.6-1.9L76.2,158l30.5,7.5v65.1
		c0,1,0.6,1.7,1.4,1.7h2.6c0.8,0,1.4-0.8,1.4-1.7v-52.1v-0.4L141,167v64.3c0,1-0.6,1.8-1.4,1.8h-6.4c-0.8,0-1.5-0.8-1.4-1.8l0.4-33
		l26.8,10.8V257l-0.2,0.2c-14.2-10.5-30.3-16.1-49.4-16.5c-3,0.4-8.3,0.9-13.6,2c-19.9,4.4-36.6,16.1-50.8,33.5
		c-1.4,1.7-1.5,3.6-0.1,5.5c2.7,3.7,5.5,7.4,8.3,11c1.5,1.9,3,1.8,4.6,0c0.4-0.4,0.7-0.9,1.1-1.3c22.5-25.1,48.2-32.7,77.3-21.4
		c11.1,4.4,16.3,7.8,25.1,17.8c0,0,0.1,0.1,0.1,0.1c0.3,0.3,0.5,0.5,0.7,0.8c0.9,1,1,2.7,0.1,3.7l-8,9.9c-0.8,1-2.1,1-2.9,0
		c0,0,0,0,0,0c-12.8-13.6-22.6-18-40-18.5c-1.9,0.2-4.2,0.2-6.5,0.6c-13.9,2.3-25.8,9.7-35.9,21.6c-2.1,2.5-2.2,4-0.1,6.7
		c2.4,3.2,4.8,6.4,7.3,9.6c2.3,3,3.1,3,5.6,0.3c12.3-13.2,26.3-17.4,42.2-12.5c6.9,2.2,11.9,7.5,18.5,12.9"/>
</g>
</svg>
