<?xml version="1.0" encoding="UTF-8"?><svg id="Capa_1" xmlns="http://www.w3.org/2000/svg" width="446.49" height="251.89" viewBox="0 0 446.49 251.89"><defs><style>.cls-1{stroke-width:.17px;}.cls-1,.cls-2,.cls-3,.cls-4,.cls-5{stroke-miterlimit:10;}.cls-1,.cls-4,.cls-5{fill:none;}.cls-1,.cls-5{stroke:#306a74;}.cls-6,.cls-2,.cls-3{fill:#fff;}.cls-2{stroke-width:.69px;}.cls-2,.cls-3,.cls-4{stroke:#fff;}.cls-4{stroke-width:1.37px;}.cls-5{stroke-width:.92px;}</style></defs><path class="cls-4" d="m160.29,250.69h13.1c2.6,0,4.7-1.6,4.7-3.6l.2-116.4V13.19c0-6.9-5.6-12.5-12.5-12.5H13.09C6.19.69.69,6.29.69,13.09v231.3c0,3.4,2.8,6.2,6.2,6.2h14.6"/><path class="cls-3" d="m198.49,61.09c0-5.5,1-10.9,3.1-16.2,2-5.3,5-10.1,8.9-14.5s8.7-7.9,14.5-10.4c5.7-2.6,12.2-3.9,19.5-3.9,8.6,0,16,1.8,22.2,5.5,6.1,3.7,10.7,8.4,13.6,14.2l-7.5,4.3c-2.1-4-4.7-7.2-7.9-9.5-3.2-2.3-6.6-4-10.2-5s-7.2-1.5-10.7-1.5c-5.8,0-11,1.1-15.4,3.2-4.5,2.2-8.2,5.1-11.3,8.7-3,3.6-5.3,7.6-6.9,12.1-1.5,4.5-2.3,9-2.3,13.6,0,5,.9,9.8,2.7,14.4,1.8,4.6,4.4,8.6,7.6,12.2,3.3,3.5,7.1,6.3,11.5,8.4,4.4,2.1,9.2,3.1,14.4,3.1,3.6,0,7.4-.6,11.2-1.8s7.4-3,10.7-5.5c3.3-2.5,6-5.6,8-9.6l7.9,3.8c-2,4.5-5.1,8.3-9.3,11.5-4.2,3.1-8.8,5.5-14,7.1-5.1,1.6-10.2,2.4-15.1,2.4-6.6,0-12.7-1.3-18.3-4-5.5-2.7-10.3-6.2-14.4-10.7-4-4.5-7.2-9.5-9.3-15-2.1-5.6-3.2-11.2-3.2-16.9"/><path class="cls-2" d="m198.49,61.09c0-5.5,1-10.9,3.1-16.2,2-5.3,5-10.1,8.9-14.5s8.7-7.9,14.5-10.4c5.7-2.6,12.2-3.9,19.5-3.9,8.6,0,16,1.8,22.2,5.5,6.1,3.7,10.7,8.4,13.6,14.2l-7.5,4.3c-2.1-4-4.7-7.2-7.9-9.5-3.2-2.3-6.6-4-10.2-5s-7.2-1.5-10.7-1.5c-5.8,0-11,1.1-15.4,3.2-4.5,2.2-8.2,5.1-11.3,8.7-3,3.6-5.3,7.6-6.9,12.1-1.5,4.5-2.3,9-2.3,13.6,0,5,.9,9.8,2.7,14.4,1.8,4.6,4.4,8.6,7.6,12.2,3.3,3.5,7.1,6.3,11.5,8.4,4.4,2.1,9.2,3.1,14.4,3.1,3.6,0,7.4-.6,11.2-1.8s7.4-3,10.7-5.5c3.3-2.5,6-5.6,8-9.6l7.9,3.8c-2,4.5-5.1,8.3-9.3,11.5-4.2,3.1-8.8,5.5-14,7.1-5.1,1.6-10.2,2.4-15.1,2.4-6.6,0-12.7-1.3-18.3-4-5.5-2.7-10.3-6.2-14.4-10.7-4-4.5-7.2-9.5-9.3-15-2.1-5.6-3.2-11.2-3.2-16.9Z"/><path class="cls-3" d="m296.59,14.09h9.3v12.7h-9.3v-12.7Zm0,26.6h9.3v66.4h-9.3V40.69Z"/><path class="cls-2" d="m296.59,14.09h9.3v12.7h-9.3v-12.7Zm0,26.6h9.3v66.4h-9.3V40.69Z"/><path class="cls-3" d="m360.39,104.39c-.7.3-1.9.7-3.4,1.4s-3.4,1.3-5.6,1.8-4.5.8-7.1.8-5.1-.5-7.4-1.4-4.2-2.4-5.5-4.3c-1.4-1.9-2-4.3-2-7.1v-47.7h-9.8v-6.9h9.8v-22.4h9.3v22.4h16.4v6.9h-16.4v45.3c.2,2.4,1.1,4.2,2.8,5.4,1.7,1.2,3.6,1.8,5.8,1.8,2.5,0,4.9-.4,7-1.2s3.4-1.4,3.8-1.7l2.3,6.9Z"/><path class="cls-2" d="m360.39,104.39c-.7.3-1.9.7-3.4,1.4s-3.4,1.3-5.6,1.8-4.5.8-7.1.8-5.1-.5-7.4-1.4-4.2-2.4-5.5-4.3c-1.4-1.9-2-4.3-2-7.1v-47.7h-9.8v-6.9h9.8v-22.4h9.3v22.4h16.4v6.9h-16.4v45.3c.2,2.4,1.1,4.2,2.8,5.4,1.7,1.2,3.6,1.8,5.8,1.8,2.5,0,4.9-.4,7-1.2s3.4-1.4,3.8-1.7l2.3,6.9Z"/><path class="cls-3" d="m376.09,127.49c1.3.1,2.5.1,3.7.2,1.2,0,2,0,2.6-.2,1.1-.2,2.1-.8,3.1-1.8s2.2-3,3.5-5.8c1.4-2.9,3.3-7.1,5.7-12.7l-31-66.2h9.8l26,57.3,24-57.3h9.3l-36.8,85.4c-.6,1.6-1.6,3.1-2.9,4.5s-2.8,2.5-4.7,3.3c-1.9.8-4.2,1.2-6.9,1.3-.8.1-1.7.1-2.5.1-.9,0-1.9-.2-3.1-.3v-7.8h.2Z"/><path class="cls-2" d="m376.09,127.49c1.3.1,2.5.1,3.7.2,1.2,0,2,0,2.6-.2,1.1-.2,2.1-.8,3.1-1.8s2.2-3,3.5-5.8c1.4-2.9,3.3-7.1,5.7-12.7l-31-66.2h9.8l26,57.3,24-57.3h9.3l-36.8,85.4c-.6,1.6-1.6,3.1-2.9,4.5s-2.8,2.5-4.7,3.3c-1.9.8-4.2,1.2-6.9,1.3-.8.1-1.7.1-2.5.1-.9,0-1.9-.2-3.1-.3v-7.8h.2Z"/><path class="cls-3" d="m233.29,125.79h8l40.2,90.5h-10.1l-12.1-28.3h-44.3l-12.1,28.3h-10.2l40.6-90.5Zm23.1,55.2l-19.1-44.8-19.1,44.7h38.2v.1Z"/><path class="cls-2" d="m233.29,125.79h8l40.2,90.5h-10.1l-12.1-28.3h-44.3l-12.1,28.3h-10.2l40.6-90.5Zm23.1,55.2l-19.1-44.8-19.1,44.7h38.2v.1Z"/><path class="cls-3" d="m329.89,217.49c-5.9,0-11.2-1.4-15.9-4.3-4.7-2.9-8.4-6.4-11.1-10.6v40.8h-9.3v-93.3h8.3v13c2.8-4.1,6.6-7.5,11.3-10.1s9.8-3.9,15.1-3.9c4.9,0,9.4,1,13.5,2.9s7.6,4.5,10.6,7.7,5.3,6.9,7,11,2.5,8.3,2.5,12.7c0,6.2-1.3,11.8-4,17s-6.4,9.4-11.3,12.5c-4.6,3.1-10.3,4.6-16.7,4.6m-2.6-7.6c3.9,0,7.4-.7,10.5-2.2s5.7-3.5,8-6c2.2-2.5,3.9-5.4,5.1-8.5,1.2-3.2,1.8-6.4,1.8-9.8s-.7-6.9-2-10.1-3.2-6-5.7-8.5c-2.5-2.4-5.3-4.4-8.5-5.8s-6.6-2.2-10.4-2.2c-2.4,0-4.8.4-7.4,1.3-2.5.8-5,2-7.3,3.6s-4.3,3.3-5.8,5.2c-1.5,1.9-2.5,4-2.9,6.2v20.3c1.5,3.1,3.4,5.9,5.9,8.4s5.3,4.5,8.5,5.9c3.4,1.5,6.7,2.2,10.2,2.2"/><path class="cls-2" d="m329.89,217.49c-5.9,0-11.2-1.4-15.9-4.3-4.7-2.9-8.4-6.4-11.1-10.6v40.8h-9.3v-93.3h8.3v13c2.8-4.1,6.6-7.5,11.3-10.1s9.8-3.9,15.1-3.9c4.9,0,9.4,1,13.5,2.9s7.6,4.5,10.6,7.7,5.3,6.9,7,11,2.5,8.3,2.5,12.7c0,6.2-1.3,11.8-4,17s-6.4,9.4-11.3,12.5c-4.6,3.1-10.3,4.6-16.7,4.6Zm-2.6-7.6c3.9,0,7.4-.7,10.5-2.2s5.7-3.5,8-6c2.2-2.5,3.9-5.4,5.1-8.5,1.2-3.2,1.8-6.4,1.8-9.8s-.7-6.9-2-10.1-3.2-6-5.7-8.5c-2.5-2.4-5.3-4.4-8.5-5.8s-6.6-2.2-10.4-2.2c-2.4,0-4.8.4-7.4,1.3-2.5.8-5,2-7.3,3.6s-4.3,3.3-5.8,5.2c-1.5,1.9-2.5,4-2.9,6.2v20.3c1.5,3.1,3.4,5.9,5.9,8.4s5.3,4.5,8.5,5.9c3.4,1.5,6.7,2.2,10.2,2.2Z"/><path class="cls-3" d="m413.99,217.49c-5.9,0-11.2-1.4-15.9-4.3-4.7-2.9-8.4-6.4-11.1-10.6v40.8h-9.3v-93.3h8.3v13c2.8-4.1,6.6-7.5,11.3-10.1,4.7-2.6,9.8-3.9,15.1-3.9,4.9,0,9.4,1,13.5,2.9s7.6,4.5,10.6,7.7,5.3,6.9,7,11,2.5,8.3,2.5,12.7c0,6.2-1.3,11.8-4,17s-6.4,9.4-11.3,12.5c-4.6,3.1-10.2,4.6-16.7,4.6m-2.6-7.6c3.9,0,7.4-.7,10.5-2.2s5.7-3.5,8-6c2.2-2.5,3.9-5.4,5.1-8.5,1.2-3.2,1.8-6.4,1.8-9.8s-.7-6.9-2-10.1-3.2-6-5.7-8.5c-2.5-2.4-5.3-4.4-8.5-5.8s-6.6-2.2-10.4-2.2c-2.4,0-4.8.4-7.4,1.3-2.5.8-5,2-7.3,3.6s-4.3,3.3-5.8,5.2c-1.5,1.9-2.5,4-2.9,6.2v20.3c1.5,3.1,3.4,5.9,5.9,8.4s5.3,4.5,8.5,5.9c3.4,1.5,6.8,2.2,10.2,2.2"/><path class="cls-2" d="m413.99,217.49c-5.9,0-11.2-1.4-15.9-4.3-4.7-2.9-8.4-6.4-11.1-10.6v40.8h-9.3v-93.3h8.3v13c2.8-4.1,6.6-7.5,11.3-10.1,4.7-2.6,9.8-3.9,15.1-3.9,4.9,0,9.4,1,13.5,2.9s7.6,4.5,10.6,7.7,5.3,6.9,7,11,2.5,8.3,2.5,12.7c0,6.2-1.3,11.8-4,17s-6.4,9.4-11.3,12.5c-4.6,3.1-10.2,4.6-16.7,4.6Zm-2.6-7.6c3.9,0,7.4-.7,10.5-2.2s5.7-3.5,8-6c2.2-2.5,3.9-5.4,5.1-8.5,1.2-3.2,1.8-6.4,1.8-9.8s-.7-6.9-2-10.1-3.2-6-5.7-8.5c-2.5-2.4-5.3-4.4-8.5-5.8s-6.6-2.2-10.4-2.2c-2.4,0-4.8.4-7.4,1.3-2.5.8-5,2-7.3,3.6s-4.3,3.3-5.8,5.2c-1.5,1.9-2.5,4-2.9,6.2v20.3c1.5,3.1,3.4,5.9,5.9,8.4s5.3,4.5,8.5,5.9c3.4,1.5,6.8,2.2,10.2,2.2Z"/><path class="cls-6" d="m116.69,21.79h-54.4c-.8,0-1.4-.6-1.4-1.4v-3.7c0-.8.6-1.4,1.4-1.4h54.4c.8,0,1.4.6,1.4,1.4v3.7c0,.8-.6,1.4-1.4,1.4"/><path class="cls-1" d="m116.69,21.79h-54.4c-.8,0-1.4-.6-1.4-1.4v-3.7c0-.8.6-1.4,1.4-1.4h54.4c.8,0,1.4.6,1.4,1.4v3.7c0,.8-.6,1.4-1.4,1.4Z"/><path class="cls-6" d="m160.29,251.89H21.49V41.89c0-4,3.3-7.3,7.3-7.3h124.2c4,0,7.3,3.3,7.3,7.3v210Z"/><path class="cls-5" d="m92.99,240.29c-2.7-.6-5.2-1.5-7.4-3.2-5-3.9-6.7-10.7-4.2-16.5,2.4-5.6,8.8-9.3,14.9-8.7,6.7.7,12,5.5,13.1,11.8,1.3,7.7-3.8,14.8-11.7,16.4-.2,0-.3.2-.5.3h-4.2v-.1Z"/><path class="cls-5" d="m36.19,157.39v-61.8l33.3-26.4v55.9c0,1.1-.7,2-1.6,2h-3.7c-.9,0-1.6-.9-1.6-1.9l-1.1-79.1,30.5,7.5v65.1c0,1,.6,1.7,1.4,1.7h2.6c.8,0,1.4-.8,1.4-1.7v-52.5l28.9-11.1v64.3c0,1-.6,1.8-1.4,1.8h-6.4c-.8,0-1.5-.8-1.4-1.8l.4-33,26.8,10.8v47.9l-.2.2c-14.2-10.5-30.3-16.1-49.4-16.5-3,.4-8.3.9-13.6,2-19.9,4.4-36.6,16.1-50.8,33.5-1.4,1.7-1.5,3.6-.1,5.5,2.7,3.7,5.5,7.4,8.3,11,1.5,1.9,3,1.8,4.6,0,.4-.4.7-.9,1.1-1.3,22.5-25.1,48.2-32.7,77.3-21.4,11.1,4.4,16.3,7.8,25.1,17.8l.1.1c.3.3.5.5.7.8.9,1,1,2.7.1,3.7l-8,9.9c-.8,1-2.1,1-2.9,0h0c-12.8-13.6-22.6-18-40-18.5-1.9.2-4.2.2-6.5.6-13.9,2.3-25.8,9.7-35.9,21.6-2.1,2.5-2.2,4-.1,6.7,2.4,3.2,4.8,6.4,7.3,9.6,2.3,3,3.1,3,5.6.3,12.3-13.2,26.3-17.4,42.2-12.5,6.9,2.2,11.9,7.5,18.5,12.9"/></svg>