<?xml version="1.0" encoding="UTF-8"?><svg id="Capa_1" xmlns="http://www.w3.org/2000/svg" width="510.19" height="207.03" xmlns:xlink="http://www.w3.org/1999/xlink" viewBox="0 0 510.19 207.03"><defs><style>.cls-1{fill:url(#Degradado_sin_nombre_36-2);}.cls-2{clip-path:url(#clippath-11);}.cls-3{fill:url(#Degradado_sin_nombre_36-18);}.cls-4{clip-path:url(#clippath-16);}.cls-5{fill:url(#Degradado_sin_nombre_36-7);}.cls-6{fill:url(#Degradado_sin_nombre_36-4);}.cls-7{fill:url(#Degradado_sin_nombre_36-13);}.cls-8{fill:#bd9649;}.cls-9{clip-path:url(#clippath-2);}.cls-10{clip-path:url(#clippath-13);}.cls-11{fill:url(#Degradado_sin_nombre_36-17);}.cls-12{clip-path:url(#clippath-15);}.cls-13{clip-path:url(#clippath-6);}.cls-14{fill:url(#Degradado_sin_nombre_36-19);}.cls-15{fill:url(#Degradado_sin_nombre_36-16);}.cls-16{clip-path:url(#clippath-7);}.cls-17{fill:url(#Degradado_sin_nombre_36-15);}.cls-18{clip-path:url(#clippath-1);}.cls-19{clip-path:url(#clippath-4);}.cls-20{fill:url(#Degradado_sin_nombre_36-5);}.cls-21{fill:#872443;}.cls-22{clip-path:url(#clippath-12);}.cls-23{fill:url(#Degradado_sin_nombre_36-3);}.cls-24{fill:url(#Degradado_sin_nombre_36-8);}.cls-25{fill:url(#Degradado_sin_nombre_36-6);}.cls-26{clip-path:url(#clippath-9);}.cls-27{fill:url(#Degradado_sin_nombre_36-10);}.cls-28{fill:#c0a167;}.cls-29{clip-path:url(#clippath);}.cls-30{fill:none;}.cls-31{clip-path:url(#clippath-19);}.cls-32{fill:url(#Degradado_sin_nombre_36-14);}.cls-33{clip-path:url(#clippath-3);}.cls-34{clip-path:url(#clippath-8);}.cls-35{clip-path:url(#clippath-18);}.cls-36{clip-path:url(#clippath-14);}.cls-37{fill:url(#Degradado_sin_nombre_36-12);}.cls-38{clip-path:url(#clippath-17);}.cls-39{clip-path:url(#clippath-5);}.cls-40{fill:url(#Degradado_sin_nombre_36-11);}.cls-41{fill:url(#Degradado_sin_nombre_36);}.cls-42{fill:#a18660;}.cls-43{fill:url(#Degradado_sin_nombre_36-9);}.cls-44{clip-path:url(#clippath-10);}</style><clipPath id="clippath"><path class="cls-30" d="m231.63,14.88c-.04.44-.4.78-.84.78h-11.02c-3.54,0-6.42,2.87-6.42,6.42v25.04c0,.61.49,1.1,1.1,1.1h4.8c.53,0,.96-.42.98-.94.39-9.66,5.71-18.04,13.52-22.7,4.15-2.47,8.99-3.89,14.17-3.89s10.03,1.42,14.17,3.89c7.82,4.66,13.14,13.05,13.52,22.72.02.51.44.92.96.92h4.87c.58,0,1.06-.47,1.06-1.06v-25.3c0-3.42-2.78-6.2-6.2-6.2h-11.19c-.46,0-.84-.36-.89-.82-.78-8.32-7.78-14.84-16.3-14.84s-15.55,6.54-16.31,14.88"/></clipPath><linearGradient id="Degradado_sin_nombre_36" x1="-463.74" y1="1507.2" x2="-463.23" y2="1507.2" gradientTransform="translate(62823.24 203509.69) scale(135.01 -135.01)" gradientUnits="userSpaceOnUse"><stop offset="0" stop-color="#872443"/><stop offset="1" stop-color="#b92855"/></linearGradient><clipPath id="clippath-1"><path class="cls-30" d="m239.13,50.43c0,4.81,3.9,8.71,8.71,8.71s8.71-3.9,8.71-8.71-3.9-8.71-8.71-8.71-8.71,3.9-8.71,8.71"/></clipPath><linearGradient id="Degradado_sin_nombre_36-2" x1="-463.71" y1="1504.01" x2="-463.2" y2="1504.01" gradientTransform="translate(16006.32 51190.58) scale(34 -34)" xlink:href="#Degradado_sin_nombre_36"/><clipPath id="clippath-2"><path class="cls-30" d="m240.63,30.21c-7.4,2.39-12.78,9.36-12.78,17.52v6.93c0,.21-.17.38-.38.38H2.22C.99,55.04,0,56.04,0,57.26s.95,2.13,2.13,2.13h227.37c1.22,0,2.22-.99,2.22-2.22v-7.37c0-9.27,7.3-16.86,16.23-16.86s16.23,7.58,16.23,16.86v7.54c0,1.13.92,2.05,2.05,2.05h231.93c1.3,0,2.36-1.06,2.36-2.36,0-1.1-.89-1.99-1.99-1.99h-230.2c-.15,0-.28-.12-.28-.28v-7.03c0-8.07-5.27-14.98-12.54-17.44-2.3-1.05-4.85-1.63-7.52-1.63s-5.09.55-7.34,1.55"/></clipPath><linearGradient id="Degradado_sin_nombre_36-3" x1="-463.76" y1="1508.35" x2="-463.24" y2="1508.35" gradientTransform="translate(453081.54 1473674.55) scale(976.98 -976.98)" xlink:href="#Degradado_sin_nombre_36"/><clipPath id="clippath-3"><path class="cls-30" d="m22.68,99.48v-16.35c0-.77.62-1.39,1.39-1.39h6.63c2.18,0,4.01,0,5.5.11,5.27.46,8.36,3.55,8.36,9.51s-3.09,9.05-8.36,9.51c-1.49.11-3.32.11-5.5.11h-6.52c-.83,0-1.5-.67-1.5-1.5M5.38,65.7c-1.84,0-3.33,1.49-3.33,3.33v72.7c0,1.67,1.35,3.02,3.02,3.02h14.72c1.59,0,2.88-1.29,2.88-2.88v-24.85h9.16c4.93,0,8.13-.11,12.37-.57,11.46-1.37,21.88-9.51,21.88-25.09s-10.43-23.72-21.88-25.09c-4.24-.46-7.45-.57-12.37-.57H5.38Z"/></clipPath><linearGradient id="Degradado_sin_nombre_36-4" x1="-462.12" y1="1507.71" x2="-461.6" y2="1507.71" gradientTransform="translate(57771.78 188586.11) scale(125.01 -125.01)" xlink:href="#Degradado_sin_nombre_36"/><clipPath id="clippath-4"><path class="cls-30" d="m267.67,65.7c-3.17,0-5.73,2.57-5.73,5.74v26.57h-28.09v-26.59c0-3.16-2.56-5.72-5.72-5.72h-12.6v79.05h18.32v-30.7h28.09v30.7h18.32v-79.05h-12.58Z"/></clipPath><linearGradient id="Degradado_sin_nombre_36-5" x1="-463.74" y1="1507.72" x2="-463.23" y2="1507.72" gradientTransform="translate(58806.17 190594.25) scale(126.34 -126.34)" xlink:href="#Degradado_sin_nombre_36"/><clipPath id="clippath-5"><path class="cls-30" d="m336.87,65.7c-.76,0-1.37.61-1.37,1.37v46.75c0,2.18,0,3.32-.1,4.7-.51,8.25-4.68,12.72-12.72,12.72s-12.21-4.47-12.72-12.72c-.1-1.38-.1-2.52-.1-4.7v-46.75c0-.75-.61-1.37-1.37-1.37h-15.59c-.76,0-1.37.61-1.37,1.37v42.97c0,4.01,0,6.42.31,11.11.81,13.29,9.16,25.2,30.84,25.2s30.02-11.91,30.84-25.2c.31-4.7.31-7.1.31-11.11v-42.97c0-.75-.61-1.37-1.37-1.37h-15.58Z"/></clipPath><linearGradient id="Degradado_sin_nombre_36-6" x1="-464.33" y1="1507.69" x2="-463.82" y2="1507.69" gradientTransform="translate(56742.46 183404.13) scale(121.58 -121.58)" xlink:href="#Degradado_sin_nombre_36"/><clipPath id="clippath-6"><path class="cls-30" d="m391.14,64.94c-19.41,0-29.36,14.22-29.11,26.38v26.38c1.13,16.6,11.71,25.66,29.11,26.38h11.64c19.41,0,29.11-11.51,29.11-29.1h-21.87v2.01c0,6.13-5.01,11.14-11.14,11.14h-4.18c-6.13,0-11.14-5.01-11.14-11.14v-25.15c0-6.13,5.01-11.14,11.14-11.14h4.18c6.13,0,11.14,5.01,11.14,11.14v3.45h21.87c0-17.59-9.7-30.34-29.11-30.34h-11.64Z"/></clipPath><linearGradient id="Degradado_sin_nombre_36-7" x1="-464.78" y1="1507.77" x2="-464.27" y2="1507.77" gradientTransform="translate(63750.54 205737.86) scale(136.38 -136.38)" xlink:href="#Degradado_sin_nombre_36"/><clipPath id="clippath-7"><path class="cls-30" d="m166.82,64.94c-19.41,0-29.36,14.22-29.11,26.38v26.38c1.13,16.6,11.71,25.66,29.11,26.38h11.64c19.41,0,29.11-11.51,29.11-29.1h-21.87v2.01c0,6.13-5.01,11.14-11.14,11.14h-4.18c-6.13,0-11.14-5.01-11.14-11.14v-25.15c0-6.13,5.01-11.14,11.14-11.14h4.18c6.13,0,11.14,5.01,11.14,11.14v3.45h21.87c0-17.59-9.7-30.34-29.11-30.34h-11.64Z"/></clipPath><linearGradient id="Degradado_sin_nombre_36-8" x1="-463.22" y1="1507.77" x2="-462.71" y2="1507.77" gradientTransform="translate(63312.68 205737.86) scale(136.38 -136.38)" xlink:href="#Degradado_sin_nombre_36"/><clipPath id="clippath-8"><path class="cls-30" d="m459.35,65.06c-.98,0-1.86.63-2.18,1.56l-26.16,76.29c-.24.71.28,1.45,1.04,1.45h16.36c1.2,0,2.28-.74,2.72-1.86l6.7-17.15s8.95,4.66,20.12,5.02c.45.01.77-.42.64-.85l-4.2-13.61c-.19-.61-.71-1.05-1.34-1.13-2.72-.37-10.01-1.56-11.44-3.9l7.15-23.12c.13-.41.71-.43.86-.02l19.94,56.22c.3.85,1.1,1.41,2,1.41h17.34c.76,0,1.3-.75,1.05-1.47l-26.57-77.4c-.3-.86-1.11-1.44-2.02-1.44h-22.01Z"/></clipPath><linearGradient id="Degradado_sin_nombre_36-9" x1="-465.12" y1="1507.86" x2="-464.61" y2="1507.86" gradientTransform="translate(72203.08 232781.97) scale(154.31 -154.31)" xlink:href="#Degradado_sin_nombre_36"/><clipPath id="clippath-9"><path class="cls-30" d="m86.87,65.06c-.91,0-1.72.58-2.02,1.44l-26.57,77.4c-.25.72.29,1.47,1.05,1.47h17.34c.9,0,1.7-.57,2-1.41l19.94-56.22c.14-.41.73-.4.86.02l7.15,23.12c-1.43,2.34-8.71,3.53-11.44,3.9-.63.09-1.15.53-1.34,1.13l-4.2,13.61c-.13.43.19.86.64.85,11.16-.36,20.12-5.02,20.12-5.02l6.7,17.15c.44,1.12,1.52,1.86,2.72,1.86h16.36c.75,0,1.28-.74,1.04-1.45l-26.16-76.29c-.32-.93-1.19-1.56-2.18-1.56h-22.01Z"/></clipPath><linearGradient id="Degradado_sin_nombre_36-10" x1="-462.82" y1="1507.86" x2="-462.31" y2="1507.86" gradientTransform="translate(71475.51 232781.97) scale(154.31 -154.31)" xlink:href="#Degradado_sin_nombre_36"/><clipPath id="clippath-10"><path class="cls-30" d="m231.63,14.88c-.04.44-.4.78-.84.78h-11.02c-3.54,0-6.42,2.87-6.42,6.42v25.04c0,.61.49,1.1,1.1,1.1h4.8c.53,0,.96-.42.98-.94.39-9.66,5.71-18.04,13.52-22.7,4.15-2.47,8.99-3.89,14.17-3.89s10.03,1.42,14.17,3.89c7.82,4.66,13.14,13.05,13.52,22.72.02.51.44.92.96.92h4.87c.58,0,1.06-.47,1.06-1.06v-25.3c0-3.42-2.78-6.2-6.2-6.2h-11.19c-.46,0-.84-.36-.89-.82-.78-8.32-7.78-14.84-16.3-14.84s-15.55,6.54-16.31,14.88"/></clipPath><clipPath id="clippath-11"><path class="cls-30" d="m239.13,50.43c0,4.81,3.9,8.71,8.71,8.71s8.71-3.9,8.71-8.71-3.9-8.71-8.71-8.71-8.71,3.9-8.71,8.71"/></clipPath><linearGradient id="Degradado_sin_nombre_36-11" x1="-463.71" y1="1504.01" x2="-463.2" y2="1504.01" gradientTransform="translate(16006.32 51190.58) scale(34 -34)" xlink:href="#Degradado_sin_nombre_36"/><clipPath id="clippath-12"><path class="cls-30" d="m240.63,30.21c-7.4,2.39-12.78,9.36-12.78,17.52v6.93c0,.21-.17.38-.38.38H2.22C.99,55.04,0,56.04,0,57.26s.95,2.13,2.13,2.13h227.37c1.22,0,2.22-.99,2.22-2.22v-7.37c0-9.27,7.3-16.86,16.23-16.86s16.23,7.58,16.23,16.86v7.54c0,1.13.92,2.05,2.05,2.05h231.93c1.3,0,2.36-1.06,2.36-2.36,0-1.1-.89-1.99-1.99-1.99h-230.2c-.15,0-.28-.12-.28-.28v-7.03c0-8.07-5.27-14.98-12.54-17.44-2.3-1.05-4.85-1.63-7.52-1.63s-5.09.55-7.34,1.55"/></clipPath><linearGradient id="Degradado_sin_nombre_36-12" x1="-463.76" y1="1508.35" x2="-463.24" y2="1508.35" gradientTransform="translate(453081.54 1473674.55) scale(976.98 -976.98)" xlink:href="#Degradado_sin_nombre_36"/><clipPath id="clippath-13"><path class="cls-30" d="m22.68,99.48v-16.35c0-.77.62-1.39,1.39-1.39h6.63c2.18,0,4.01,0,5.5.11,5.27.46,8.36,3.55,8.36,9.51s-3.09,9.05-8.36,9.51c-1.49.11-3.32.11-5.5.11h-6.52c-.83,0-1.5-.67-1.5-1.5M5.38,65.7c-1.84,0-3.33,1.49-3.33,3.33v72.7c0,1.67,1.35,3.02,3.02,3.02h14.72c1.59,0,2.88-1.29,2.88-2.88v-24.85h9.16c4.93,0,8.13-.11,12.37-.57,11.46-1.37,21.88-9.51,21.88-25.09s-10.43-23.72-21.88-25.09c-4.24-.46-7.45-.57-12.37-.57H5.38Z"/></clipPath><linearGradient id="Degradado_sin_nombre_36-13" x1="-462.12" y1="1507.71" x2="-461.6" y2="1507.71" gradientTransform="translate(57771.78 188586.11) scale(125.01 -125.01)" xlink:href="#Degradado_sin_nombre_36"/><clipPath id="clippath-14"><path class="cls-30" d="m267.67,65.7c-3.17,0-5.73,2.57-5.73,5.74v26.57h-28.09v-26.59c0-3.16-2.56-5.72-5.72-5.72h-12.6v79.05h18.32v-30.7h28.09v30.7h18.32v-79.05h-12.58Z"/></clipPath><linearGradient id="Degradado_sin_nombre_36-14" x1="-463.74" y1="1507.72" x2="-463.23" y2="1507.72" gradientTransform="translate(58806.17 190594.25) scale(126.34 -126.34)" xlink:href="#Degradado_sin_nombre_36"/><clipPath id="clippath-15"><path class="cls-30" d="m336.87,65.7c-.76,0-1.37.61-1.37,1.37v46.75c0,2.18,0,3.32-.1,4.7-.51,8.25-4.68,12.72-12.72,12.72s-12.21-4.47-12.72-12.72c-.1-1.38-.1-2.52-.1-4.7v-46.75c0-.75-.61-1.37-1.37-1.37h-15.59c-.76,0-1.37.61-1.37,1.37v42.97c0,4.01,0,6.42.31,11.11.81,13.29,9.16,25.2,30.84,25.2s30.02-11.91,30.84-25.2c.31-4.7.31-7.1.31-11.11v-42.97c0-.75-.61-1.37-1.37-1.37h-15.58Z"/></clipPath><linearGradient id="Degradado_sin_nombre_36-15" x1="-464.33" y1="1507.69" x2="-463.82" y2="1507.69" gradientTransform="translate(56742.46 183404.13) scale(121.58 -121.58)" xlink:href="#Degradado_sin_nombre_36"/><clipPath id="clippath-16"><path class="cls-30" d="m391.14,64.94c-19.41,0-29.36,14.22-29.11,26.38v26.38c1.13,16.6,11.71,25.66,29.11,26.38h11.64c19.41,0,29.11-11.51,29.11-29.1h-21.87v2.01c0,6.13-5.01,11.14-11.14,11.14h-4.18c-6.13,0-11.14-5.01-11.14-11.14v-25.15c0-6.13,5.01-11.14,11.14-11.14h4.18c6.13,0,11.14,5.01,11.14,11.14v3.45h21.87c0-17.59-9.7-30.34-29.11-30.34h-11.64Z"/></clipPath><linearGradient id="Degradado_sin_nombre_36-16" x1="-464.78" y1="1507.77" x2="-464.27" y2="1507.77" gradientTransform="translate(63750.54 205737.86) scale(136.38 -136.38)" xlink:href="#Degradado_sin_nombre_36"/><clipPath id="clippath-17"><path class="cls-30" d="m166.82,64.94c-19.41,0-29.36,14.22-29.11,26.38v26.38c1.13,16.6,11.71,25.66,29.11,26.38h11.64c19.41,0,29.11-11.51,29.11-29.1h-21.87v2.01c0,6.13-5.01,11.14-11.14,11.14h-4.18c-6.13,0-11.14-5.01-11.14-11.14v-25.15c0-6.13,5.01-11.14,11.14-11.14h4.18c6.13,0,11.14,5.01,11.14,11.14v3.45h21.87c0-17.59-9.7-30.34-29.11-30.34h-11.64Z"/></clipPath><linearGradient id="Degradado_sin_nombre_36-17" x1="-463.22" y1="1507.77" x2="-462.71" y2="1507.77" gradientTransform="translate(63312.68 205737.86) scale(136.38 -136.38)" xlink:href="#Degradado_sin_nombre_36"/><clipPath id="clippath-18"><path class="cls-30" d="m459.35,65.06c-.98,0-1.86.63-2.18,1.56l-26.16,76.29c-.24.71.28,1.45,1.04,1.45h16.36c1.2,0,2.28-.74,2.72-1.86l6.7-17.15s8.95,4.66,20.12,5.02c.45.01.77-.42.64-.85l-4.2-13.61c-.19-.61-.71-1.05-1.34-1.13-2.72-.37-10.01-1.56-11.44-3.9l7.15-23.12c.13-.41.71-.43.86-.02l19.94,56.22c.3.85,1.1,1.41,2,1.41h17.34c.76,0,1.3-.75,1.05-1.47l-26.57-77.4c-.3-.86-1.11-1.44-2.02-1.44h-22.01Z"/></clipPath><linearGradient id="Degradado_sin_nombre_36-18" x1="-465.12" y1="1507.86" x2="-464.61" y2="1507.86" gradientTransform="translate(72203.08 232781.97) scale(154.31 -154.31)" xlink:href="#Degradado_sin_nombre_36"/><clipPath id="clippath-19"><path class="cls-30" d="m86.87,65.06c-.91,0-1.72.58-2.02,1.44l-26.57,77.4c-.25.72.29,1.47,1.05,1.47h17.34c.9,0,1.7-.57,2-1.41l19.94-56.22c.14-.41.73-.4.86.02l7.15,23.12c-1.43,2.34-8.71,3.53-11.44,3.9-.63.09-1.15.53-1.34,1.13l-4.2,13.61c-.13.43.19.86.64.85,11.16-.36,20.12-5.02,20.12-5.02l6.7,17.15c.44,1.12,1.52,1.86,2.72,1.86h16.36c.75,0,1.28-.74,1.04-1.45l-26.16-76.29c-.32-.93-1.19-1.56-2.18-1.56h-22.01Z"/></clipPath><linearGradient id="Degradado_sin_nombre_36-19" x1="-462.82" y1="1507.86" x2="-462.31" y2="1507.86" gradientTransform="translate(71475.51 232781.97) scale(154.31 -154.31)" xlink:href="#Degradado_sin_nombre_36"/></defs><g class="cls-29"><rect class="cls-41" x="213.35" width="69.17" height="48.22"/></g><g class="cls-18"><rect class="cls-1" x="239.13" y="41.72" width="17.42" height="17.42"/></g><g class="cls-9"><rect class="cls-23" y="28.66" width="500.51" height="30.74"/></g><g class="cls-33"><rect class="cls-6" x="2.05" y="65.7" width="64.04" height="79.05"/></g><g class="cls-19"><rect class="cls-20" x="215.53" y="65.7" width="64.72" height="79.05"/></g><g class="cls-39"><rect class="cls-25" x="291.54" y="65.7" width="62.28" height="80.65"/></g><g class="cls-13"><rect class="cls-5" x="361.78" y="64.94" width="70.12" height="79.14"/></g><g class="cls-16"><rect class="cls-24" x="137.46" y="64.94" width="70.12" height="79.14"/></g><g class="cls-34"><rect class="cls-43" x="430.76" y="65.06" width="79.42" height="80.31"/></g><g class="cls-26"><rect class="cls-27" x="58.03" y="65.06" width="79.42" height="80.31"/></g><path class="cls-28" d="m19.71,168.99c-.38,1.73-1.1,3.06-2.14,3.93-1.05.87-2.34,1.31-3.86,1.31-1.25,0-2.43-.33-3.5-.97-1.06-.64-1.86-1.62-2.36-2.91-.52-1.32-.78-2.9-.78-4.68,0-1.38.22-2.73.66-4.03.43-1.27,1.18-2.29,2.23-3.04,1.05-.75,2.39-1.13,3.97-1.13,1.36,0,2.51.34,3.4,1.01.89.67,1.59,1.77,2.07,3.27l.08.25,3.35-.79-.08-.29c-.59-2.03-1.66-3.64-3.16-4.76s-3.39-1.7-5.59-1.7c-1.93,0-3.73.45-5.34,1.33-1.62.89-2.89,2.2-3.76,3.91-.87,1.7-1.31,3.71-1.31,5.98,0,2.08.39,4.05,1.16,5.87.78,1.83,1.92,3.25,3.42,4.22,1.49.97,3.44,1.46,5.8,1.46s4.26-.64,5.85-1.9c1.59-1.26,2.71-3.11,3.31-5.49l.07-.28-3.41-.86-.06.29Z"/><path class="cls-28" d="m32.02,154.82l-8.46,22.04h3.63l2.36-6.5h8.58l2.5,6.5h3.86l-9.02-22.04h-3.45Zm5.01,12.65h-6.45l2.21-5.91c.37-1.01.68-2.04.93-3.07.31.98.72,2.12,1.21,3.43l2.09,5.56Z"/><path class="cls-28" d="m60.51,156.08c-.75-.52-1.68-.87-2.76-1.05-.77-.14-1.88-.21-3.32-.21h-8.38v22.04h3.41v-8.73h5.22c3.11,0,5.29-.67,6.51-1.99,1.21-1.31,1.82-2.94,1.82-4.83,0-1.1-.23-2.13-.68-3.05-.45-.93-1.07-1.66-1.82-2.18m-5.79,8.95h-5.26v-7.1h5.21c1.26,0,2.12.06,2.57.18.68.19,1.22.57,1.64,1.16.42.59.63,1.31.63,2.14,0,1.16-.35,2.04-1.06,2.67s-1.97.95-3.72.95"/><rect class="cls-28" x="66.53" y="154.82" width="3.41" height="22.04"/><polygon class="cls-28" points="90.36 154.82 72.77 154.82 72.77 157.93 79.84 157.93 79.84 176.86 83.25 176.86 83.25 157.93 90.36 157.93 90.36 154.82"/><path class="cls-28" d="m96.45,154.82l-8.46,22.04h3.63l2.36-6.5h8.58l2.5,6.5h3.86l-9.02-22.04h-3.45Zm5.01,12.65h-6.45l2.21-5.91c.37-1.01.68-2.04.93-3.07.31.98.72,2.12,1.21,3.43l2.09,5.56Z"/><polygon class="cls-28" points="113.77 154.82 110.36 154.82 110.36 176.86 124.34 176.86 124.34 173.75 113.77 173.75 113.77 154.82"/><path class="cls-28" d="m149.21,156.73c-.9-.77-2-1.31-3.27-1.6-.9-.21-2.2-.32-3.89-.32h-7.68v22.04h8.03c1.32,0,2.5-.13,3.52-.37,1.03-.25,1.92-.63,2.65-1.12.73-.49,1.41-1.17,2.03-2.02.61-.85,1.12-1.93,1.51-3.21.39-1.28.58-2.77.58-4.42,0-1.94-.29-3.69-.86-5.2-.58-1.53-1.46-2.8-2.62-3.78m-11.42,1.19h4.22c1.65,0,2.85.14,3.57.42.99.38,1.85,1.16,2.55,2.31.71,1.15,1.06,2.85,1.06,5.03,0,1.58-.18,2.94-.55,4.05-.36,1.09-.87,1.97-1.5,2.6-.44.44-1.05.8-1.81,1.04-.77.25-1.86.38-3.24.38h-4.3v-15.83Z"/><polygon class="cls-28" points="159.5 167.02 171.38 167.02 171.38 163.93 159.5 163.93 159.5 157.93 172.19 157.93 172.19 154.82 156.09 154.82 156.09 176.86 172.68 176.86 172.68 173.75 159.5 173.75 159.5 167.02"/><polygon class="cls-28" points="187.66 154.82 184.25 154.82 184.25 176.86 198.24 176.86 198.24 173.75 187.66 173.75 187.66 154.82"/><path class="cls-28" d="m207.02,154.82l-8.46,22.04h3.63l2.36-6.5h8.58l2.5,6.5h3.86l-9.02-22.04h-3.45Zm5.01,12.65h-6.45l2.21-5.91c.37-1.01.68-2.04.93-3.07.31.98.72,2.12,1.21,3.43l2.09,5.56Z"/><polygon class="cls-28" points="225.58 157.93 232.65 157.93 232.65 176.86 236.06 176.86 236.06 157.93 243.16 157.93 243.16 154.82 225.58 154.82 225.58 157.93"/><path class="cls-28" d="m273.14,154.82l-8.24,21.45-3.64-5.7c-.75-1.16-1.56-2.14-2.41-2.91-.26-.24-.61-.48-1.02-.72,1.7-.35,3.01-1,3.89-1.94,1.03-1.09,1.56-2.46,1.56-4.05,0-1.23-.31-2.37-.93-3.39-.63-1.03-1.48-1.75-2.53-2.16-1.03-.4-2.53-.6-4.47-.6h-9.8v22.04h3.41v-9.53h3.01c.71,0,1.22.03,1.51.09.41.1.81.28,1.21.53.4.25.86.72,1.37,1.37.53.67,1.21,1.66,2.03,2.93l2.93,4.6h7.28l2.36-6.5h8.58l2.5,6.5h3.86l-9.02-22.04h-3.45Zm-13.88,7.91c-.35.54-.85.93-1.53,1.17-.7.26-1.69.39-2.95.39h-5.82v-6.53h6.51c1.51,0,2.62.31,3.3.91.68.6,1.01,1.35,1.01,2.29,0,.63-.18,1.23-.53,1.77m18.89,4.74h-6.45l2.21-5.91c.37-1.01.68-2.04.93-3.07.31.97.72,2.12,1.21,3.43l2.09,5.56Z"/><polygon class="cls-28" points="301.33 171.02 290.58 154.95 290.49 154.82 287.14 154.82 287.14 176.86 290.43 176.86 290.43 160.65 301.27 176.86 304.62 176.86 304.62 154.82 301.33 154.82 301.33 171.02"/><path class="cls-28" d="m321.69,165.01c-.88-.4-2.46-.86-4.81-1.39-2.8-.63-3.8-1.15-4.16-1.47-.5-.45-.74-1-.74-1.69,0-.8.35-1.48,1.07-2.05.73-.59,1.93-.88,3.58-.88s2.77.33,3.56.97c.78.64,1.25,1.61,1.38,2.88l.03.28,3.27-.25v-.28c-.06-1.31-.43-2.49-1.11-3.53-.68-1.04-1.67-1.84-2.93-2.37-1.24-.52-2.7-.79-4.32-.79-1.48,0-2.84.25-4.05.75-1.23.51-2.18,1.27-2.82,2.25-.64.98-.97,2.06-.97,3.19,0,1.04.27,1.99.8,2.82.53.84,1.34,1.54,2.4,2.1.82.44,2.2.88,4.21,1.37,1.95.47,3.22.82,3.79,1.04.84.32,1.45.72,1.81,1.17.35.46.53.98.53,1.59s-.18,1.15-.55,1.67c-.37.51-.95.93-1.72,1.23-.79.31-1.72.46-2.77.46-1.18,0-2.25-.21-3.18-.61-.92-.4-1.61-.93-2.04-1.57-.44-.65-.72-1.49-.84-2.52l-.03-.28-3.22.28v.27c.05,1.48.46,2.83,1.23,4.01.78,1.18,1.86,2.08,3.22,2.66,1.34.58,3.02.87,5,.87,1.57,0,3-.29,4.26-.87,1.27-.58,2.26-1.41,2.94-2.46.68-1.05,1.03-2.19,1.03-3.38s-.32-2.29-.94-3.21c-.62-.92-1.59-1.69-2.89-2.29"/><polygon class="cls-28" points="328.98 176.86 332.39 176.86 332.39 167.11 342.46 167.11 342.46 164 332.39 164 332.39 157.93 344.03 157.93 344.03 154.82 328.98 154.82 328.98 176.86"/><path class="cls-28" d="m362.36,155.9c-1.63-.97-3.48-1.46-5.51-1.46-3.09,0-5.66,1.05-7.62,3.11-1.96,2.06-2.95,4.94-2.95,8.57,0,1.92.42,3.76,1.26,5.48.84,1.73,2.09,3.12,3.72,4.12,1.63,1,3.5,1.51,5.57,1.51,1.9,0,3.7-.46,5.35-1.36,1.65-.91,2.95-2.26,3.85-4.02.9-1.75,1.35-3.76,1.35-5.97s-.43-4.16-1.28-5.89c-.86-1.74-2.12-3.11-3.75-4.08m1.53,9.95c0,2.68-.67,4.76-2,6.21-1.32,1.43-3.02,2.16-5.07,2.16s-3.7-.72-5.03-2.14c-1.33-1.43-2.01-3.42-2.01-5.92,0-3.13.7-5.39,2.09-6.71,1.39-1.32,3.07-1.99,4.99-1.99,1.35,0,2.59.35,3.68,1.03,1.08.68,1.92,1.66,2.48,2.91.57,1.26.86,2.76.86,4.46"/><path class="cls-28" d="m383.83,167.66c-.26-.24-.61-.48-1.02-.72,1.7-.35,3.01-1,3.89-1.94,1.03-1.09,1.56-2.46,1.56-4.05,0-1.23-.32-2.37-.94-3.39-.63-1.03-1.48-1.75-2.53-2.16-1.03-.4-2.53-.6-4.47-.6h-9.8v22.04h3.41v-9.53h3.01c.71,0,1.22.03,1.51.09.41.1.81.28,1.21.53.39.25.86.72,1.37,1.37.53.67,1.21,1.66,2.03,2.93l2.93,4.6h4.25l-4.02-6.28c-.75-1.16-1.56-2.14-2.41-2.91m.4-4.93c-.35.54-.85.93-1.53,1.17-.7.26-1.69.39-2.95.39h-5.82v-6.53h6.51c1.51,0,2.62.31,3.3.91.68.6,1.01,1.35,1.01,2.29,0,.63-.18,1.23-.53,1.77"/><path class="cls-28" d="m403.59,169.95c-.35,1.03-.64,1.89-.87,2.59-.2-.62-.45-1.4-.76-2.32l-5.15-15.4h-4.77v22.04h3.31v-16.83l5.72,16.83h2.97l5.75-16.56v16.56h3.31v-22.04h-4.31l-5.21,15.13Z"/><path class="cls-28" d="m423.09,154.82l-8.46,22.04h3.63l2.36-6.5h8.58l2.5,6.5h3.86l-9.02-22.04h-3.45Zm5.01,12.65h-6.45l2.21-5.91c.37-1.01.68-2.04.93-3.07.31.97.72,2.12,1.21,3.43l2.09,5.56Z"/><path class="cls-28" d="m452.45,168.99c-.38,1.73-1.1,3.06-2.14,3.93-1.05.87-2.34,1.31-3.86,1.31-1.25,0-2.43-.33-3.5-.97-1.06-.64-1.86-1.62-2.36-2.91-.52-1.32-.78-2.89-.78-4.68,0-1.38.22-2.73.66-4.03.43-1.27,1.18-2.29,2.23-3.04,1.05-.75,2.39-1.13,3.97-1.13,1.36,0,2.51.34,3.4,1.01.89.67,1.59,1.77,2.07,3.27l.08.25,3.35-.79-.08-.29c-.59-2.03-1.66-3.64-3.16-4.76-1.51-1.13-3.39-1.7-5.59-1.7-1.93,0-3.73.45-5.34,1.33-1.62.89-2.89,2.2-3.76,3.91-.87,1.7-1.31,3.71-1.31,5.98,0,2.08.39,4.05,1.16,5.87.78,1.83,1.93,3.25,3.42,4.22,1.49.97,3.44,1.46,5.8,1.46s4.26-.64,5.85-1.9c1.59-1.26,2.71-3.11,3.31-5.49l.07-.28-3.41-.86-.06.29Z"/><rect class="cls-28" x="459.26" y="154.82" width="3.41" height="22.04"/><polygon class="cls-28" points="480.99 149.4 476.76 149.4 474.55 154.07 477.32 154.07 480.99 149.4"/><path class="cls-28" d="m482.32,155.9c-1.63-.97-3.48-1.46-5.51-1.46-3.09,0-5.66,1.05-7.62,3.11-1.96,2.06-2.95,4.94-2.95,8.57,0,1.92.42,3.76,1.26,5.48.84,1.73,2.09,3.12,3.72,4.12,1.63,1,3.5,1.51,5.57,1.51,1.9,0,3.7-.46,5.35-1.36,1.65-.91,2.95-2.26,3.85-4.02.9-1.75,1.35-3.76,1.35-5.97s-.43-4.16-1.28-5.89c-.86-1.74-2.12-3.11-3.75-4.08m1.53,9.95c0,2.68-.67,4.76-2,6.21-1.32,1.43-3.02,2.16-5.07,2.16s-3.7-.72-5.03-2.14c-1.33-1.43-2.01-3.42-2.01-5.92,0-3.13.7-5.39,2.09-6.71,1.39-1.32,3.07-1.99,4.99-1.99,1.35,0,2.59.35,3.68,1.03,1.08.68,1.92,1.66,2.48,2.91.57,1.26.86,2.76.86,4.46"/><polygon class="cls-28" points="504.6 154.82 504.6 171.02 493.85 154.95 493.76 154.82 490.41 154.82 490.41 176.86 493.7 176.86 493.7 160.65 504.54 176.86 507.89 176.86 507.89 154.82 504.6 154.82"/><path class="cls-21" d="m175.81,194.63c.55-1.05.83-2.16.83-3.3,0-1.98-.66-3.67-1.98-5.03-1.31-1.35-2.93-2.04-4.81-2.04-2.06,0-3.78.71-5.09,2.11-1.31,1.4-1.97,3.22-1.97,5.44v.61h2.64v-.29c0-.07,0-.18-.02-.31,0-.12-.01-.21-.01-.29,0-1.45.39-2.63,1.17-3.49.78-.87,1.8-1.29,3.11-1.29s2.3.41,3.13,1.27c.82.84,1.23,1.91,1.23,3.16,0,.82-.23,1.63-.68,2.4-.47.79-1.45,1.9-2.92,3.29l-7.65,7.26v2.47h13.8v-2.64h-10.01l6.65-6.14c1.17-1.09,2.04-2.17,2.58-3.2"/><path class="cls-21" d="m186.53,184.26c-1.26,0-2.43.26-3.49.78-1.06.52-1.96,1.26-2.69,2.22-.47.63-.81,1.32-1.01,2.05-.2.73-.3,1.77-.3,3.19v6.33c0,1.26.1,2.3.3,3.11.2.82.54,1.53.99,2.11.76.97,1.67,1.72,2.72,2.23,1.05.51,2.22.77,3.48.77s2.49-.27,3.58-.81c1.09-.54,2-1.31,2.7-2.29.43-.6.74-1.31.94-2.1.19-.78.29-1.76.29-2.93v-6.53c0-2.51-.68-4.52-2.01-5.95-1.34-1.44-3.19-2.17-5.5-2.17m4.84,7.72v7.35c0,1.66-.43,2.97-1.29,3.89-.85.91-2.04,1.37-3.55,1.37s-2.72-.47-3.57-1.39c-.85-.93-1.29-2.25-1.29-3.94v-7.2c0-1.7.43-3.03,1.29-3.96.85-.92,2.05-1.39,3.57-1.39s2.69.46,3.55,1.38c.86.92,1.29,2.23,1.29,3.88"/><path class="cls-21" d="m209.7,194.63c.55-1.05.83-2.16.83-3.3,0-1.98-.66-3.67-1.98-5.03-1.31-1.35-2.93-2.04-4.81-2.04-2.06,0-3.78.71-5.09,2.11-1.31,1.4-1.97,3.22-1.97,5.44v.61h2.64v-.29c0-.07,0-.18-.02-.31,0-.12-.01-.21-.01-.29,0-1.45.39-2.63,1.17-3.49.78-.87,1.8-1.29,3.11-1.29s2.3.41,3.13,1.27c.82.84,1.23,1.91,1.23,3.16,0,.82-.23,1.63-.68,2.4-.47.79-1.45,1.9-2.92,3.29l-7.65,7.26v2.47h13.8v-2.64h-10.01l6.65-6.14c1.17-1.09,2.04-2.17,2.58-3.2"/><path class="cls-21" d="m225.58,184.71h-2.83l-9.75,15.48-.04.07v2.23h9.99v4.11h2.64v-4.11h2.31v-2.43h-2.31v-15.35Zm-9.63,15.35l7.13-11.58-.08,11.58h-7.05Z"/><path class="cls-21" d="m277.44,194.63c.55-1.05.83-2.16.83-3.3,0-1.98-.67-3.67-1.98-5.02-1.31-1.36-2.93-2.04-4.81-2.04-2.06,0-3.78.71-5.09,2.11-1.31,1.4-1.97,3.22-1.97,5.44v.61h2.64v-.29c0-.07,0-.18-.02-.31,0-.12-.01-.21-.01-.29,0-1.45.39-2.63,1.17-3.49.78-.87,1.8-1.29,3.11-1.29s2.3.41,3.13,1.27c.82.84,1.23,1.91,1.23,3.16,0,.82-.23,1.63-.68,2.4-.47.79-1.45,1.9-2.92,3.29l-7.65,7.26v2.47h13.79v-2.64h-10.01l6.65-6.14c1.17-1.09,2.04-2.17,2.58-3.2"/><path class="cls-21" d="m288.16,184.26c-1.26,0-2.43.26-3.49.78-1.06.52-1.96,1.26-2.69,2.22-.47.63-.81,1.32-1.01,2.05-.2.73-.3,1.77-.3,3.19v6.33c0,1.26.1,2.3.3,3.11.2.82.54,1.53.99,2.11.76.97,1.67,1.72,2.72,2.23s2.22.77,3.48.77,2.49-.27,3.58-.81c1.09-.54,2-1.31,2.7-2.29.43-.6.74-1.31.94-2.1.19-.78.29-1.76.29-2.93v-6.53c0-2.51-.68-4.52-2.01-5.95-1.34-1.44-3.19-2.17-5.5-2.17m4.84,7.72v7.35c0,1.66-.43,2.97-1.29,3.89-.85.91-2.04,1.37-3.55,1.37s-2.72-.47-3.57-1.39c-.85-.93-1.29-2.25-1.29-3.94v-7.2c0-1.69.43-3.03,1.29-3.96.85-.92,2.05-1.39,3.57-1.39s2.69.46,3.55,1.38c.86.92,1.29,2.23,1.29,3.88"/><path class="cls-21" d="m311.32,194.63c.55-1.05.83-2.16.83-3.3,0-1.98-.67-3.67-1.98-5.02-1.31-1.36-2.93-2.04-4.81-2.04-2.06,0-3.78.71-5.09,2.11-1.31,1.4-1.97,3.22-1.97,5.44v.61h2.64v-.29c0-.07,0-.18-.02-.31,0-.12-.01-.21-.01-.29,0-1.45.39-2.63,1.17-3.49.78-.87,1.8-1.29,3.11-1.29s2.3.41,3.13,1.27c.82.84,1.23,1.91,1.23,3.16,0,.82-.23,1.63-.68,2.4-.47.79-1.45,1.9-2.92,3.29l-7.65,7.26v2.47h13.8v-2.64h-10.01l6.65-6.14c1.17-1.09,2.04-2.17,2.58-3.2"/><polygon class="cls-21" points="316.3 184.71 316.3 187.38 325.48 187.38 317.04 206.6 320.01 206.6 328.61 187.03 328.63 184.71 316.3 184.71"/><polygon class="cls-42" points="248.91 202.6 246.52 200.82 246.52 196.33 248.91 198.55 248.91 202.6"/><polygon class="cls-42" points="251.76 205.19 249.36 203.42 249.36 198.93 251.76 201.15 251.76 205.19"/><polygon class="cls-8" points="253.3 197.92 251.35 195.66 246.87 196 249.27 198.22 253.3 197.92"/><polygon class="cls-8" points="256.11 200.55 254.15 198.3 249.68 198.63 252.08 200.86 256.11 200.55"/><polygon class="cls-42" points="243.65 188.26 246.05 190.04 246.05 194.53 243.65 192.3 243.65 188.26"/><polygon class="cls-42" points="240.8 185.66 243.2 187.44 243.2 191.93 240.8 189.71 240.8 185.66"/><polygon class="cls-8" points="239.26 192.94 241.21 195.2 245.69 194.86 243.29 192.64 239.26 192.94"/><polygon class="cls-8" points="236.46 190.3 238.41 192.56 242.88 192.22 240.49 190 236.46 190.3"/><polygon class="cls-42" points="239.11 198.06 240.89 195.66 245.38 195.66 243.16 198.06 239.11 198.06"/><polygon class="cls-42" points="236.51 200.9 238.29 198.51 242.78 198.51 240.56 200.9 236.51 200.9"/><polygon class="cls-8" points="243.79 202.45 246.05 200.5 245.71 196.02 243.49 198.42 243.79 202.45"/><polygon class="cls-8" points="241.15 205.25 243.41 203.3 243.07 198.83 240.85 201.22 241.15 205.25"/><polygon class="cls-42" points="253.45 192.79 251.67 195.19 247.18 195.19 249.41 192.79 253.45 192.79"/><polygon class="cls-42" points="256.05 189.95 254.27 192.35 249.78 192.35 252 189.95 256.05 189.95"/><polygon class="cls-8" points="248.77 188.41 246.51 190.36 246.85 194.84 249.07 192.44 248.77 188.41"/><polygon class="cls-8" points="251.41 185.6 249.15 187.56 249.49 192.03 251.71 189.63 251.41 185.6"/><g class="cls-44"><rect class="cls-41" x="213.35" width="69.17" height="48.22"/></g><g class="cls-2"><rect class="cls-40" x="239.13" y="41.72" width="17.42" height="17.42"/></g><g class="cls-22"><rect class="cls-37" y="28.66" width="500.51" height="30.74"/></g><g class="cls-10"><rect class="cls-7" x="2.05" y="65.7" width="64.04" height="79.05"/></g><g class="cls-36"><rect class="cls-32" x="215.53" y="65.7" width="64.72" height="79.05"/></g><g class="cls-12"><rect class="cls-17" x="291.54" y="65.7" width="62.28" height="80.65"/></g><g class="cls-4"><rect class="cls-15" x="361.78" y="64.94" width="70.12" height="79.14"/></g><g class="cls-38"><rect class="cls-11" x="137.46" y="64.94" width="70.12" height="79.14"/></g><g class="cls-35"><rect class="cls-3" x="430.76" y="65.06" width="79.42" height="80.31"/></g><g class="cls-31"><rect class="cls-14" x="58.03" y="65.06" width="79.42" height="80.31"/></g></svg>