<?xml version="1.0" encoding="utf-8"?>
<!-- Generator: Adobe Illustrator 27.2.0, SVG Export Plug-In . SVG Version: 6.00 Build 0)  -->
<svg version="1.1" id="Capa_1" xmlns="http://www.w3.org/2000/svg" xmlns:xlink="http://www.w3.org/1999/xlink" x="0px" y="0px"
	 viewBox="0 0 510.2 207" style="enable-background:new 0 0 510.2 207;" xml:space="preserve">
<style type="text/css">
	.st0{clip-path:url(#SVGID_00000173129990946423991340000017603397475889703844_);}
	.st1{fill:#FFFFFF;}
	.st2{clip-path:url(#SVGID_00000096782047778399261190000017731094862861146768_);}
	.st3{clip-path:url(#SVGID_00000116952919935735415190000006078506908562239369_);}
	.st4{clip-path:url(#SVGID_00000106144678242236405000000017862394403567905410_);}
	.st5{clip-path:url(#SVGID_00000147915734805471655750000006076098878743101323_);}
	.st6{clip-path:url(#SVGID_00000000196999822783550390000007040433342826390671_);}
	.st7{clip-path:url(#SVGID_00000002356571535372621160000017106044684296694425_);}
	.st8{clip-path:url(#SVGID_00000145017060378063688990000003386814237493261469_);}
	.st9{clip-path:url(#SVGID_00000036212313584502615610000008388295949608315778_);}
	.st10{clip-path:url(#SVGID_00000026873310729333570700000001259261879608178086_);}
	.st11{clip-path:url(#SVGID_00000026846878628751341120000012950165716962530951_);}
	.st12{clip-path:url(#SVGID_00000148658550234233106900000000931286964187560882_);}
	.st13{clip-path:url(#SVGID_00000119117467312970177450000014728938893826331531_);}
	.st14{clip-path:url(#SVGID_00000101798550324291152290000008613818641420665520_);}
	.st15{clip-path:url(#SVGID_00000180363346395553818490000002350627779740273312_);}
	.st16{clip-path:url(#SVGID_00000065062001907270697510000006376064573165694596_);}
	.st17{clip-path:url(#SVGID_00000090981750385478333220000013600773206669955228_);}
	.st18{clip-path:url(#SVGID_00000142145896807455172980000017964090021427590791_);}
	.st19{clip-path:url(#SVGID_00000078761752033577805820000018198148744999425459_);}
	.st20{clip-path:url(#SVGID_00000114768698247198847740000008056366547509766845_);}
</style>
<g>
	<defs>
		<path id="SVGID_1_" d="M231.6,14.9c0,0.4-0.4,0.8-0.8,0.8h-11c-3.5,0-6.4,2.9-6.4,6.4v25c0,0.6,0.5,1.1,1.1,1.1h4.8
			c0.5,0,1-0.4,1-0.9c0.4-9.7,5.7-18,13.5-22.7c4.1-2.5,9-3.9,14.2-3.9s10,1.4,14.2,3.9c7.8,4.7,13.1,13,13.5,22.7
			c0,0.5,0.4,0.9,1,0.9h4.9c0.6,0,1.1-0.5,1.1-1.1V21.9c0-3.4-2.8-6.2-6.2-6.2h-11.2c-0.5,0-0.8-0.4-0.9-0.8
			C263.4,6.5,256.4,0,247.9,0S232.4,6.5,231.6,14.9"/>
	</defs>
	<use xlink:href="#SVGID_1_"  style="overflow:visible;fill:#FFFFFF;"/>
	<clipPath id="SVGID_00000088822712850775343120000004978002520021689994_">
		<use xlink:href="#SVGID_1_"  style="overflow:visible;"/>
	</clipPath>
	<g style="clip-path:url(#SVGID_00000088822712850775343120000004978002520021689994_);">
		<rect x="213.4" class="st1" width="69.2" height="48.2"/>
	</g>
</g>
<g>
	<defs>
		<path id="SVGID_00000155138554357173338380000001789145103366054277_" d="M239.1,50.4c0,4.8,3.9,8.7,8.7,8.7s8.7-3.9,8.7-8.7
			s-3.9-8.7-8.7-8.7S239.1,45.6,239.1,50.4"/>
	</defs>
	<use xlink:href="#SVGID_00000155138554357173338380000001789145103366054277_"  style="overflow:visible;fill:#FFFFFF;"/>
	<clipPath id="SVGID_00000085234407225933885830000014655374691726508675_">
		<use xlink:href="#SVGID_00000155138554357173338380000001789145103366054277_"  style="overflow:visible;"/>
	</clipPath>
	<g style="clip-path:url(#SVGID_00000085234407225933885830000014655374691726508675_);">
		<rect x="239.1" y="41.7" class="st1" width="17.4" height="17.4"/>
	</g>
</g>
<g>
	<defs>
		<path id="SVGID_00000000903851384952967080000013536836781433558944_" d="M240.6,30.2c-7.4,2.4-12.8,9.4-12.8,17.5v6.9
			c0,0.2-0.2,0.4-0.4,0.4H2.2C1,55,0,56,0,57.3s0.9,2.1,2.1,2.1h227.4c1.2,0,2.2-1,2.2-2.2v-7.4c0-9.3,7.3-16.9,16.2-16.9
			c8.9,0,16.2,7.6,16.2,16.9v7.5c0,1.1,0.9,2,2,2h231.9c1.3,0,2.4-1.1,2.4-2.4c0-1.1-0.9-2-2-2H268.3c-0.1,0-0.3-0.1-0.3-0.3v-7
			c0-8.1-5.3-15-12.5-17.4c-2.3-1-4.9-1.6-7.5-1.6S242.9,29.2,240.6,30.2"/>
	</defs>
	<use xlink:href="#SVGID_00000000903851384952967080000013536836781433558944_"  style="overflow:visible;fill:#FFFFFF;"/>
	<clipPath id="SVGID_00000183251365122721704620000015825921057130006687_">
		<use xlink:href="#SVGID_00000000903851384952967080000013536836781433558944_"  style="overflow:visible;"/>
	</clipPath>
	<g style="clip-path:url(#SVGID_00000183251365122721704620000015825921057130006687_);">
		<rect y="28.7" class="st1" width="500.5" height="30.7"/>
	</g>
</g>
<g>
	<defs>
		<path id="SVGID_00000056410711009619749930000005979633417659785394_" d="M22.7,99.5V83.1c0-0.8,0.6-1.4,1.4-1.4h6.6
			c2.2,0,4,0,5.5,0.1c5.3,0.5,8.4,3.6,8.4,9.5s-3.1,9.1-8.4,9.5c-1.5,0.1-3.3,0.1-5.5,0.1h-6.5C23.4,101,22.7,100.3,22.7,99.5
			 M5.4,65.7c-1.8,0-3.3,1.5-3.3,3.3v72.7c0,1.7,1.3,3,3,3h14.7c1.6,0,2.9-1.3,2.9-2.9V117h9.2c4.9,0,8.1-0.1,12.4-0.6
			c11.5-1.4,21.9-9.5,21.9-25.1S55.7,67.6,44.2,66.3c-4.2-0.5-7.5-0.6-12.4-0.6C31.8,65.7,5.4,65.7,5.4,65.7z"/>
	</defs>
	<use xlink:href="#SVGID_00000056410711009619749930000005979633417659785394_"  style="overflow:visible;fill:#FFFFFF;"/>
	<clipPath id="SVGID_00000060000651809265057000000003883810018024928687_">
		<use xlink:href="#SVGID_00000056410711009619749930000005979633417659785394_"  style="overflow:visible;"/>
	</clipPath>
	<g style="clip-path:url(#SVGID_00000060000651809265057000000003883810018024928687_);">
		<rect x="2" y="65.7" class="st1" width="64" height="79.1"/>
	</g>
</g>
<g>
	<defs>
		<path id="SVGID_00000098922615707915919530000011119720826165265282_" d="M267.7,65.7c-3.2,0-5.7,2.6-5.7,5.7V98h-28.1V71.4
			c0-3.2-2.6-5.7-5.7-5.7h-12.6v79.1h18.3v-30.7h28.1v30.7h18.3V65.7H267.7L267.7,65.7z"/>
	</defs>
	<use xlink:href="#SVGID_00000098922615707915919530000011119720826165265282_"  style="overflow:visible;fill:#FFFFFF;"/>
	<clipPath id="SVGID_00000116953165738473499730000006073144087621239707_">
		<use xlink:href="#SVGID_00000098922615707915919530000011119720826165265282_"  style="overflow:visible;"/>
	</clipPath>
	<g style="clip-path:url(#SVGID_00000116953165738473499730000006073144087621239707_);">
		<rect x="215.5" y="65.7" class="st1" width="64.7" height="79.1"/>
	</g>
</g>
<g>
	<defs>
		<path id="SVGID_00000128462369421715980640000007381498925368310687_" d="M336.9,65.7c-0.8,0-1.4,0.6-1.4,1.4v46.8
			c0,2.2,0,3.3-0.1,4.7c-0.5,8.2-4.7,12.7-12.7,12.7s-12.2-4.5-12.7-12.7c-0.1-1.4-0.1-2.5-0.1-4.7V67.1c0-0.8-0.6-1.4-1.4-1.4
			h-15.6c-0.8,0-1.4,0.6-1.4,1.4v43c0,4,0,6.4,0.3,11.1c0.8,13.3,9.2,25.2,30.8,25.2s30-11.9,30.8-25.2c0.3-4.7,0.3-7.1,0.3-11.1
			v-43c0-0.8-0.6-1.4-1.4-1.4L336.9,65.7L336.9,65.7z"/>
	</defs>
	<use xlink:href="#SVGID_00000128462369421715980640000007381498925368310687_"  style="overflow:visible;fill:#FFFFFF;"/>
	<clipPath id="SVGID_00000090294063830046888200000017325494118068182949_">
		<use xlink:href="#SVGID_00000128462369421715980640000007381498925368310687_"  style="overflow:visible;"/>
	</clipPath>
	<g style="clip-path:url(#SVGID_00000090294063830046888200000017325494118068182949_);">
		<rect x="291.5" y="65.7" class="st1" width="62.3" height="80.7"/>
	</g>
</g>
<g>
	<defs>
		<path id="SVGID_00000161590979733910341580000001806175220663083139_" d="M391.1,64.9c-19.4,0-29.4,14.2-29.1,26.4v26.4
			c1.1,16.6,11.7,25.7,29.1,26.4h11.6c19.4,0,29.1-11.5,29.1-29.1H410v2c0,6.1-5,11.1-11.1,11.1h-4.2c-6.1,0-11.1-5-11.1-11.1V91.8
			c0-6.1,5-11.1,11.1-11.1h4.2c6.1,0,11.1,5,11.1,11.1v3.4h21.9c0-17.6-9.7-30.3-29.1-30.3L391.1,64.9L391.1,64.9z"/>
	</defs>
	<use xlink:href="#SVGID_00000161590979733910341580000001806175220663083139_"  style="overflow:visible;fill:#FFFFFF;"/>
	<clipPath id="SVGID_00000093892277917484224850000006301490323533453995_">
		<use xlink:href="#SVGID_00000161590979733910341580000001806175220663083139_"  style="overflow:visible;"/>
	</clipPath>
	<g style="clip-path:url(#SVGID_00000093892277917484224850000006301490323533453995_);">
		<rect x="361.8" y="64.9" class="st1" width="70.1" height="79.1"/>
	</g>
</g>
<g>
	<defs>
		<path id="SVGID_00000173133889726730989880000009377728636758735244_" d="M166.8,64.9c-19.4,0-29.4,14.2-29.1,26.4v26.4
			c1.1,16.6,11.7,25.7,29.1,26.4h11.6c19.4,0,29.1-11.5,29.1-29.1h-21.9v2c0,6.1-5,11.1-11.1,11.1h-4.2c-6.1,0-11.1-5-11.1-11.1
			V91.8c0-6.1,5-11.1,11.1-11.1h4.2c6.1,0,11.1,5,11.1,11.1v3.4h21.9c0-17.6-9.7-30.3-29.1-30.3L166.8,64.9L166.8,64.9z"/>
	</defs>
	<use xlink:href="#SVGID_00000173133889726730989880000009377728636758735244_"  style="overflow:visible;fill:#FFFFFF;"/>
	<clipPath id="SVGID_00000121970784051304968440000003247868209164693410_">
		<use xlink:href="#SVGID_00000173133889726730989880000009377728636758735244_"  style="overflow:visible;"/>
	</clipPath>
	<g style="clip-path:url(#SVGID_00000121970784051304968440000003247868209164693410_);">
		<rect x="137.5" y="64.9" class="st1" width="70.1" height="79.1"/>
	</g>
</g>
<g>
	<defs>
		<path id="SVGID_00000037660434406193937640000010969083441149532060_" d="M459.4,65.1c-1,0-1.9,0.6-2.2,1.6L431,142.9
			c-0.2,0.7,0.3,1.4,1,1.4h16.4c1.2,0,2.3-0.7,2.7-1.9l6.7-17.2c0,0,9,4.7,20.1,5c0.5,0,0.8-0.4,0.6-0.9l-4.2-13.6
			c-0.2-0.6-0.7-1.1-1.3-1.1c-2.7-0.4-10-1.6-11.4-3.9l7.1-23.1c0.1-0.4,0.7-0.4,0.9,0l19.9,56.2c0.3,0.9,1.1,1.4,2,1.4h17.3
			c0.8,0,1.3-0.8,1-1.5l-26.6-77.4c-0.3-0.9-1.1-1.4-2-1.4C481.4,65.1,459.4,65.1,459.4,65.1z"/>
	</defs>
	<use xlink:href="#SVGID_00000037660434406193937640000010969083441149532060_"  style="overflow:visible;fill:#FFFFFF;"/>
	<clipPath id="SVGID_00000128463933257946206670000010384345657324784566_">
		<use xlink:href="#SVGID_00000037660434406193937640000010969083441149532060_"  style="overflow:visible;"/>
	</clipPath>
	<g style="clip-path:url(#SVGID_00000128463933257946206670000010384345657324784566_);">
		<rect x="430.8" y="65.1" class="st1" width="79.4" height="80.3"/>
	</g>
</g>
<g>
	<defs>
		<path id="SVGID_00000022558239882772438420000000716094389414978451_" d="M86.9,65.1c-0.9,0-1.7,0.6-2,1.4l-26.6,77.4
			c-0.2,0.7,0.3,1.5,1,1.5h17.3c0.9,0,1.7-0.6,2-1.4l19.9-56.2c0.1-0.4,0.7-0.4,0.9,0l7.2,23.1c-1.4,2.3-8.7,3.5-11.4,3.9
			c-0.6,0.1-1.2,0.5-1.3,1.1l-4.2,13.6c-0.1,0.4,0.2,0.9,0.6,0.9c11.2-0.4,20.1-5,20.1-5l6.7,17.2c0.4,1.1,1.5,1.9,2.7,1.9h16.4
			c0.8,0,1.3-0.7,1-1.4l-26.2-76.3c-0.3-0.9-1.2-1.6-2.2-1.6C108.9,65.1,86.9,65.1,86.9,65.1z"/>
	</defs>
	<use xlink:href="#SVGID_00000022558239882772438420000000716094389414978451_"  style="overflow:visible;fill:#FFFFFF;"/>
	<clipPath id="SVGID_00000026848935000387033730000005838172539725520801_">
		<use xlink:href="#SVGID_00000022558239882772438420000000716094389414978451_"  style="overflow:visible;"/>
	</clipPath>
	<g style="clip-path:url(#SVGID_00000026848935000387033730000005838172539725520801_);">
		<rect x="58" y="65.1" class="st1" width="79.4" height="80.3"/>
	</g>
</g>
<path class="st1" d="M19.7,169c-0.4,1.7-1.1,3.1-2.1,3.9c-1,0.9-2.3,1.3-3.9,1.3c-1.2,0-2.4-0.3-3.5-1c-1.1-0.6-1.9-1.6-2.4-2.9
	c-0.5-1.3-0.8-2.9-0.8-4.7c0-1.4,0.2-2.7,0.7-4c0.4-1.3,1.2-2.3,2.2-3s2.4-1.1,4-1.1c1.4,0,2.5,0.3,3.4,1c0.9,0.7,1.6,1.8,2.1,3.3
	l0.1,0.2l3.4-0.8l-0.1-0.3c-0.6-2-1.7-3.6-3.2-4.8s-3.4-1.7-5.6-1.7c-1.9,0-3.7,0.4-5.3,1.3c-1.6,0.9-2.9,2.2-3.8,3.9
	c-0.9,1.7-1.3,3.7-1.3,6c0,2.1,0.4,4.1,1.2,5.9c0.8,1.8,1.9,3.2,3.4,4.2c1.5,1,3.4,1.5,5.8,1.5s4.3-0.6,5.8-1.9
	c1.6-1.3,2.7-3.1,3.3-5.5l0.1-0.3l-3.4-0.9L19.7,169L19.7,169z"/>
<path class="st1" d="M32,154.8l-8.5,22h3.6l2.4-6.5h8.6l2.5,6.5h3.9l-9-22C35.5,154.8,32,154.8,32,154.8z M37,167.5h-6.5l2.2-5.9
	c0.4-1,0.7-2,0.9-3.1c0.3,1,0.7,2.1,1.2,3.4L37,167.5L37,167.5z"/>
<path class="st1" d="M60.5,156.1c-0.8-0.5-1.7-0.9-2.8-1.1c-0.8-0.1-1.9-0.2-3.3-0.2H46v22h3.4v-8.7h5.2c3.1,0,5.3-0.7,6.5-2
	c1.2-1.3,1.8-2.9,1.8-4.8c0-1.1-0.2-2.1-0.7-3.1C61.9,157.3,61.3,156.6,60.5,156.1 M54.7,165h-5.3v-7.1h5.2c1.3,0,2.1,0.1,2.6,0.2
	c0.7,0.2,1.2,0.6,1.6,1.2s0.6,1.3,0.6,2.1c0,1.2-0.3,2-1.1,2.7S56.5,165,54.7,165"/>
<rect x="66.5" y="154.8" class="st1" width="3.4" height="22"/>
<polygon class="st1" points="90.4,154.8 72.8,154.8 72.8,157.9 79.8,157.9 79.8,176.9 83.2,176.9 83.2,157.9 90.4,157.9 "/>
<path class="st1" d="M96.4,154.8l-8.5,22h3.6l2.4-6.5h8.6l2.5,6.5h3.9l-9-22H96.4z M101.5,167.5H95l2.2-5.9c0.4-1,0.7-2,0.9-3.1
	c0.3,1,0.7,2.1,1.2,3.4L101.5,167.5L101.5,167.5z"/>
<polygon class="st1" points="113.8,154.8 110.4,154.8 110.4,176.9 124.3,176.9 124.3,173.8 113.8,173.8 "/>
<path class="st1" d="M149.2,156.7c-0.9-0.8-2-1.3-3.3-1.6c-0.9-0.2-2.2-0.3-3.9-0.3h-7.7v22h8c1.3,0,2.5-0.1,3.5-0.4
	c1-0.2,1.9-0.6,2.6-1.1c0.7-0.5,1.4-1.2,2-2c0.6-0.9,1.1-1.9,1.5-3.2c0.4-1.3,0.6-2.8,0.6-4.4c0-1.9-0.3-3.7-0.9-5.2
	C151.2,159,150.4,157.7,149.2,156.7 M137.8,157.9h4.2c1.6,0,2.9,0.1,3.6,0.4c1,0.4,1.9,1.2,2.6,2.3c0.7,1.1,1.1,2.9,1.1,5
	c0,1.6-0.2,2.9-0.6,4.1c-0.4,1.1-0.9,2-1.5,2.6c-0.4,0.4-1.1,0.8-1.8,1c-0.8,0.2-1.9,0.4-3.2,0.4h-4.3V157.9z"/>
<polygon class="st1" points="159.5,167 171.4,167 171.4,163.9 159.5,163.9 159.5,157.9 172.2,157.9 172.2,154.8 156.1,154.8 
	156.1,176.9 172.7,176.9 172.7,173.8 159.5,173.8 "/>
<polygon class="st1" points="187.7,154.8 184.2,154.8 184.2,176.9 198.2,176.9 198.2,173.8 187.7,173.8 "/>
<path class="st1" d="M207,154.8l-8.5,22h3.6l2.4-6.5h8.6l2.5,6.5h3.9l-9-22H207z M212,167.5h-6.4l2.2-5.9c0.4-1,0.7-2,0.9-3.1
	c0.3,1,0.7,2.1,1.2,3.4L212,167.5L212,167.5z"/>
<polygon class="st1" points="225.6,157.9 232.6,157.9 232.6,176.9 236.1,176.9 236.1,157.9 243.2,157.9 243.2,154.8 225.6,154.8 "/>
<path class="st1" d="M273.1,154.8l-8.2,21.4l-3.6-5.7c-0.8-1.2-1.6-2.1-2.4-2.9c-0.3-0.2-0.6-0.5-1-0.7c1.7-0.4,3-1,3.9-1.9
	c1-1.1,1.6-2.5,1.6-4.1c0-1.2-0.3-2.4-0.9-3.4c-0.6-1-1.5-1.8-2.5-2.2c-1-0.4-2.5-0.6-4.5-0.6h-9.8v22h3.4v-9.5h3
	c0.7,0,1.2,0,1.5,0.1c0.4,0.1,0.8,0.3,1.2,0.5c0.4,0.2,0.9,0.7,1.4,1.4c0.5,0.7,1.2,1.7,2,2.9l2.9,4.6h7.3l2.4-6.5h8.6l2.5,6.5h3.9
	l-9-22L273.1,154.8L273.1,154.8z M259.3,162.7c-0.4,0.5-0.9,0.9-1.5,1.2c-0.7,0.3-1.7,0.4-2.9,0.4H249v-6.5h6.5
	c1.5,0,2.6,0.3,3.3,0.9s1,1.4,1,2.3C259.8,161.6,259.6,162.2,259.3,162.7 M278.1,167.5h-6.5l2.2-5.9c0.4-1,0.7-2,0.9-3.1
	c0.3,1,0.7,2.1,1.2,3.4L278.1,167.5L278.1,167.5z"/>
<polygon class="st1" points="301.3,171 290.6,154.9 290.5,154.8 287.1,154.8 287.1,176.9 290.4,176.9 290.4,160.6 301.3,176.9 
	304.6,176.9 304.6,154.8 301.3,154.8 "/>
<path class="st1" d="M321.7,165c-0.9-0.4-2.5-0.9-4.8-1.4c-2.8-0.6-3.8-1.1-4.2-1.5c-0.5-0.4-0.7-1-0.7-1.7c0-0.8,0.4-1.5,1.1-2.1
	c0.7-0.6,1.9-0.9,3.6-0.9s2.8,0.3,3.6,1c0.8,0.6,1.2,1.6,1.4,2.9l0,0.3l3.3-0.2v-0.3c-0.1-1.3-0.4-2.5-1.1-3.5s-1.7-1.8-2.9-2.4
	c-1.2-0.5-2.7-0.8-4.3-0.8c-1.5,0-2.8,0.2-4,0.8c-1.2,0.5-2.2,1.3-2.8,2.2s-1,2.1-1,3.2c0,1,0.3,2,0.8,2.8c0.5,0.8,1.3,1.5,2.4,2.1
	c0.8,0.4,2.2,0.9,4.2,1.4c2,0.5,3.2,0.8,3.8,1c0.8,0.3,1.5,0.7,1.8,1.2c0.4,0.5,0.5,1,0.5,1.6s-0.2,1.1-0.5,1.7
	c-0.4,0.5-1,0.9-1.7,1.2c-0.8,0.3-1.7,0.5-2.8,0.5c-1.2,0-2.2-0.2-3.2-0.6c-0.9-0.4-1.6-0.9-2-1.6c-0.4-0.6-0.7-1.5-0.8-2.5l0-0.3
	l-3.2,0.3v0.3c0,1.5,0.5,2.8,1.2,4c0.8,1.2,1.9,2.1,3.2,2.7c1.3,0.6,3,0.9,5,0.9c1.6,0,3-0.3,4.3-0.9c1.3-0.6,2.3-1.4,2.9-2.5
	s1-2.2,1-3.4s-0.3-2.3-0.9-3.2C324,166.3,323,165.6,321.7,165"/>
<polygon class="st1" points="329,176.9 332.4,176.9 332.4,167.1 342.5,167.1 342.5,164 332.4,164 332.4,157.9 344,157.9 344,154.8 
	329,154.8 "/>
<path class="st1" d="M362.4,155.9c-1.6-1-3.5-1.5-5.5-1.5c-3.1,0-5.7,1.1-7.6,3.1s-3,4.9-3,8.6c0,1.9,0.4,3.8,1.3,5.5
	c0.8,1.7,2.1,3.1,3.7,4.1s3.5,1.5,5.6,1.5c1.9,0,3.7-0.5,5.4-1.4c1.6-0.9,3-2.3,3.9-4c0.9-1.8,1.4-3.8,1.4-6s-0.4-4.2-1.3-5.9
	C365.2,158.2,364,156.9,362.4,155.9 M363.9,165.9c0,2.7-0.7,4.8-2,6.2c-1.3,1.4-3,2.2-5.1,2.2s-3.7-0.7-5-2.1c-1.3-1.4-2-3.4-2-5.9
	c0-3.1,0.7-5.4,2.1-6.7c1.4-1.3,3.1-2,5-2c1.4,0,2.6,0.4,3.7,1c1.1,0.7,1.9,1.7,2.5,2.9C363.6,162.7,363.9,164.2,363.9,165.9"/>
<path class="st1" d="M383.8,167.7c-0.3-0.2-0.6-0.5-1-0.7c1.7-0.4,3-1,3.9-1.9c1-1.1,1.6-2.5,1.6-4.1c0-1.2-0.3-2.4-0.9-3.4
	c-0.6-1-1.5-1.8-2.5-2.2c-1-0.4-2.5-0.6-4.5-0.6h-9.8v22h3.4v-9.5h3c0.7,0,1.2,0,1.5,0.1c0.4,0.1,0.8,0.3,1.2,0.5
	c0.4,0.2,0.9,0.7,1.4,1.4c0.5,0.7,1.2,1.7,2,2.9l2.9,4.6h4.2l-4-6.3C385.5,169.4,384.7,168.4,383.8,167.7 M384.2,162.7
	c-0.4,0.5-0.9,0.9-1.5,1.2c-0.7,0.3-1.7,0.4-3,0.4h-5.8v-6.5h6.5c1.5,0,2.6,0.3,3.3,0.9s1,1.4,1,2.3
	C384.7,161.6,384.6,162.2,384.2,162.7"/>
<path class="st1" d="M403.6,169.9c-0.4,1-0.6,1.9-0.9,2.6c-0.2-0.6-0.5-1.4-0.8-2.3l-5.1-15.4H392v22h3.3V160l5.7,16.8h3l5.8-16.6
	v16.6h3.3v-22h-4.3L403.6,169.9L403.6,169.9z"/>
<path class="st1" d="M423.1,154.8l-8.5,22h3.6l2.4-6.5h8.6l2.5,6.5h3.9l-9-22H423.1L423.1,154.8z M428.1,167.5h-6.5l2.2-5.9
	c0.4-1,0.7-2,0.9-3.1c0.3,1,0.7,2.1,1.2,3.4L428.1,167.5L428.1,167.5z"/>
<path class="st1" d="M452.5,169c-0.4,1.7-1.1,3.1-2.1,3.9c-1,0.9-2.3,1.3-3.9,1.3c-1.2,0-2.4-0.3-3.5-1c-1.1-0.6-1.9-1.6-2.4-2.9
	c-0.5-1.3-0.8-2.9-0.8-4.7c0-1.4,0.2-2.7,0.7-4c0.4-1.3,1.2-2.3,2.2-3c1-0.8,2.4-1.1,4-1.1c1.4,0,2.5,0.3,3.4,1
	c0.9,0.7,1.6,1.8,2.1,3.3l0.1,0.2l3.4-0.8l-0.1-0.3c-0.6-2-1.7-3.6-3.2-4.8c-1.5-1.1-3.4-1.7-5.6-1.7c-1.9,0-3.7,0.4-5.3,1.3
	c-1.6,0.9-2.9,2.2-3.8,3.9c-0.9,1.7-1.3,3.7-1.3,6c0,2.1,0.4,4.1,1.2,5.9c0.8,1.8,1.9,3.2,3.4,4.2c1.5,1,3.4,1.5,5.8,1.5
	s4.3-0.6,5.9-1.9s2.7-3.1,3.3-5.5l0.1-0.3l-3.4-0.9L452.5,169L452.5,169z"/>
<rect x="459.3" y="154.8" class="st1" width="3.4" height="22"/>
<polygon class="st1" points="481,149.4 476.8,149.4 474.5,154.1 477.3,154.1 "/>
<path class="st1" d="M482.3,155.9c-1.6-1-3.5-1.5-5.5-1.5c-3.1,0-5.7,1.1-7.6,3.1s-3,4.9-3,8.6c0,1.9,0.4,3.8,1.3,5.5
	c0.8,1.7,2.1,3.1,3.7,4.1s3.5,1.5,5.6,1.5c1.9,0,3.7-0.5,5.4-1.4c1.6-0.9,3-2.3,3.9-4c0.9-1.8,1.4-3.8,1.4-6s-0.4-4.2-1.3-5.9
	C485.2,158.2,483.9,156.9,482.3,155.9 M483.8,165.9c0,2.7-0.7,4.8-2,6.2c-1.3,1.4-3,2.2-5.1,2.2s-3.7-0.7-5-2.1
	c-1.3-1.4-2-3.4-2-5.9c0-3.1,0.7-5.4,2.1-6.7c1.4-1.3,3.1-2,5-2c1.4,0,2.6,0.4,3.7,1c1.1,0.7,1.9,1.7,2.5,2.9
	C483.5,162.7,483.8,164.2,483.8,165.9"/>
<polygon class="st1" points="504.6,154.8 504.6,171 493.9,154.9 493.8,154.8 490.4,154.8 490.4,176.9 493.7,176.9 493.7,160.6 
	504.5,176.9 507.9,176.9 507.9,154.8 "/>
<path class="st1" d="M175.8,194.6c0.6-1.1,0.8-2.2,0.8-3.3c0-2-0.7-3.7-2-5c-1.3-1.4-2.9-2-4.8-2c-2.1,0-3.8,0.7-5.1,2.1
	s-2,3.2-2,5.4v0.6h2.6v-0.3c0-0.1,0-0.2,0-0.3c0-0.1,0-0.2,0-0.3c0-1.4,0.4-2.6,1.2-3.5c0.8-0.9,1.8-1.3,3.1-1.3s2.3,0.4,3.1,1.3
	c0.8,0.8,1.2,1.9,1.2,3.2c0,0.8-0.2,1.6-0.7,2.4c-0.5,0.8-1.4,1.9-2.9,3.3l-7.6,7.3v2.5h13.8V204h-10l6.6-6.1
	C174.4,196.7,175.3,195.7,175.8,194.6"/>
<path class="st1" d="M186.5,184.3c-1.3,0-2.4,0.3-3.5,0.8c-1.1,0.5-2,1.3-2.7,2.2c-0.5,0.6-0.8,1.3-1,2.1s-0.3,1.8-0.3,3.2v6.3
	c0,1.3,0.1,2.3,0.3,3.1c0.2,0.8,0.5,1.5,1,2.1c0.8,1,1.7,1.7,2.7,2.2s2.2,0.8,3.5,0.8s2.5-0.3,3.6-0.8s2-1.3,2.7-2.3
	c0.4-0.6,0.7-1.3,0.9-2.1c0.2-0.8,0.3-1.8,0.3-2.9v-6.5c0-2.5-0.7-4.5-2-5.9C190.7,185,188.8,184.3,186.5,184.3 M191.4,192v7.4
	c0,1.7-0.4,3-1.3,3.9c-0.9,0.9-2,1.4-3.6,1.4s-2.7-0.5-3.6-1.4c-0.9-0.9-1.3-2.2-1.3-3.9v-7.2c0-1.7,0.4-3,1.3-4
	c0.9-0.9,2.1-1.4,3.6-1.4s2.7,0.5,3.6,1.4S191.4,190.3,191.4,192"/>
<path class="st1" d="M209.7,194.6c0.6-1.1,0.8-2.2,0.8-3.3c0-2-0.7-3.7-2-5c-1.3-1.4-2.9-2-4.8-2c-2.1,0-3.8,0.7-5.1,2.1
	s-2,3.2-2,5.4v0.6h2.6v-0.3c0-0.1,0-0.2,0-0.3c0-0.1,0-0.2,0-0.3c0-1.4,0.4-2.6,1.2-3.5c0.8-0.9,1.8-1.3,3.1-1.3s2.3,0.4,3.1,1.3
	c0.8,0.8,1.2,1.9,1.2,3.2c0,0.8-0.2,1.6-0.7,2.4c-0.5,0.8-1.4,1.9-2.9,3.3l-7.6,7.3v2.5h13.8V204h-10l6.6-6.1
	C208.3,196.7,209.2,195.7,209.7,194.6"/>
<path class="st1" d="M225.6,184.7h-2.8l-9.8,15.5l0,0.1v2.2h10v4.1h2.6v-4.1h2.3v-2.4h-2.3L225.6,184.7L225.6,184.7z M215.9,200.1
	l7.1-11.6l-0.1,11.6H215.9z"/>
<path class="st1" d="M277.4,194.6c0.5-1.1,0.8-2.2,0.8-3.3c0-2-0.7-3.7-2-5c-1.3-1.4-2.9-2-4.8-2c-2.1,0-3.8,0.7-5.1,2.1
	s-2,3.2-2,5.4v0.6h2.6v-0.3c0-0.1,0-0.2,0-0.3c0-0.1,0-0.2,0-0.3c0-1.4,0.4-2.6,1.2-3.5c0.8-0.9,1.8-1.3,3.1-1.3s2.3,0.4,3.1,1.3
	c0.8,0.8,1.2,1.9,1.2,3.2c0,0.8-0.2,1.6-0.7,2.4c-0.5,0.8-1.5,1.9-2.9,3.3l-7.6,7.3v2.5h13.8V204h-10l6.6-6.1
	C276,196.7,276.9,195.7,277.4,194.6"/>
<path class="st1" d="M288.2,184.3c-1.3,0-2.4,0.3-3.5,0.8s-2,1.3-2.7,2.2c-0.5,0.6-0.8,1.3-1,2.1s-0.3,1.8-0.3,3.2v6.3
	c0,1.3,0.1,2.3,0.3,3.1c0.2,0.8,0.5,1.5,1,2.1c0.8,1,1.7,1.7,2.7,2.2s2.2,0.8,3.5,0.8s2.5-0.3,3.6-0.8s2-1.3,2.7-2.3
	c0.4-0.6,0.7-1.3,0.9-2.1c0.2-0.8,0.3-1.8,0.3-2.9v-6.5c0-2.5-0.7-4.5-2-5.9C292.3,185,290.5,184.3,288.2,184.3 M293,192v7.4
	c0,1.7-0.4,3-1.3,3.9c-0.9,0.9-2,1.4-3.5,1.4s-2.7-0.5-3.6-1.4c-0.9-0.9-1.3-2.2-1.3-3.9v-7.2c0-1.7,0.4-3,1.3-4
	c0.9-0.9,2-1.4,3.6-1.4s2.7,0.5,3.5,1.4S293,190.3,293,192"/>
<path class="st1" d="M311.3,194.6c0.5-1.1,0.8-2.2,0.8-3.3c0-2-0.7-3.7-2-5c-1.3-1.4-2.9-2-4.8-2c-2.1,0-3.8,0.7-5.1,2.1
	s-2,3.2-2,5.4v0.6h2.6v-0.3c0-0.1,0-0.2,0-0.3c0-0.1,0-0.2,0-0.3c0-1.4,0.4-2.6,1.2-3.5c0.8-0.9,1.8-1.3,3.1-1.3s2.3,0.4,3.1,1.3
	c0.8,0.8,1.2,1.9,1.2,3.2c0,0.8-0.2,1.6-0.7,2.4c-0.5,0.8-1.5,1.9-2.9,3.3l-7.6,7.3v2.5h13.8V204h-10l6.6-6.1
	C309.9,196.7,310.8,195.7,311.3,194.6"/>
<polygon class="st1" points="316.3,184.7 316.3,187.4 325.5,187.4 317,206.6 320,206.6 328.6,187 328.6,184.7 "/>
<polygon class="st1" points="248.9,202.6 246.5,200.8 246.5,196.3 248.9,198.6 "/>
<polygon class="st1" points="251.8,205.2 249.4,203.4 249.4,198.9 251.8,201.1 "/>
<polygon class="st1" points="253.3,197.9 251.4,195.7 246.9,196 249.3,198.2 "/>
<polygon class="st1" points="256.1,200.6 254.1,198.3 249.7,198.6 252.1,200.9 "/>
<polygon class="st1" points="243.6,188.3 246.1,190 246.1,194.5 243.6,192.3 "/>
<polygon class="st1" points="240.8,185.7 243.2,187.4 243.2,191.9 240.8,189.7 "/>
<polygon class="st1" points="239.3,192.9 241.2,195.2 245.7,194.9 243.3,192.6 "/>
<polygon class="st1" points="236.5,190.3 238.4,192.6 242.9,192.2 240.5,190 "/>
<polygon class="st1" points="239.1,198.1 240.9,195.7 245.4,195.7 243.2,198.1 "/>
<polygon class="st1" points="236.5,200.9 238.3,198.5 242.8,198.5 240.6,200.9 "/>
<polygon class="st1" points="243.8,202.4 246.1,200.5 245.7,196 243.5,198.4 "/>
<polygon class="st1" points="241.1,205.2 243.4,203.3 243.1,198.8 240.9,201.2 "/>
<polygon class="st1" points="253.4,192.8 251.7,195.2 247.2,195.2 249.4,192.8 "/>
<polygon class="st1" points="256,189.9 254.3,192.4 249.8,192.4 252,189.9 "/>
<polygon class="st1" points="248.8,188.4 246.5,190.4 246.9,194.8 249.1,192.4 "/>
<polygon class="st1" points="251.4,185.6 249.1,187.6 249.5,192 251.7,189.6 "/>
<g>
	<defs>
		<path id="SVGID_00000068656823770036010130000012096915545819041433_" d="M231.6,14.9c0,0.4-0.4,0.8-0.8,0.8h-11
			c-3.5,0-6.4,2.9-6.4,6.4v25c0,0.6,0.5,1.1,1.1,1.1h4.8c0.5,0,1-0.4,1-0.9c0.4-9.7,5.7-18,13.5-22.7c4.1-2.5,9-3.9,14.2-3.9
			s10,1.4,14.2,3.9c7.8,4.7,13.1,13,13.5,22.7c0,0.5,0.4,0.9,1,0.9h4.9c0.6,0,1.1-0.5,1.1-1.1V21.9c0-3.4-2.8-6.2-6.2-6.2h-11.2
			c-0.5,0-0.8-0.4-0.9-0.8C263.4,6.5,256.4,0,247.9,0S232.4,6.5,231.6,14.9"/>
	</defs>
	<use xlink:href="#SVGID_00000068656823770036010130000012096915545819041433_"  style="overflow:visible;fill:#FFFFFF;"/>
	<clipPath id="SVGID_00000046312172896131466400000003754990071371879866_">
		<use xlink:href="#SVGID_00000068656823770036010130000012096915545819041433_"  style="overflow:visible;"/>
	</clipPath>
	<g style="clip-path:url(#SVGID_00000046312172896131466400000003754990071371879866_);">
		<rect x="213.4" class="st1" width="69.2" height="48.2"/>
	</g>
</g>
<g>
	<defs>
		<path id="SVGID_00000131352806787408534070000009504059905417278653_" d="M239.1,50.4c0,4.8,3.9,8.7,8.7,8.7s8.7-3.9,8.7-8.7
			s-3.9-8.7-8.7-8.7S239.1,45.6,239.1,50.4"/>
	</defs>
	<use xlink:href="#SVGID_00000131352806787408534070000009504059905417278653_"  style="overflow:visible;fill:#FFFFFF;"/>
	<clipPath id="SVGID_00000154403474525704902670000004537436049481269125_">
		<use xlink:href="#SVGID_00000131352806787408534070000009504059905417278653_"  style="overflow:visible;"/>
	</clipPath>
	<g style="clip-path:url(#SVGID_00000154403474525704902670000004537436049481269125_);">
		<rect x="239.1" y="41.7" class="st1" width="17.4" height="17.4"/>
	</g>
</g>
<g>
	<defs>
		<path id="SVGID_00000000915176876671135490000015338129588891780520_" d="M240.6,30.2c-7.4,2.4-12.8,9.4-12.8,17.5v6.9
			c0,0.2-0.2,0.4-0.4,0.4H2.2C1,55,0,56,0,57.3s0.9,2.1,2.1,2.1h227.4c1.2,0,2.2-1,2.2-2.2v-7.4c0-9.3,7.3-16.9,16.2-16.9
			c8.9,0,16.2,7.6,16.2,16.9v7.5c0,1.1,0.9,2,2,2h231.9c1.3,0,2.4-1.1,2.4-2.4c0-1.1-0.9-2-2-2H268.3c-0.1,0-0.3-0.1-0.3-0.3v-7
			c0-8.1-5.3-15-12.5-17.4c-2.3-1-4.9-1.6-7.5-1.6S242.9,29.2,240.6,30.2"/>
	</defs>
	<use xlink:href="#SVGID_00000000915176876671135490000015338129588891780520_"  style="overflow:visible;fill:#FFFFFF;"/>
	<clipPath id="SVGID_00000100366324857644335890000012726351885656538797_">
		<use xlink:href="#SVGID_00000000915176876671135490000015338129588891780520_"  style="overflow:visible;"/>
	</clipPath>
	<g style="clip-path:url(#SVGID_00000100366324857644335890000012726351885656538797_);">
		<rect y="28.7" class="st1" width="500.5" height="30.7"/>
	</g>
</g>
<g>
	<defs>
		<path id="SVGID_00000137843598012810468470000014234625808620899513_" d="M22.7,99.5V83.1c0-0.8,0.6-1.4,1.4-1.4h6.6
			c2.2,0,4,0,5.5,0.1c5.3,0.5,8.4,3.6,8.4,9.5s-3.1,9.1-8.4,9.5c-1.5,0.1-3.3,0.1-5.5,0.1h-6.5C23.4,101,22.7,100.3,22.7,99.5
			 M5.4,65.7c-1.8,0-3.3,1.5-3.3,3.3v72.7c0,1.7,1.3,3,3,3h14.7c1.6,0,2.9-1.3,2.9-2.9V117h9.2c4.9,0,8.1-0.1,12.4-0.6
			c11.5-1.4,21.9-9.5,21.9-25.1S55.7,67.6,44.2,66.3c-4.2-0.5-7.5-0.6-12.4-0.6C31.8,65.7,5.4,65.7,5.4,65.7z"/>
	</defs>
	<use xlink:href="#SVGID_00000137843598012810468470000014234625808620899513_"  style="overflow:visible;fill:#FFFFFF;"/>
	<clipPath id="SVGID_00000119112696288974756760000012816540297243412146_">
		<use xlink:href="#SVGID_00000137843598012810468470000014234625808620899513_"  style="overflow:visible;"/>
	</clipPath>
	<g style="clip-path:url(#SVGID_00000119112696288974756760000012816540297243412146_);">
		<rect x="2" y="65.7" class="st1" width="64" height="79.1"/>
	</g>
</g>
<g>
	<defs>
		<path id="SVGID_00000018198595147955983910000014930393591655506329_" d="M267.7,65.7c-3.2,0-5.7,2.6-5.7,5.7V98h-28.1V71.4
			c0-3.2-2.6-5.7-5.7-5.7h-12.6v79.1h18.3v-30.7h28.1v30.7h18.3V65.7H267.7L267.7,65.7z"/>
	</defs>
	<use xlink:href="#SVGID_00000018198595147955983910000014930393591655506329_"  style="overflow:visible;fill:#FFFFFF;"/>
	<clipPath id="SVGID_00000115485211058312763720000010093852862915281084_">
		<use xlink:href="#SVGID_00000018198595147955983910000014930393591655506329_"  style="overflow:visible;"/>
	</clipPath>
	<g style="clip-path:url(#SVGID_00000115485211058312763720000010093852862915281084_);">
		<rect x="215.5" y="65.7" class="st1" width="64.7" height="79.1"/>
	</g>
</g>
<g>
	<defs>
		<path id="SVGID_00000043433317395475831690000009990268533184904625_" d="M336.9,65.7c-0.8,0-1.4,0.6-1.4,1.4v46.8
			c0,2.2,0,3.3-0.1,4.7c-0.5,8.2-4.7,12.7-12.7,12.7s-12.2-4.5-12.7-12.7c-0.1-1.4-0.1-2.5-0.1-4.7V67.1c0-0.8-0.6-1.4-1.4-1.4
			h-15.6c-0.8,0-1.4,0.6-1.4,1.4v43c0,4,0,6.4,0.3,11.1c0.8,13.3,9.2,25.2,30.8,25.2s30-11.9,30.8-25.2c0.3-4.7,0.3-7.1,0.3-11.1
			v-43c0-0.8-0.6-1.4-1.4-1.4L336.9,65.7L336.9,65.7z"/>
	</defs>
	<use xlink:href="#SVGID_00000043433317395475831690000009990268533184904625_"  style="overflow:visible;fill:#FFFFFF;"/>
	<clipPath id="SVGID_00000130625359729076449130000014600129260768876685_">
		<use xlink:href="#SVGID_00000043433317395475831690000009990268533184904625_"  style="overflow:visible;"/>
	</clipPath>
	<g style="clip-path:url(#SVGID_00000130625359729076449130000014600129260768876685_);">
		<rect x="291.5" y="65.7" class="st1" width="62.3" height="80.7"/>
	</g>
</g>
<g>
	<defs>
		<path id="SVGID_00000174585771130496166350000012081797635533229965_" d="M391.1,64.9c-19.4,0-29.4,14.2-29.1,26.4v26.4
			c1.1,16.6,11.7,25.7,29.1,26.4h11.6c19.4,0,29.1-11.5,29.1-29.1H410v2c0,6.1-5,11.1-11.1,11.1h-4.2c-6.1,0-11.1-5-11.1-11.1V91.8
			c0-6.1,5-11.1,11.1-11.1h4.2c6.1,0,11.1,5,11.1,11.1v3.4h21.9c0-17.6-9.7-30.3-29.1-30.3L391.1,64.9L391.1,64.9z"/>
	</defs>
	<use xlink:href="#SVGID_00000174585771130496166350000012081797635533229965_"  style="overflow:visible;fill:#FFFFFF;"/>
	<clipPath id="SVGID_00000072270603316553810920000005248134136555916474_">
		<use xlink:href="#SVGID_00000174585771130496166350000012081797635533229965_"  style="overflow:visible;"/>
	</clipPath>
	<g style="clip-path:url(#SVGID_00000072270603316553810920000005248134136555916474_);">
		<rect x="361.8" y="64.9" class="st1" width="70.1" height="79.1"/>
	</g>
</g>
<g>
	<defs>
		<path id="SVGID_00000150091719041263863800000004400958853485545913_" d="M166.8,64.9c-19.4,0-29.4,14.2-29.1,26.4v26.4
			c1.1,16.6,11.7,25.7,29.1,26.4h11.6c19.4,0,29.1-11.5,29.1-29.1h-21.9v2c0,6.1-5,11.1-11.1,11.1h-4.2c-6.1,0-11.1-5-11.1-11.1
			V91.8c0-6.1,5-11.1,11.1-11.1h4.2c6.1,0,11.1,5,11.1,11.1v3.4h21.9c0-17.6-9.7-30.3-29.1-30.3L166.8,64.9L166.8,64.9z"/>
	</defs>
	<use xlink:href="#SVGID_00000150091719041263863800000004400958853485545913_"  style="overflow:visible;fill:#FFFFFF;"/>
	<clipPath id="SVGID_00000115488696599653511940000012604251726408146068_">
		<use xlink:href="#SVGID_00000150091719041263863800000004400958853485545913_"  style="overflow:visible;"/>
	</clipPath>
	<g style="clip-path:url(#SVGID_00000115488696599653511940000012604251726408146068_);">
		<rect x="137.5" y="64.9" class="st1" width="70.1" height="79.1"/>
	</g>
</g>
<g>
	<defs>
		<path id="SVGID_00000054228518623708907240000010359202157329207186_" d="M459.4,65.1c-1,0-1.9,0.6-2.2,1.6L431,142.9
			c-0.2,0.7,0.3,1.4,1,1.4h16.4c1.2,0,2.3-0.7,2.7-1.9l6.7-17.2c0,0,9,4.7,20.1,5c0.5,0,0.8-0.4,0.6-0.9l-4.2-13.6
			c-0.2-0.6-0.7-1.1-1.3-1.1c-2.7-0.4-10-1.6-11.4-3.9l7.1-23.1c0.1-0.4,0.7-0.4,0.9,0l19.9,56.2c0.3,0.9,1.1,1.4,2,1.4h17.3
			c0.8,0,1.3-0.8,1-1.5l-26.6-77.4c-0.3-0.9-1.1-1.4-2-1.4C481.4,65.1,459.4,65.1,459.4,65.1z"/>
	</defs>
	<use xlink:href="#SVGID_00000054228518623708907240000010359202157329207186_"  style="overflow:visible;fill:#FFFFFF;"/>
	<clipPath id="SVGID_00000177465571864364475740000010343579841852561335_">
		<use xlink:href="#SVGID_00000054228518623708907240000010359202157329207186_"  style="overflow:visible;"/>
	</clipPath>
	<g style="clip-path:url(#SVGID_00000177465571864364475740000010343579841852561335_);">
		<rect x="430.8" y="65.1" class="st1" width="79.4" height="80.3"/>
	</g>
</g>
<g>
	<defs>
		<path id="SVGID_00000030484048551174483830000001022369171729296792_" d="M86.9,65.1c-0.9,0-1.7,0.6-2,1.4l-26.6,77.4
			c-0.2,0.7,0.3,1.5,1,1.5h17.3c0.9,0,1.7-0.6,2-1.4l19.9-56.2c0.1-0.4,0.7-0.4,0.9,0l7.2,23.1c-1.4,2.3-8.7,3.5-11.4,3.9
			c-0.6,0.1-1.2,0.5-1.3,1.1l-4.2,13.6c-0.1,0.4,0.2,0.9,0.6,0.9c11.2-0.4,20.1-5,20.1-5l6.7,17.2c0.4,1.1,1.5,1.9,2.7,1.9h16.4
			c0.8,0,1.3-0.7,1-1.4l-26.2-76.3c-0.3-0.9-1.2-1.6-2.2-1.6C108.9,65.1,86.9,65.1,86.9,65.1z"/>
	</defs>
	<use xlink:href="#SVGID_00000030484048551174483830000001022369171729296792_"  style="overflow:visible;fill:#FFFFFF;"/>
	<clipPath id="SVGID_00000160877607621974698980000006535982810795300273_">
		<use xlink:href="#SVGID_00000030484048551174483830000001022369171729296792_"  style="overflow:visible;"/>
	</clipPath>
	<g style="clip-path:url(#SVGID_00000160877607621974698980000006535982810795300273_);">
		<rect x="58" y="65.1" class="st1" width="79.4" height="80.3"/>
	</g>
</g>
</svg>
