<svg xmlns="http://www.w3.org/2000/svg" data-name="Layer 1" width="910.9" height="705" viewBox="0 0 910.90802 704.99598" xmlns:xlink="http://www.w3.org/1999/xlink">
<ellipse cx="697.3" cy="542.8" rx="48.5" ry="99" fill="#08B38B"/>
<path d="M 837.4 802.3 c 19.4 -116.6 0.2 -232.7 0 -233.8 l -3.8 0.6 c 0.2 1.2 19.3 116.7 0 232.6 Z" transform="translate(-144.5,-97.5)" fill="#cacaca"/>
<rect x="818.3" y="607.5" width="3.8" height="49.7" transform="translate(-268.9,959.9) rotate(-61.9)" fill="#cacaca"/>
<rect x="841.6" y="642.3" width="49.7" height="3.8" transform="translate(-346,387.6) rotate(-28.2)" fill="#cacaca"/>
<ellipse cx="813.9" cy="386.1" rx="94.9" ry="193.6" fill="#e6e6e6"/><path d="M 947.8 800.2 c 37.9 -227.7 0.4 -454.5 0 -456.8 l -3.8 0.6 c 0.4 2.3 37.8 228.5 0 455.5 Z" transform="translate(-144.5,-97.5)" fill="#cacaca"/>
<rect x="914.1" y="419.6" width="3.8" height="97.3" transform="translate(-73.5,957.6) rotate(-61.9)" fill="#cacaca"/>
<rect x="957.9" y="489.4" width="97.3" height="3.8" transform="translate(-257.3,435.6) rotate(-28.2)" fill="#cacaca"/>
<path d="M 738.1 800.8 H 233.5 a 7 7 0 0 1 -7 -7 V 474.9 a 7 7 0 0 1 7 -7 H 738.1 a 7 7 0 0 1 7 7 v 318.8 A 7 7 0 0 1 738.1 800.8 Z" transform="translate(-144.5,-97.5)" fill="#e4e4e4"/>
<path d="M 279.9 506.6 a 3 3 0 0 0 -3 3 V 759.2 a 3 3 0 0 0 3 3 H 691.7 a 3 3 0 0 0 3 -3 V 509.6 a 3 3 0 0 0 -3 -3 Z" transform="translate(-144.5,-97.5)" fill="#ffffff"/>
<path d="M 695.7 570.9 V 555 H 637.4 V 505.6 H 621.6 v 49.5 H 517.9 V 505.6 H 502.1 v 49.5 H 342.2 V 505.6 H 326.4 v 49.5 H 271.1 v 15.8 h 55.3 v 61.5 H 271.1 v 15.8 h 55.3 v 65.9 H 271.1 v 15.8 h 140.5 V 763.1 h 15.8 V 729.9 h 74.7 V 763.1 h 15.8 V 729.9 H 695.7 V 714.1 H 517.9 V 648.2 H 695.7 V 632.4 H 637.4 V 570.9 Z m -193.5 0 v 19.3 H 342.2 V 570.9 Z m -159.9 35.1 H 502.1 v 26.4 H 342.2 Z m 0 108.1 V 648.2 h 69.4 v 65.9 Z m 159.9 0 H 427.5 V 648.2 h 74.7 Z m 119.5 -81.7 H 517.9 V 570.9 H 621.6 Z" transform="translate(-144.5,-97.5)" fill="#e6e6e6"/>
<circle cx="365.5" cy="544.8" r="20.2" fill="#08B38B"/>
<polygon points="910.5,705 0,705 0,702.8 910.9,702.8 910.5,705" fill="#cacaca"/>
<circle cx="367.9" cy="300.1" r="124.7" fill="#08B38B"/>
<polygon points="369.1,502.7 329.8,435.4 290.4,368.2 368.3,367.7 446.3,367.2 407.7,435 369.1,502.7" fill="#08B38B"/>
<circle cx="368.9" cy="299.3" r="44.7" fill="#ffffff"/>
<path d="M 509.6 98.1 s -26.7 -7.5 -34.6 28.9 s -2.9 31.9 -2.9 31.9 l 59.5 -7 S 549.6 109.2 509.6 98.1 Z" transform="translate(-144.5,-97.5)" fill="#2f2e41"/>
<path d="M 470.8 258 s -40.2 1.9 -33.3 17.7 q 0.7 1.7 1.4 3.1 a 282.5 282.5 0 0 0 17.2 33.2 l 24.7 41 l 9 -5 l -25.3 -65.8 l 22.8 -1.9 Z" transform="translate(-144.5,-97.5)" fill="#ffb6b6"/><path d="M 576.9 274.7 l 13 28.3 s 9.8 9.8 20.4 48.8 s 13 37.6 13 37.6 l -10.6 3.5 l -43.3 -78.8 l -21.4 -26.9 l 6.5 -14.4 Z" transform="translate(-144.5,-97.5)" fill="#ffb6b6"/><path d="M 561.1 242.2 l 18.7 34.8 s 42.4 83.3 38 83 c -4.9 -0.3 -18.8 5.4 -23 11 c -2 2.7 -32 -63 -42.5 -77.7 L 529.5 275.7 s -64.6 10.9 -64.7 7.3 c 0 -1.7 21.4 39.8 17 38 c -5 -2.1 -16.8 8.1 -22 6 c -2.1 -0.9 -17.3 -37.6 -23.4 -52.7 a 8.1 8.1 0 0 1 3.8 -10.3 c 4.6 -2.4 68.7 -17 68.7 -17 l -1.1 -5.7 l 4.6 -9.3 Z" transform="translate(-144.5,-97.5)" fill="#2f2e41"/><circle cx="504.9" cy="136.8" r="18.1" transform="translate(144.5,515.7) rotate(-80.8)" fill="#ffb6b6"/><path d="M 562.8 245 c 1 3 -5.5 4.7 -14.5 3 c -7.8 -1.5 -16.4 -3.2 -23.1 -4.6 c -7.2 -1.5 -12.4 -2.6 -12.4 -2.6 s -1.9 11.6 -7.9 10.2 c -5.2 -1.2 -20.8 -55.5 -25 -70.5 a 5.2 5.2 0 0 1 2.3 -5.9 l 21.4 -13 s 14.7 -5.1 20.1 -5.2 s 14.7 -1.5 14.7 -1.5 s 10.7 0.9 12.5 8.8 s 9.6 54.7 9.8 66 C 560.8 242 559.8 236 562.8 245 Z" transform="translate(-144.5,-97.5)" fill="#cacaca"/><path d="M 511.7 113.5 s -7.5 19.9 -25.9 28.2 l -3 -17.7 Z" transform="translate(-144.5,-97.5)" fill="#2f2e41"/><ellipse cx="378" cy="32.3" rx="2.6" ry="4.9" fill="#ffb6b6"/><path d="M 497.3 357.7 l -35.9 16.5 l -0.2 -0.5 a 15.4 15.4 0 0 1 7.6 -20.4 l 0 0 l 21.9 -10.1 Z" transform="translate(-144.5,-97.5)" fill="#2f2e41"/><path d="M 607.4 390.6 l 22 -9.9 l 0 0 a 15.4 15.4 0 0 1 20.3 7.7 l 0.2 0.5 l -36.1 16.2 Z" transform="translate(-144.5,-97.5)" fill="#2f2e41"/><polygon points="403.2,104.5 399,150.8 406.5,151.1 403.2,104.5" opacity="0.2"/><path d="M 518.5 288.4 a 9.1 9.1 0 0 0 -2 -13.9 L 500.3 192.9 l -18.6 7.1 l 21.7 78 A 9.2 9.2 0 0 0 518.5 288.4 Z" transform="translate(-144.5,-97.5)" fill="#ffb6b6"/><path d="M 504.4 206.7 L 484 210.3 a 4.1 4.1 0 0 1 -4.8 -3.9 l -0.6 -20.6 a 11.4 11.4 0 0 1 22.4 -3.9 l 6.5 19.5 a 4.1 4.1 0 0 1 -3.2 5.3 Z" transform="translate(-144.5,-97.5)" fill="#cacaca"/><path d="M 534.1 287 a 9.1 9.1 0 0 0 2.6 -13.8 l 10.9 -82.5 l -19.9 0.8 l -4.4 80.8 a 9.2 9.2 0 0 0 10.9 14.6 Z" transform="translate(-144.5,-97.5)" fill="#ffb6b6"/><path d="M 547 205.1 l -20.5 -3.1 a 4.1 4.1 0 0 1 -3.3 -5.3 l 6.1 -19.7 a 11.4 11.4 0 0 1 22.5 3.5 l -0.1 20.6 a 4.1 4.1 0 0 1 -4.7 4 Z" transform="translate(-144.5,-97.5)" fill="#cacaca"/></svg>